<?xml version="1.0" encoding="UTF-8"?><svg id="Background" xmlns="http://www.w3.org/2000/svg" xmlns:xlink="http://www.w3.org/1999/xlink" viewBox="0 0 260 130"><defs><style>.cls-1{fill:#e4771d;}.cls-1,.cls-2,.cls-3,.cls-4,.cls-5,.cls-6,.cls-7,.cls-8,.cls-9,.cls-10,.cls-11,.cls-12,.cls-13,.cls-14,.cls-15,.cls-16,.cls-17,.cls-18,.cls-19,.cls-20,.cls-21,.cls-22,.cls-23,.cls-24,.cls-25,.cls-26,.cls-27,.cls-28,.cls-29,.cls-30,.cls-31,.cls-32,.cls-33,.cls-34,.cls-35,.cls-36,.cls-37,.cls-38,.cls-39,.cls-40,.cls-41{stroke-width:0px;}.cls-2,.cls-13,.cls-20,.cls-40{fill:#fff;}.cls-2,.cls-39{opacity:.4;}.cls-3{fill:#ffecbd;}.cls-4{fill:#400000;}.cls-4,.cls-7,.cls-8,.cls-28,.cls-40{opacity:.2;}.cls-5{fill:#f2efde;}.cls-6{fill:#997b7d;}.cls-7{fill:#450000;}.cls-8{fill:#1d000e;}.cls-9{fill:#eae5ec;}.cls-10{fill:#8bc43f;}.cls-42{clip-path:url(#clippath-2);}.cls-12{fill:#121305;}.cls-13{opacity:.5;}.cls-43{clip-path:url(#clippath-6);}.cls-14{fill:#ecebe9;}.cls-15{fill:none;}.cls-16{fill:#e2d8d6;}.cls-17{fill:#745b63;}.cls-44{clip-path:url(#clippath-7);}.cls-18{fill:#9a8692;}.cls-45{clip-path:url(#clippath-1);}.cls-46{clip-path:url(#clippath-4);}.cls-19{fill:#d0b8c5;}.cls-21{fill:#b84024;}.cls-22{fill:#ae9c90;}.cls-23{fill:#008ce7;}.cls-24{fill:#42bf9f;}.cls-47{clip-path:url(#clippath-9);}.cls-48{clip-path:url(#clippath);}.cls-25{fill:#c4ceea;}.cls-26,.cls-28{fill:#f69021;}.cls-27{fill:#9f9c95;}.cls-29{fill:#f4f1b3;}.cls-30{fill:#34323f;}.cls-49{clip-path:url(#clippath-3);}.cls-31{fill:#726d68;}.cls-50{clip-path:url(#clippath-8);}.cls-32{fill:#ab97a9;}.cls-33{fill:#ffd3a6;}.cls-34{fill:#728b4d;}.cls-51{clip-path:url(#clippath-5);}.cls-35{fill:#2e3133;}.cls-36{fill:#fff600;}.cls-37{fill:#d79c21;}.cls-38{fill:#c06521;}.cls-52{clip-path:url(#clippath-10);}.cls-39{fill:#cabcaf;}.cls-41{fill:#806167;}</style><clipPath id="clippath"><polygon class="cls-15" points="230.12 98.3 167.66 98.3 159.78 54.09 237.81 54.09 230.12 98.3"/></clipPath><clipPath id="clippath-1"><path class="cls-15" d="m189.42,47.72c-2.88-2.37-3.59-4.92-3.94-8.5-.59-6.13,2.37-12.99,1.66-18.22-1.03-7.59-5.72-10.03-11.16-10.22-.38-.01-.76,0-1.12.05-.29-.02-.58-.05-.88-.05-5.44-.19-9.38,5.63-9.38,10.88s5.63,19.31,4.88,25.31c-.75,6-9.75,7.12-9.75,7.12h78.13s-43.72-2.48-48.44-6.38Z"/></clipPath><clipPath id="clippath-2"><path class="cls-15" d="m198.29,77.08h2.15v-8.67h-11.35v8.67h2.15c-2.09,0-3.78,1.05-3.78,2.34v18.8c0,1.29,1.69,2.34,3.78,2.34h7.04c2.09,0,3.78-1.05,3.78-2.34v-18.8c0-1.29-1.69-2.34-3.78-2.34Z"/></clipPath><clipPath id="clippath-3"><path class="cls-15" d="m119.16,46.79h-60.33s-1.13,7.81,0,14.84c1.12,6.91,3.34,14.86,11.11,19.13h-.13c-1.8,0-3.27,1.68-3.27,3.75v3.72c0,2.07,1.46,4.42,3.27,4.42h37.82c1.8,0,3.26-2.35,3.26-4.42v-3.72c0-1.93-1.28-3.51-2.92-3.71,7.82-4.27,10.06-12.25,11.17-19.17,1.14-7.03,0-14.84,0-14.84Z"/></clipPath><clipPath id="clippath-4"><path class="cls-15" d="m125.45,45.24s-8.27-5.17-11.39-5.17c-1.1,0-2.11.64-2.98,1.46.12-.3.18-.61.18-.93,0-2.56-4.24-9.33-4.24-9.33,0,0-4.23,6.77-4.23,9.33,0,.32.07.63.18.93-.86-.82-1.88-1.46-2.98-1.46-3.13,0-11.39,5.17-11.39,5.17,0,0,8.27,5.17,11.39,5.17,1.1,0,2.12-.64,2.98-1.46-.11.3-.18.61-.18.92,0,2.56,4.23,9.33,4.23,9.33,0,0,4.24-6.77,4.24-9.33,0-.32-.06-.63-.18-.92.87.82,1.89,1.46,2.98,1.46,3.13,0,11.39-5.17,11.39-5.17Zm-20.64,1.43c.53-.81.84-1.43.84-1.43,0,0-.31-.62-.84-1.43,1.09.88,2.21,1.43,2.21,1.43,0,0,1.12-.55,2.21-1.44-.53.81-.83,1.44-.83,1.44,0,0,.31.62.83,1.43-1.09-.88-2.21-1.43-2.21-1.43,0,0-1.12.55-2.21,1.43Z"/></clipPath><clipPath id="clippath-5"><path class="cls-15" d="m169.26,37.4c1.36-.08,3.31.77,3.31.77l-3.9-4.53h.21c.28,0,.51-.23.51-.51,0-.24-.17-.43-.39-.49.5-.41.83-1.04.83-1.75v-3.72c0-1.23-.97-2.23-2.17-2.23h-38.34c-1.2,0-2.17,1-2.17,2.23v3.72c0,.71.33,1.33.83,1.75-.22.05-.39.25-.39.49,0,.28.23.51.51.51h.76l-4.49,4.96s1.33-.76,2.65-.91c-2.08.98-3.5,2.83-3.5,4.97v53.68c0,3.16,3.04,5.72,6.8,5.72h36.28c3.76,0,6.8-2.56,6.8-5.72v-53.68c0-2.37-1.71-4.4-4.16-5.27Z"/></clipPath><clipPath id="clippath-6"><path class="cls-15" d="m199.66,97.65c-.01-2.91-11.5-5.26-25.66-5.26s-25.64,2.35-25.66,5.26h0v8.26h0c0,2.91,11.49,5.26,25.66,5.26s25.66-2.35,25.66-5.26h0s0,0,0,0v-8.26h0Z"/></clipPath><clipPath id="clippath-7"><path class="cls-15" d="m84.47,54.5h3.54v-14.24h-18.64v14.24h3.54c-3.43,0-6.21,2.45-6.21,5.46v43.88c0,3.02,2.78,5.47,6.21,5.47h11.56c3.43,0,6.21-2.45,6.21-5.47v-43.88c0-3.02-2.78-5.46-6.21-5.46Z"/></clipPath><clipPath id="clippath-8"><path class="cls-15" d="m117.37,76.63h-.25v-2.51h1.75v-9.88h-1.75c0-.7-.55-1.26-1.25-1.29v-7.07c0-.99-1.23-1.8-2.76-1.8s-2.76.81-2.76,1.8v7.07c-.69.03-1.25.59-1.25,1.29h-1.75v9.88h1.75v2.51h-.25c-2.53,0-4.58,1.53-4.58,3.42v27.48c0,1.89,2.05,3.42,4.58,3.42h8.52c2.53,0,4.58-1.53,4.58-3.42v-27.48c0-1.89-2.05-3.42-4.58-3.42Z"/></clipPath><clipPath id="clippath-9"><path class="cls-15" d="m45.88,66.13h-.21v-5.27h-.07c.55,0,1-.45,1-1s-.45-1-1-1h-6.41c-.55,0-1,.45-1,1s.45,1,1,1h-.07v5.27h-.21c-2.07,0-3.75,1.79-3.75,3.99v32.06c0,2.21,1.68,4,3.75,4h6.97c2.07,0,3.75-1.79,3.75-4v-32.06c0-2.2-1.68-3.99-3.75-3.99Z"/></clipPath><clipPath id="clippath-10"><path class="cls-15" d="m229.91,84.51c-.87-.45-1.51-.9-2.12-1.69-.44-.58-.63-2.27-.63-2.27v-2.58h.63v-.79h.53v-5.09h-9.92v5.09h.53v.79h.63v2.47s-.38,1.96-.84,2.55c-.75.99-1.5,1.25-2.55,1.87-4.24,2.47-7.09,7.06-7.09,12.32,0,7.88,6.39,14.27,14.27,14.27s14.27-6.39,14.27-14.27c0-5.52-3.14-10.3-7.72-12.67Z"/></clipPath></defs><path class="cls-17" d="m239.17,20.54l-54.11,61.1c-1.2,1.35-1.07,3.42.28,4.62,1.35,1.2,3.42,1.07,4.62-.28l54.11-61.1c1.2-1.35,1.07-3.42-.28-4.62-1.35-1.2-3.42-1.07-4.62.28Z"/><path class="cls-6" d="m239.71,21.36l-25.71,29.42c-.36.41-.32,1.04.09,1.4.41.36,1.04.32,1.39-.09l25.72-29.42c.36-.41.32-1.04-.1-1.4-.41-.36-1.03-.32-1.39.09Z"/><path class="cls-32" d="m183.48,39.22c-.59-6.13,2.37-12.99,1.66-18.22-1.03-7.59-5.72-10.03-11.16-10.22-5.44-.19-9.38,5.63-9.38,10.88s5.63,19.31,4.88,25.31c-.75,6-9.75,7.12-9.75,7.12h76.13s-43.72-2.48-48.44-6.38c-2.87-2.37-3.59-4.92-3.94-8.5Z"/><path class="cls-17" d="m185.48,39.22c-.59-6.13,2.37-12.99,1.66-18.22-1.03-7.59-5.72-10.03-11.16-10.22-5.44-.19-9.38,5.63-9.38,10.88s5.62,19.31,4.88,25.31c-.75,6-8.1,7.12-8.1,7.12h74.47s-43.72-2.48-48.44-6.38c-2.88-2.37-3.59-4.92-3.94-8.5Z"/><polygon class="cls-19" points="167.66 98.3 230.12 98.3 237.81 54.09 159.78 54.09 167.66 98.3"/><polygon class="cls-6" points="159.78 54.09 167.66 98.3 179.95 98.3 177.02 54.09 159.78 54.09"/><polygon class="cls-6" points="193.62 98.3 207.75 98.3 209.29 54.09 193.62 54.09 193.62 98.3"/><polygon class="cls-6" points="219.23 98.3 230.12 98.3 237.81 54.09 223.53 54.09 219.23 98.3"/><g class="cls-48"><rect class="cls-8" x="159.17" y="53.26" width="42.29" height="47.59"/></g><path class="cls-30" d="m177.39,17.64c-1.12,0-2.04,1.18-2.04,2.63s.91,2.63,2.04,2.63,2.04-1.18,2.04-2.63-.91-2.63-2.04-2.63Z"/><g class="cls-45"><polygon class="cls-8" points="157.03 7.48 155.61 55.55 179.95 57.16 176.8 6.61 157.03 7.48"/></g><path class="cls-21" d="m198.29,77.08h-7.04c-2.09,0-3.78,1.05-3.78,2.34v18.8c0,1.29,1.69,2.34,3.78,2.34h7.04c2.09,0,3.78-1.05,3.78-2.34v-18.8c0-1.29-1.69-2.34-3.78-2.34Z"/><rect class="cls-27" x="189.1" y="68.41" width="11.35" height="8.67"/><rect class="cls-20" x="187.47" y="82.51" width="14.6" height="12.14"/><rect class="cls-30" x="187.47" y="82.51" width="14.6" height="6.3"/><path class="cls-9" d="m199.43,69.1c-.14,0-.26.11-.26.26v6.7c0,.14.11.26.26.26s.26-.11.26-.26v-6.7c0-.14-.12-.26-.26-.26Z"/><path class="cls-9" d="m197.87,69.1c-.14,0-.25.11-.25.26v6.7c0,.14.11.26.25.26s.26-.11.26-.26v-6.7c0-.14-.11-.26-.26-.26Z"/><path class="cls-9" d="m196.32,69.1c-.14,0-.25.11-.25.26v6.7c0,.14.12.26.25.26s.26-.11.26-.26v-6.7c0-.14-.11-.26-.26-.26Z"/><path class="cls-9" d="m194.77,69.1c-.14,0-.25.11-.25.26v6.7c0,.14.12.26.25.26s.26-.11.26-.26v-6.7c0-.14-.11-.26-.26-.26Z"/><path class="cls-9" d="m193.22,69.1c-.14,0-.25.11-.25.26v6.7c0,.14.11.26.25.26s.26-.11.26-.26v-6.7c0-.14-.12-.26-.26-.26Z"/><path class="cls-9" d="m191.67,69.1c-.14,0-.25.11-.25.26v6.7c0,.14.11.26.25.26s.26-.11.26-.26v-6.7c0-.14-.12-.26-.26-.26Z"/><path class="cls-9" d="m190.12,69.1c-.14,0-.25.11-.25.26v6.7c0,.14.11.26.25.26s.26-.11.26-.26v-6.7c0-.14-.12-.26-.26-.26Z"/><path class="cls-40" d="m200,78.18c-.66,0-1.19.53-1.19,1.19v18.91c0,.65.53,1.19,1.19,1.19s1.19-.53,1.19-1.19v-18.91c0-.66-.53-1.19-1.19-1.19Z"/><g class="cls-42"><rect class="cls-8" x="186.76" y="67.65" width="8.01" height="34.19"/></g><path class="cls-18" d="m105.49,9.08c-2.67,2.05-2.05,7.25-5.3,12.99-3.25,5.73-8.49,12.36-11.56,15.45-3.07,3.08-18.14,32.09-17.94,33.88.2,1.79,3.74,7.39,6.42,8.42,2.68,1.02,8.72,2.26,11.31.41,2.6-1.85,16.78-31.31,17.13-34.72.35-3.41,2.84-11.71,4.74-15.64,1.9-3.93,7.91-7.31,8.95-10.34,1.04-3.03.93-7.09-4.47-9.98-3.17-1.7-6.61-2.52-9.28-.46Z"/><path class="cls-40" d="m107.5,9.8c-1.55.69-2.24,2.52-1.55,4.07.69,1.55,2.52,2.25,4.07,1.55,1.55-.7,2.25-2.52,1.55-4.07-.7-1.55-2.52-2.25-4.07-1.55Z"/><path class="cls-9" d="m107.64,80.76h-37.82c-1.8,0-3.27,1.68-3.27,3.75v3.72c0,2.07,1.46,4.42,3.27,4.42h37.82c1.8,0,3.26-2.35,3.26-4.42v-3.72c0-2.07-1.46-3.75-3.26-3.75Z"/><path class="cls-9" d="m89,46.79h-30.17s-1.13,7.81,0,14.84c1.14,7.03,3.41,15.15,11.52,19.37,8.11,4.22,18.65,3.44,18.65,3.44,0,0,10.54.78,18.65-3.44,8.11-4.22,10.38-12.34,11.51-19.37,1.14-7.03,0-14.84,0-14.84h-30.16Z"/><g class="cls-49"><rect class="cls-4" x="54.4" y="45.39" width="35.3" height="53.65"/></g><path class="cls-34" d="m108.39,45.24s2.53,5.17,5.66,5.17,11.39-5.17,11.39-5.17c0,0-8.27-5.17-11.39-5.17s-5.66,5.17-5.66,5.17Z"/><path class="cls-34" d="m99.98,40.07c-3.13,0-11.39,5.17-11.39,5.17,0,0,8.27,5.17,11.39,5.17s5.66-5.17,5.66-5.17c0,0-2.54-5.17-5.66-5.17Z"/><path class="cls-10" d="m107.02,45.24s-4.23,2.08-4.23,4.64,4.23,9.33,4.23,9.33c0,0,4.24-6.77,4.24-9.33s-4.24-4.64-4.24-4.64Z"/><path class="cls-10" d="m102.78,40.6c0,2.56,4.23,4.64,4.23,4.64,0,0,4.24-2.08,4.24-4.64s-4.24-9.33-4.24-9.33c0,0-4.23,6.77-4.23,9.33Z"/><g class="cls-46"><rect class="cls-4" x="86.71" y="27.38" width="20.31" height="35.02"/></g><path class="cls-14" d="m166.61,36.95h-36.28c-3.76,0-6.8,2.56-6.8,5.72v53.68c0,3.16,3.04,5.72,6.8,5.72h36.28c3.76,0,6.8-2.56,6.8-5.72v-53.68c0-3.16-3.05-5.72-6.8-5.72Z"/><path class="cls-14" d="m167.66,24.95h-38.34c-1.2,0-2.17,1-2.17,2.23v3.72c0,1.23.97,2.23,2.17,2.23h38.34c1.2,0,2.17-1,2.17-2.23v-3.72c0-1.23-.97-2.23-2.17-2.23Z"/><path class="cls-25" d="m165.73,37.77h-34.52c-3.58,0-6.47,2.43-6.47,5.44v51.08c0,3.01,2.9,5.44,6.47,5.44h34.52c3.57,0,6.47-2.44,6.47-5.44v-51.08c0-3.01-2.9-5.44-6.47-5.44Z"/><path class="cls-20" d="m129.32,33.14l-4.95,5.47s2.16-1.25,3.7-.86c1.23.31,1.89,1.55,3.4,1.81,1.72.29,3.69-1.15,4.8-1.19,1.54-.06,2.77,1.55,4.15,1.6,1.66.06,3.57-1.32,4.8-1.19,1.23.14,2.05,1.44,3.58,1.52,1.79.1,2.65-1.81,4.25-1.69,1.61.12,1.91,1.66,4.13,1.66s2.65-1.85,4.38-1.73c1.73.12,2.47,1.05,3.95,1.05s1.73-.68,2.71-1.79c.99-1.11,4.34.37,4.34.37l-4.34-5.04h-38.91Z"/><path class="cls-1" d="m168.88,32.63h-40.79c-.28,0-.51.23-.51.51s.23.51.51.51h40.79c.28,0,.51-.23.51-.51s-.23-.51-.51-.51Z"/><path class="cls-13" d="m165.34,41.95c-2.24,0-4.05,1.81-4.05,4.05v46.68c0,2.24,1.81,4.05,4.05,4.05s4.05-1.81,4.05-4.05v-46.68c0-2.24-1.81-4.05-4.05-4.05Z"/><path class="cls-20" d="m166.19,26.47h-12.95c-1.27,0-2.29,1.03-2.29,2.29s1.03,2.29,2.29,2.29h12.95c1.27,0,2.29-1.03,2.29-2.29s-1.03-2.29-2.29-2.29Z"/><g class="cls-51"><rect class="cls-7" x="120.48" y="23.25" width="27.99" height="85.77"/></g><path class="cls-12" d="m150.53,67.81c-.5-1.81-1.69-3.51-3.79-3.45-2.03.06-3.45,2.14-2.84,3.45,0,0,.31.62,1.14.79.82.16,1.27-1.16,1.27-1.16,0,0,.43,1.85.43,2.67,0,1.6,1.73,9.95,1.97,11.1.4,1.91.49,5.02.49,7.16s.49,9.87,1.48,9.7c.99-.16,2.26-9.47,2.47-12.5.14-1.97-.43-6.6-.92-9.56-.49-2.96-1.22-6.4-1.71-8.2Z"/><path class="cls-12" d="m162.39,70.21c-1.09-1.66-3.6-5.94-4.71-8.73-1.1-2.79-2.52-6-3.38-7.67-.86-1.67-2.38-3.09-4.42-2.59-1.98.48-2.93,2.81-2.05,3.97,0,0,.44.54,1.28.53.84-.01,1-1.39,1-1.39,0,0,.81,1.72.98,2.52.34,1.57,3.77,9.37,4.25,10.44.79,1.78,3.15,4.6,4.84,5.91,2.76,2.12,8.59,5.02,9.52,4.65.93-.37-5.46-4.84-7.31-7.65Z"/><path class="cls-11" d="m139.2,54.66c-.25.14-.52.3-.8.48-.29.18-.59.4-.91.64-.31.25-.64.52-.97.83-.33.31-.67.65-1,1.03-.17.19-.33.39-.49.6-.16.22-.32.44-.47.67-.16.23-.3.48-.45.73-.13.26-.27.52-.4.8-.25.55-.47,1.15-.62,1.79-.04.16-.08.32-.11.48-.03.16-.07.33-.09.49-.02.17-.04.34-.06.5-.01.16-.03.31-.04.47-.03.27-.04.62-.05.95,0,.33-.01.65,0,.98.02.66.08,1.33.18,2,.1.67.25,1.34.43,2,.18.66.4,1.29.63,1.9.22.61.48,1.19.71,1.75.11.27.22.55.33.82.11.27.22.53.31.79.38,1.03.65,1.99.76,2.98.13.96.14,2.06.01,2.81-.07.43-.18.83-.33,1.23-.13.4-.32.77-.52,1.13-.4.71-.89,1.33-1.37,1.86-.48.53-.96.96-1.37,1.31-.41.35-.76.6-.99.78-.24.17-.37.26-.37.26,0,0,.16,0,.46-.05.3-.05.74-.12,1.28-.29.55-.16,1.2-.41,1.92-.79.72-.39,1.5-.92,2.25-1.67.37-.38.73-.81,1.06-1.3.32-.49.61-1.04.84-1.64.47-1.31.61-2.48.63-3.83.01-1.33-.23-2.74-.64-4.02-.1-.32-.2-.63-.31-.94-.11-.31-.23-.61-.34-.9-.22-.56-.45-1.13-.67-1.69-.22-.55-.41-1.08-.57-1.61-.18-.53-.33-1.05-.44-1.58s-.23-1.06-.3-1.59c-.03-.27-.06-.54-.1-.8-.02-.26-.05-.49-.06-.8,0-.13-.02-.27-.02-.4,0-.12,0-.24,0-.36-.01-.12,0-.24,0-.35,0-.12,0-.23.02-.35.04-.47.11-.93.21-1.38.21-.9.54-1.75.92-2.53.19-.39.4-.75.6-1.1s.42-.67.62-.98c.41-.61.8-1.12,1.14-1.55.68-.84,1.12-1.31,1.12-1.31,0,0-.15.05-.43.16-.28.12-.68.3-1.17.58Z"/><rect class="cls-14" x="148.35" y="97.65" width="51.31" height="8.26"/><path class="cls-14" d="m174.01,100.65c-14.17,0-25.66,2.36-25.66,5.27s11.49,5.26,25.66,5.26,25.66-2.35,25.66-5.26-11.49-5.27-25.66-5.27Z"/><path class="cls-18" d="m174.01,92.39c-14.17,0-25.66,2.36-25.66,5.27s11.49,5.26,25.66,5.26,25.66-2.35,25.66-5.26-11.49-5.27-25.66-5.27Z"/><path class="cls-12" d="m184.2,96.42c-2.27.19-4.72,1.03-7.15.62-1.34-.23-8.61-3.22-14.14-1.85-3.53.87-8.43,5.43-8.43,5.43,0,0,8.07-2.96,12.58-2.06,2.54.51,6.28,2.58,9.62,2.43,3.56-.17,6.12-1.84,7.78-1.61,3.5.48,5.3,2.72,5.3,2.72,0,0,.5-2.4-.49-3.63-.99-1.23-3.13-2.2-5.06-2.04Z"/><path class="cls-20" d="m174.01,92.39c-14.17,0-25.66,2.36-25.66,5.27s11.49,5.26,25.66,5.26,25.66-2.35,25.66-5.26-11.49-5.27-25.66-5.27Zm0,8.87c-14.45,0-22.45-2.27-23.87-3.6,1.48-1.39,10.05-3.61,23.87-3.61s22.38,2.21,23.87,3.61c-1.42,1.33-9.42,3.6-23.87,3.6Z"/><g class="cls-43"><rect class="cls-7" x="147.36" y="91.03" width="26.65" height="22.49"/></g><path class="cls-20" d="m88.21,109.2c-1.73,0-3.14,1.41-3.14,3.14s1.41,3.14,3.14,3.14,3.15-1.41,3.15-3.14-1.41-3.14-3.15-3.14Z"/><path class="cls-29" d="m88.32,109.53c-1.49,0-2.7,1.21-2.7,2.7s1.21,2.7,2.7,2.7,2.7-1.21,2.7-2.7-1.21-2.7-2.7-2.7Z"/><path class="cls-20" d="m89.15,110.16c-.62,0-1.11.5-1.11,1.11s.5,1.11,1.11,1.11,1.11-.5,1.11-1.11-.5-1.11-1.11-1.11Z"/><path class="cls-26" d="m84.47,54.5h-11.56c-3.43,0-6.21,2.45-6.21,5.46v43.88c0,3.02,2.78,5.47,6.21,5.47h11.56c3.43,0,6.21-2.45,6.21-5.47v-43.88c0-3.02-2.78-5.46-6.21-5.46Z"/><rect class="cls-27" x="69.37" y="40.26" width="18.64" height="14.24"/><rect class="cls-3" x="66.69" y="67.19" width="23.99" height="28.32"/><rect class="cls-30" x="66.69" y="67.19" width="23.99" height="14.71"/><path class="cls-9" d="m86.48,41.74c-.22,0-.39.18-.39.4v10.36c0,.22.18.4.39.4s.4-.18.4-.4v-10.36c0-.22-.18-.4-.4-.4Z"/><path class="cls-9" d="m84.25,41.74c-.22,0-.4.18-.4.4v10.36c0,.22.18.4.4.4s.4-.18.4-.4v-10.36c0-.22-.18-.4-.4-.4Z"/><path class="cls-9" d="m82.02,41.74c-.22,0-.4.18-.4.4v10.36c0,.22.18.4.4.4s.4-.18.4-.4v-10.36c0-.22-.18-.4-.4-.4Z"/><path class="cls-9" d="m79.78,41.74c-.22,0-.4.18-.4.4v10.36c0,.22.18.4.4.4s.4-.18.4-.4v-10.36c0-.22-.18-.4-.4-.4Z"/><path class="cls-9" d="m77.55,41.74c-.22,0-.39.18-.39.4v10.36c0,.22.18.4.39.4s.4-.18.4-.4v-10.36c0-.22-.18-.4-.4-.4Z"/><path class="cls-9" d="m75.32,41.74c-.22,0-.4.18-.4.4v10.36c0,.22.18.4.4.4s.4-.18.4-.4v-10.36c0-.22-.18-.4-.4-.4Z"/><path class="cls-9" d="m73.08,41.74c-.22,0-.39.18-.39.4v10.36c0,.22.18.4.39.4s.4-.18.4-.4v-10.36c0-.22-.18-.4-.4-.4Z"/><path class="cls-9" d="m70.85,41.74c-.22,0-.4.18-.4.4v10.36c0,.22.18.4.4.4s.4-.18.4-.4v-10.36c0-.22-.18-.4-.4-.4Z"/><path class="cls-40" d="m86.48,58.74c-1.46,0-2.65,1.19-2.65,2.65v42.24c0,1.47,1.19,2.65,2.65,2.65s2.65-1.19,2.65-2.65v-42.24c0-1.46-1.19-2.65-2.65-2.65Z"/><g class="cls-44"><rect class="cls-8" x="62.85" y="38.61" width="15.84" height="72.03"/></g><path class="cls-21" d="m117.37,76.63h-8.52c-2.53,0-4.58,1.53-4.58,3.42v27.48c0,1.89,2.05,3.42,4.58,3.42h8.52c2.53,0,4.58-1.53,4.58-3.42v-27.48c0-1.89-2.05-3.42-4.58-3.42Z"/><rect class="cls-33" x="104.27" y="81.27" width="17.68" height="24.18"/><path class="cls-26" d="m113.11,54.08c-1.52,0-2.76.81-2.76,1.8v10.82c0,.99,1.24,1.8,2.76,1.8s2.76-.81,2.76-1.8v-10.82c0-.99-1.23-1.8-2.76-1.8Z"/><path class="cls-26" d="m115.81,62.94h-5.41c-.72,0-1.31.58-1.31,1.3s.59,1.31,1.31,1.31h5.41c.72,0,1.3-.59,1.3-1.31s-.58-1.3-1.3-1.3Z"/><rect class="cls-21" x="109.1" y="74.12" width="8.02" height="2.51"/><rect class="cls-38" x="107.35" y="64.24" width="11.52" height="9.88"/><path class="cls-40" d="m118.87,78.39c-.96,0-1.73.77-1.73,1.73v27.57c0,.96.78,1.73,1.73,1.73s1.73-.78,1.73-1.73v-27.57c0-.96-.77-1.73-1.73-1.73Z"/><path class="cls-28" d="m116.7,65.12c-.59,0-1.07.48-1.07,1.07v5.92c0,.59.48,1.07,1.07,1.07s1.07-.48,1.07-1.07v-5.92c0-.59-.48-1.07-1.07-1.07Z"/><path class="cls-13" d="m114.43,54.86c-.28,0-.52.23-.52.52v7.04c0,.29.23.52.52.52s.52-.23.52-.52v-7.04c0-.28-.23-.52-.52-.52Z"/><path class="cls-13" d="m115.94,63.33c-.3,0-.55.13-.55.29s.25.29.55.29.55-.13.55-.29-.25-.29-.55-.29Z"/><g class="cls-50"><rect class="cls-8" x="102.69" y="52.87" width="10.42" height="60.61"/></g><path class="cls-20" d="m79.89,105.75c-1.73,0-3.14,1.41-3.14,3.14s1.41,3.15,3.14,3.15,3.15-1.41,3.15-3.15-1.41-3.14-3.15-3.14Z"/><path class="cls-29" d="m80,106.08c-1.49,0-2.7,1.21-2.7,2.7s1.21,2.7,2.7,2.7,2.7-1.21,2.7-2.7-1.21-2.7-2.7-2.7Z"/><path class="cls-20" d="m80.83,106.71c-.61,0-1.11.5-1.11,1.11s.5,1.11,1.11,1.11,1.11-.5,1.11-1.11-.5-1.11-1.11-1.11Z"/><path class="cls-20" d="m70.68,109.24c-1.73,0-3.14,1.41-3.14,3.14s1.41,3.15,3.14,3.15,3.15-1.41,3.15-3.15-1.41-3.14-3.15-3.14Z"/><path class="cls-29" d="m70.79,109.57c-1.49,0-2.7,1.21-2.7,2.7s1.21,2.7,2.7,2.7,2.7-1.21,2.7-2.7-1.21-2.7-2.7-2.7Z"/><path class="cls-20" d="m71.62,110.2c-.61,0-1.11.5-1.11,1.11s.5,1.11,1.11,1.11,1.11-.5,1.11-1.11-.5-1.11-1.11-1.11Z"/><path class="cls-20" d="m62.76,105.64c-1.74,0-3.14,1.41-3.14,3.14s1.41,3.14,3.14,3.14,3.15-1.41,3.15-3.14-1.41-3.14-3.15-3.14Z"/><path class="cls-29" d="m62.87,105.97c-1.49,0-2.7,1.21-2.7,2.7s1.21,2.7,2.7,2.7,2.7-1.21,2.7-2.7-1.21-2.7-2.7-2.7Z"/><path class="cls-20" d="m63.7,106.6c-.62,0-1.11.5-1.11,1.11s.5,1.11,1.11,1.11,1.11-.5,1.11-1.11-.5-1.11-1.11-1.11Z"/><path class="cls-20" d="m104.28,105.79c-1.73,0-3.14,1.41-3.14,3.14s1.41,3.15,3.14,3.15,3.15-1.41,3.15-3.15-1.41-3.14-3.15-3.14Z"/><path class="cls-29" d="m104.39,106.12c-1.49,0-2.7,1.21-2.7,2.7s1.21,2.7,2.7,2.7,2.7-1.21,2.7-2.7-1.21-2.7-2.7-2.7Z"/><path class="cls-20" d="m105.22,106.75c-.61,0-1.11.5-1.11,1.11s.5,1.11,1.11,1.11,1.11-.5,1.11-1.11-.5-1.11-1.11-1.11Z"/><path class="cls-5" d="m45.88,66.13h-6.97c-2.07,0-3.75,1.79-3.75,3.99v32.06c0,2.21,1.68,4,3.75,4h6.97c2.07,0,3.75-1.79,3.75-4v-32.06c0-2.2-1.68-3.99-3.75-3.99Z"/><rect class="cls-18" x="35.16" y="71.54" width="14.47" height="28.21"/><rect class="cls-5" x="39.11" y="60.86" width="6.56" height="5.27"/><path class="cls-5" d="m45.6,58.86h-6.41c-.55,0-1,.45-1,1s.45,1,1,1h6.41c.55,0,1-.45,1-1s-.45-1-1-1Z"/><g class="cls-47"><rect class="cls-8" x="34.23" y="57.84" width="8.16" height="49.87"/></g><path class="cls-20" d="m51.7,67.33c-.1-.1-.34-.03-.54.17-.19.2-.27.43-.17.53l7.52,7.52c.1.1.34.03.54-.17.19-.19.27-.43.17-.54l-7.52-7.52Z"/><rect class="cls-16" x="54.3" y="66" width="7.92" height="4.58" transform="translate(-31.23 61.22) rotate(-45.02)"/><rect class="cls-20" x="25.39" y="80.64" width="34.82" height="6.22" transform="translate(-46.69 54.79) rotate(-45)"/><rect class="cls-20" x="28.14" y="96" width="2.79" height="2.17" transform="translate(-60 49.32) rotate(-45)"/><rect class="cls-24" x="25.19" y="97.7" width="4.63" height="2.84" transform="translate(-62.05 48.52) rotate(-45.03)"/><polygon class="cls-5" points="10.88 115.3 12.23 114.69 26.01 100.9 25.65 100.53 10.88 115.3"/><rect class="cls-24" x="28.75" y="95.74" width=".61" height="3.5" transform="translate(-60.47 49.17) rotate(-45.05)"/><rect class="cls-39" x="34.67" y="77.82" width="23.53" height="4.58" transform="translate(-43.05 56.31) rotate(-45.01)"/><polygon class="cls-20" points="37.91 88.23 38.31 88.63 61.12 65.83 60.72 65.43 37.91 88.23"/><rect class="cls-23" x="30.28" y="89.75" width="8.47" height="4.58" transform="translate(-54.97 51.35) rotate(-44.99)"/><rect class="cls-35" x="37.38" y="86.45" width=".86" height="4.58" transform="translate(-51.67 52.71) rotate(-44.99)"/><path class="cls-20" d="m59.25,62.99c-.06-.06-.26.05-.46.25-.2.19-.3.4-.25.46l4.31,4.31c.06.06.26-.05.46-.24.19-.19.3-.4.25-.46l-4.31-4.31Z"/><path class="cls-22" d="m130.26,117.02c0,.43,4.72.77,10.54.77s10.54-.34,10.54-.77v-6.2h-21.08v6.2Z"/><path class="cls-20" d="m140.8,110.05c-5.82,0-10.54.34-10.54.77s4.72.77,10.54.77,10.54-.34,10.54-.77-4.72-.77-10.54-.77Z"/><path class="cls-36" d="m140.52,97.64c-.8,0-2.58,7.08-2.22,9.58.36,2.5,1.93,2.22,1.93,2.22,2.07-.14,2.58-1.02,2.58-2.72,0-2.72-1.14-9.08-2.29-9.08Z"/><path class="cls-11" d="m140.52,106.72c-.16,0-.29.13-.29.29v3.53c0,.16.13.29.29.29s.29-.13.29-.29v-3.53c0-.16-.13-.29-.29-.29Z"/><path class="cls-2" d="m146.24,111.81h-3.07c-.58,0-1.05,1.28-1.05,2.86s.47,2.86,1.05,2.86h3.07c.58,0,1.05-1.28,1.05-2.86s-.47-2.86-1.05-2.86Z"/><path class="cls-20" d="m229.91,84.51c-.87-.45-1.51-.9-2.12-1.69-.44-.58-.63-2.27-.63-2.27v-2.97h-7.59v2.87s-.38,1.96-.84,2.55c-.75.99-1.5,1.25-2.55,1.87-4.24,2.47-7.09,7.06-7.09,12.32,0,7.88,6.39,14.27,14.27,14.27s14.27-6.39,14.27-14.27c0-5.52-3.14-10.3-7.72-12.67Z"/><rect class="cls-20" x="218.94" y="77.18" width="8.86" height=".79"/><rect class="cls-30" x="218.41" y="72.09" width="9.92" height="5.09"/><path class="cls-37" d="m227.05,86.11h-7.52c-4.81,1.51-8.29,6-8.29,11.3,0,6.54,5.3,11.85,11.85,11.85s11.84-5.3,11.84-11.85c0-5.15-3.3-9.67-7.88-11.3Z"/><g class="cls-52"><rect class="cls-4" x="208.3" y="70.46" width="15.03" height="42.87"/></g><path class="cls-13" d="m225.64,87.42c-.78.83.08,2.91,1.92,4.64,1.84,1.73,3.97,2.46,4.75,1.63.78-.83-.08-2.91-1.92-4.64-1.84-1.73-3.97-2.46-4.75-1.63Z"/><path class="cls-31" d="m227.37,72.58c-.12,0-.21.09-.21.21v3.62c0,.12.09.21.21.21s.21-.09.21-.21v-3.62c0-.12-.09-.21-.21-.21Z"/><path class="cls-31" d="m226.36,72.58c-.11,0-.21.09-.21.21v3.62c0,.12.09.21.21.21s.21-.09.21-.21v-3.62c0-.12-.09-.21-.21-.21Z"/><path class="cls-31" d="m225.35,72.58c-.12,0-.21.09-.21.21v3.62c0,.12.09.21.21.21s.21-.09.21-.21v-3.62c0-.12-.09-.21-.21-.21Z"/><path class="cls-31" d="m224.34,72.58c-.11,0-.21.09-.21.21v3.62c0,.12.09.21.21.21s.21-.09.21-.21v-3.62c0-.12-.09-.21-.21-.21Z"/><path class="cls-31" d="m223.33,72.58c-.12,0-.21.09-.21.21v3.62c0,.12.09.21.21.21s.21-.09.21-.21v-3.62c0-.12-.09-.21-.21-.21Z"/><path class="cls-31" d="m222.32,72.58c-.12,0-.21.09-.21.21v3.62c0,.12.09.21.21.21s.21-.09.21-.21v-3.62c0-.12-.09-.21-.21-.21Z"/><path class="cls-31" d="m221.31,72.58c-.12,0-.21.09-.21.21v3.62c0,.12.09.21.21.21s.21-.09.21-.21v-3.62c0-.12-.09-.21-.21-.21Z"/><path class="cls-31" d="m220.3,72.58c-.12,0-.21.09-.21.21v3.62c0,.12.09.21.21.21s.21-.09.21-.21v-3.62c0-.12-.09-.21-.21-.21Z"/><path class="cls-31" d="m219.29,72.58c-.12,0-.21.09-.21.21v3.62c0,.12.09.21.21.21s.21-.09.21-.21v-3.62c0-.12-.09-.21-.21-.21Z"/><path class="cls-18" d="m210.01,104.11c-5.28,0-9.56,2.18-9.56,4.87s4.28,3.59,9.56,3.59,9.56-.91,9.56-3.59-4.28-4.87-9.56-4.87Z"/><path class="cls-41" d="m209.75,110.91c-4.45,0-8.18-.64-9.25-2.45-.03.17-.05.34-.05.51,0,2.69,4.28,3.59,9.56,3.59s9.56-.91,9.56-3.59c0-.42-.1-.82-.3-1.21-.45,2.35-4.54,3.15-9.52,3.15Z"/><path class="cls-18" d="m224.18,108.75c-4.52,0-8.19,1.87-8.19,4.17s3.67,3.08,8.19,3.08,8.19-.77,8.19-3.08-3.66-4.17-8.19-4.17Z"/><path class="cls-41" d="m223.9,114.15c-3.65,0-6.73-.5-7.79-1.91-.07.22-.11.44-.11.67,0,2.3,3.67,3.08,8.19,3.08s8.19-.77,8.19-3.08c0-.43-.13-.86-.38-1.25-.59,1.84-3.99,2.48-8.1,2.48Z"/></svg>