<?xml version="1.0" encoding="UTF-8"?><svg xmlns="http://www.w3.org/2000/svg" xmlns:xlink="http://www.w3.org/1999/xlink" viewBox="0 0 260 130"><defs><style>.cls-1{clip-path:url(#clippath-11);}.cls-2{opacity:.4;}.cls-2,.cls-3,.cls-4,.cls-5,.cls-6,.cls-7,.cls-8,.cls-9,.cls-10,.cls-11,.cls-12,.cls-13,.cls-14,.cls-15,.cls-16,.cls-17,.cls-18,.cls-19,.cls-20,.cls-21,.cls-22,.cls-23,.cls-24,.cls-25,.cls-26,.cls-27,.cls-28,.cls-29,.cls-30,.cls-31,.cls-32,.cls-33,.cls-34,.cls-35,.cls-36,.cls-37,.cls-38,.cls-39,.cls-40,.cls-41,.cls-42,.cls-43,.cls-44{stroke-width:0px;}.cls-2,.cls-4,.cls-13,.cls-22,.cls-41{fill:#fff;}.cls-3,.cls-8,.cls-28,.cls-41{opacity:.2;}.cls-3,.cls-21{fill:#400000;}.cls-4{mix-blend-mode:screen;opacity:.1;}.cls-5{fill:#9d747c;}.cls-6{fill:#443a45;}.cls-7{fill:#f9c99c;}.cls-8{fill:#1d000e;}.cls-9{fill:#eae5ec;}.cls-10{fill:#888479;}.cls-11{fill:#8bc43f;}.cls-45{clip-path:url(#clippath-2);}.cls-46{isolation:isolate;}.cls-13{opacity:.5;}.cls-47{clip-path:url(#clippath-6);}.cls-14{fill:#f7f2ee;}.cls-15{fill:#efa674;}.cls-16{fill:none;}.cls-48{clip-path:url(#clippath-7);}.cls-17{fill:#9a8692;}.cls-18{fill:#f7f9f8;}.cls-49{clip-path:url(#clippath-1);}.cls-50{clip-path:url(#clippath-4);}.cls-19{fill:#886365;}.cls-20{fill:#f0ecec;}.cls-21{opacity:.15;}.cls-23{fill:#b84024;}.cls-24{fill:#5b794d;}.cls-25{opacity:.3;}.cls-25,.cls-29{fill:#34323f;}.cls-51{clip-path:url(#clippath-9);}.cls-52{clip-path:url(#clippath);}.cls-26,.cls-28{fill:#f69021;}.cls-27{fill:#9f9c95;}.cls-53{clip-path:url(#clippath-3);}.cls-30{fill:#726d68;}.cls-31{fill:#e2d8d8;}.cls-54{clip-path:url(#clippath-8);}.cls-32{fill:#e0bdf1;}.cls-33{fill:#ffd3a6;}.cls-34{fill:#728b4d;}.cls-35{fill:#cec9c5;}.cls-36{fill:#ffe0ff;}.cls-37{fill:#fff172;}.cls-55{clip-path:url(#clippath-5);}.cls-38{fill:#fff600;}.cls-39{fill:#d79c21;}.cls-40{fill:#c06521;}.cls-56{clip-path:url(#clippath-10);}.cls-42{fill:#f9dbb5;}.cls-43{fill:#fff1bd;}.cls-44{fill:#806167;}</style><clipPath id="clippath"><path class="cls-16" d="m216.22,55.64c1.13-1.19,2.91-2.94,4.59-4.1,2.75-1.9,10.29-4.47,10.29-4.47,0,0-5.09-1.54-9.41-.58-.22-1.28-4.37-2.36-6.13-2.76v-.28c1.8-.27,6.15-1.02,6.15-1.89,0-.58-1.87-1.64-3.67-2.53.44-.38.9-.75,1.35-1.06,2.09-1.44,7.8-3.39,7.8-3.39,0,0-6.48-1.98-9.78.77-.93.78-1.52,1.65-1.9,2.51-.44-.2-.73-.32-.73-.32,0,0-.21.09-.53.23-.38-.83-.96-1.67-1.86-2.42-3.3-2.74-9.78-.77-9.78-.77,0,0,5.71,1.95,7.8,3.39.42.29.84.63,1.26.99-1.85.91-3.83,2.02-3.83,2.61,0,.92,4.79,1.69,6.4,1.93v.19c-1.55.34-6.02,1.44-6.36,2.76-4.27-.85-9.18.64-9.18.64,0,0,7.53,2.57,10.28,4.47,1.67,1.15,3.42,2.88,4.55,4.06-2.52.5-8.06,1.77-8.06,3.26,0,1.65,6.81,5.63,8.76,6.73v6.5c0,.36.29.65.65.65s.65-.29.65-.65v-6.64c2.23-1.27,8.52-5.01,8.52-6.59,0-1.45-5.24-2.69-7.85-3.22Z"/></clipPath><clipPath id="clippath-1"><path class="cls-16" d="m116.43,80.15c3.17-1.51,5.07-3.63,5.07-6.54,0-4.02-3.58-7.62-9.2-10.01,3.49-1.31,5.63-3.29,5.63-6.17,0-3.78-3.67-7.11-9.29-9.15,1.91-1.29,3.05-3.11,3.05-5.58,0-6.21-7.09-11.24-15.84-11.24s-15.85,5.03-15.85,11.24c0,2.47,1.14,4.29,3.05,5.58-5.62,2.04-9.29,5.37-9.29,9.15,0,2.87,2.14,4.86,5.63,6.17-5.62,2.4-9.2,5.99-9.2,10.01,0,2.91,1.9,5.04,5.07,6.54-5.85,2.8-9.51,6.77-9.51,11.17,0,8.46,13.47,11.31,30.1,11.31s30.1-2.85,30.1-11.31c0-4.41-3.66-8.38-9.51-11.17Z"/></clipPath><clipPath id="clippath-2"><path class="cls-16" d="m181.92,44.46c-3.06-2.3-13.56-5.47-14.54-5.69-.98-.22-2.62,1.53-3.72.66-1.09-.88-9.62,2.08-14.44,4.7-4.81,2.62-7.65,9.29-7.87,10.06-.22.77-1.86,1.42-1.86,4.48v.23c.55,2.63,2.19,5.35,4.7,11.15,2.52,5.8,14.33,8.75,16.4,8.97,2.08.22,15.31-.55,21.98-2.73,6.67-2.19,8.86-9.84,9.52-14.43.66-4.59-7.11-15.09-10.17-17.39Z"/></clipPath><clipPath id="clippath-3"><path class="cls-16" d="m205.83,69.74c.93-.98,2.41-2.43,3.8-3.39,2.28-1.58,8.51-3.7,8.51-3.7,0,0-4.21-1.28-7.79-.48-.18-1.06-3.62-1.95-5.07-2.28v-.23c1.49-.22,5.09-.84,5.09-1.57,0-.48-1.55-1.36-3.04-2.1.36-.32.74-.62,1.11-.88,1.73-1.19,6.46-2.81,6.46-2.81,0,0-5.36-1.64-8.09.64-.77.64-1.26,1.37-1.57,2.07-.37-.16-.6-.26-.6-.26,0,0-.17.07-.44.19-.31-.68-.79-1.38-1.54-2-2.73-2.27-8.09-.64-8.09-.64,0,0,4.72,1.61,6.45,2.81.35.24.7.52,1.04.82-1.53.75-3.17,1.67-3.17,2.16,0,.76,3.96,1.4,5.3,1.6v.15c-1.28.28-4.98,1.19-5.26,2.29-3.53-.71-7.6.53-7.6.53,0,0,6.23,2.12,8.51,3.7,1.38.95,2.83,2.38,3.77,3.36-2.09.42-6.67,1.47-6.67,2.7,0,1.37,5.64,4.66,7.25,5.57v5.38c0,.3.24.54.54.54s.54-.24.54-.54v-5.5c1.84-1.05,7.05-4.14,7.05-5.46,0-1.2-4.34-2.23-6.5-2.67Z"/></clipPath><clipPath id="clippath-4"><path class="cls-16" d="m236.15,72.33h-50.6s-.95,6.55,0,12.44c.94,5.79,2.8,12.46,9.32,16.05h-.11c-1.51,0-2.74,1.41-2.74,3.14v3.12c0,1.74,1.23,3.71,2.74,3.71h31.72c1.51,0,2.74-1.98,2.74-3.71v-3.12c0-1.62-1.07-2.94-2.45-3.11,6.56-3.58,8.44-10.27,9.37-16.08.95-5.9,0-12.44,0-12.44Z"/></clipPath><clipPath id="clippath-5"><path class="cls-16" d="m242.92,109.21s-7.38-4.62-10.17-4.62c-.98,0-1.89.57-2.66,1.31.1-.27.16-.54.16-.83,0-2.29-3.78-8.33-3.78-8.33,0,0-3.78,6.04-3.78,8.33,0,.28.06.56.16.83-.77-.74-1.68-1.31-2.66-1.31-2.79,0-10.17,4.62-10.17,4.62,0,0,7.38,4.62,10.17,4.62.98,0,1.89-.57,2.66-1.3-.1.27-.16.54-.16.83,0,2.29,3.78,8.33,3.78,8.33,0,0,3.78-6.04,3.78-8.33,0-.28-.06-.56-.16-.83.77.74,1.68,1.31,2.66,1.31,2.79,0,10.17-4.62,10.17-4.62Zm-18.43,1.28c.47-.72.75-1.28.75-1.28,0,0-.28-.56-.75-1.28.97.79,1.97,1.28,1.97,1.28,0,0,1-.49,1.97-1.28-.47.72-.75,1.28-.75,1.28,0,0,.27.56.75,1.28-.97-.79-1.97-1.28-1.97-1.28,0,0-1,.49-1.97,1.28Z"/></clipPath><clipPath id="clippath-6"><path class="cls-16" d="m124.72,83.76c.84-1.57,2.2-3.93,3.63-5.64,2.34-2.8,9.5-7.67,9.5-7.67,0,0-5.79-.15-10.05,2.11-.6-1.28-5.27-1.21-7.23-1.12l-.08-.29c1.81-.81,6.17-2.85,5.91-3.77-.17-.6-2.44-1.18-4.59-1.59.35-.53.72-1.05,1.11-1.51,1.78-2.12,7.21-5.82,7.21-5.82,0,0-7.38-.2-10.04,3.64-.75,1.09-1.12,2.18-1.26,3.18-.53-.08-.86-.12-.86-.12,0,0-.19.15-.49.39-.63-.76-1.49-1.47-2.65-2-4.25-1.93-10.49,2.02-10.49,2.02,0,0,6.56.39,9.17,1.3.53.18,1.07.42,1.61.67-1.68,1.49-3.44,3.23-3.26,3.85.27.97,5.52.39,7.28.17l.05.2c-1.52.81-5.9,3.25-5.88,4.74-4.73.34-9.45,3.33-9.45,3.33,0,0,8.65.52,12.09,1.72,2.08.73,4.42,2.03,5.95,2.95-2.5,1.26-7.95,4.19-7.51,5.76.48,1.73,8.78,3.94,11.15,4.53l1.88,6.82c.1.38.5.6.88.5.38-.11.6-.5.5-.88l-1.92-6.97c1.97-1.98,7.49-7.72,7.03-9.39-.42-1.52-6.28-1.31-9.18-1.11Z"/></clipPath><clipPath id="clippath-7"><path class="cls-16" d="m173.58,94.88c-1.71-7.63-6.86-15.11-14.19-20.31-.2-.14-.42-.26-.63-.38.38-.31.63-.78.63-1.3,0-.47-.2-.9-.51-1.21,7.08-2.49,11.88-7.13,11.88-11.75h-46.18c0,4.63,4.8,9.26,11.88,11.75-.31.31-.51.73-.51,1.21,0,.67.4,1.25.97,1.52-.45.26-.88.55-1.29.87-6.43,4.96-11.38,11.97-12.83,19.6-2.1,11.07-1.19,17.73,25.52,17.73s27.73-6.74,25.27-17.73Z"/></clipPath><clipPath id="clippath-8"><path class="cls-16" d="m176.02,91.54h2.09v-8.39h-10.99v8.39h2.08c-2.02,0-3.66,1.02-3.66,2.27v18.2c0,1.25,1.64,2.27,3.66,2.27h6.82c2.02,0,3.66-1.01,3.66-2.27v-18.2c0-1.25-1.64-2.27-3.66-2.27Z"/></clipPath><clipPath id="clippath-9"><path class="cls-16" d="m193.04,93.12h-.16v-1.57h1.1v-6.18h-1.1c0-.44-.35-.79-.78-.81v-4.42c0-.62-.77-1.13-1.72-1.13s-1.73.5-1.73,1.13v4.42c-.43.02-.78.37-.78.81h-1.1v6.18h1.1v1.57h-.16c-1.58,0-2.86.96-2.86,2.14v17.18c0,1.18,1.28,2.14,2.86,2.14h5.33c1.58,0,2.86-.96,2.86-2.14v-17.18c0-1.18-1.28-2.14-2.86-2.14Z"/></clipPath><clipPath id="clippath-10"><path class="cls-16" d="m59.2,77c.43-.3.85-.63,1.23-1,1.52-1.5,3.34-4.41,3.34-9.7,0-5.73-3.52-9.8-9.44-10.89-2.02-.37-23.47.04-24.86.31-4.33.83-6.92,3.97-6.92,8.42,0,2.13.56,3.82,1.36,5.12-.78.2-1.36.91-1.36,1.75v5.85c0,.09.01.18.03.27-4.09,1.51-6.47,5.02-6.47,9.73,0,3.03.91,5.32,2.14,7h-.33c-1,0-1.81.81-1.81,1.81v7.49c0,.48.19.95.54,1.29.34.34.8.53,1.28.53h0c.37,0,36.91-.3,38.56-.26,2.63,0,5.29-1.06,7.26-3,1.88-1.86,4.12-5.46,4.12-12.06,0-6.05-3.19-10.59-8.67-12.62Z"/></clipPath><clipPath id="clippath-11"><path class="cls-16" d="m99.56,72.25c-1.15-.59-2-1.19-2.8-2.23-.58-.76-.83-3-.83-3v-3.4h.83v-1.04h.71v-6.71h-13.1v6.71h.7v1.04h.84v3.26s-.51,2.58-1.11,3.37c-.99,1.31-1.98,1.66-3.37,2.47-5.59,3.26-9.36,9.32-9.36,16.26,0,10.41,8.44,18.84,18.84,18.84s18.84-8.43,18.84-18.84c0-7.29-4.14-13.6-10.2-16.73Z"/></clipPath></defs><g class="cls-46"><g id="Background"><path class="cls-11" d="m199.75,67.1c.01.23-.17.44-.41.46h0c-.24.01-.44-.17-.46-.4l-2.82-46.5c-.01-.24.17-.44.4-.46h0c.24-.01.44.17.46.4l2.82,46.51Z"/><path class="cls-11" d="m200.24,27.56c1.89-1.55,3.53-2.67,3.67-2.5.14.17-1.28,1.56-3.17,3.11-1.89,1.55-3.53,2.67-3.67,2.5-.14-.17,1.28-1.56,3.17-3.11Z"/><path class="cls-11" d="m199.53,29.5c1.4-.37,2.58-.5,2.63-.29.06.21-1.03.68-2.43,1.05-1.39.37-2.57.5-2.63.29-.06-.21,1.03-.68,2.43-1.05Z"/><path class="cls-34" d="m193.62,27.96c-2.06-1.31-3.83-2.22-3.94-2.04-.12.18,1.46,1.4,3.52,2.71,2.06,1.31,3.83,2.22,3.94,2.04.12-.18-1.46-1.4-3.52-2.71Z"/><path class="cls-34" d="m194.55,29.81c-1.43-.2-2.62-.19-2.64.03-.03.22,1.1.55,2.53.75,1.43.2,2.62.19,2.65-.03.03-.22-1.11-.55-2.54-.75Z"/><path class="cls-11" d="m200.51,33.45c1.89-1.55,3.53-2.67,3.67-2.5.14.17-1.28,1.56-3.17,3.11-1.89,1.55-3.53,2.67-3.67,2.5-.14-.17,1.28-1.56,3.17-3.11Z"/><path class="cls-11" d="m199.81,35.39c1.39-.37,2.57-.5,2.63-.29.05.21-1.03.68-2.43,1.06-1.39.37-2.57.5-2.63.29-.06-.21,1.03-.68,2.43-1.05Z"/><path class="cls-11" d="m198.23,33.74c.53-1.35,1.12-2.37,1.32-2.29.2.08-.06,1.23-.58,2.58-.53,1.35-1.12,2.37-1.32,2.29-.2-.08.06-1.23.58-2.58Z"/><path class="cls-11" d="m198.91,44.97c.53-1.35,1.12-2.37,1.32-2.29.2.08-.06,1.24-.58,2.58-.52,1.35-1.12,2.37-1.32,2.29-.2-.08.06-1.24.58-2.58Z"/><path class="cls-11" d="m196.69,39.13c-.68-1.27-1.4-2.22-1.59-2.12-.2.1.2,1.22.89,2.49.68,1.27,1.4,2.22,1.59,2.12.19-.1-.21-1.22-.89-2.49Z"/><path class="cls-11" d="m196.31,29c-.47-.87-.95-1.51-1.08-1.44-.13.07.14.83.61,1.7.47.87.95,1.51,1.08,1.44.13-.07-.14-.83-.61-1.7Z"/><path class="cls-34" d="m193.9,33.85c-2.06-1.31-3.83-2.22-3.95-2.04-.12.18,1.46,1.4,3.52,2.71,2.06,1.31,3.83,2.22,3.95,2.04.11-.18-1.46-1.4-3.52-2.7Z"/><path class="cls-34" d="m194.82,35.7c-1.43-.2-2.61-.19-2.64.03-.03.22,1.1.55,2.54.75,1.43.2,2.62.19,2.64-.03.03-.22-1.1-.55-2.54-.75Z"/><path class="cls-11" d="m200.81,38.95c1.89-1.55,3.53-2.67,3.67-2.5.14.17-1.28,1.56-3.17,3.11-1.89,1.55-3.53,2.67-3.67,2.5-.14-.17,1.28-1.56,3.17-3.11Z"/><path class="cls-11" d="m200.1,40.9c1.4-.37,2.57-.5,2.63-.29.05.21-1.03.68-2.43,1.05-1.4.37-2.58.5-2.63.29-.05-.21,1.03-.68,2.43-1.05Z"/><path class="cls-34" d="m194.19,39.36c-2.06-1.31-3.82-2.22-3.94-2.04-.12.18,1.46,1.39,3.52,2.71,2.06,1.31,3.83,2.22,3.95,2.04.12-.18-1.46-1.39-3.52-2.71Z"/><path class="cls-34" d="m195.12,41.2c-1.43-.2-2.61-.19-2.65.03-.03.22,1.1.55,2.54.75,1.43.2,2.62.19,2.64-.03.03-.22-1.1-.55-2.53-.75Z"/><path class="cls-11" d="m201.27,44.68c1.89-1.55,3.53-2.67,3.67-2.5.14.17-1.28,1.56-3.17,3.11-1.89,1.55-3.53,2.67-3.67,2.5-.14-.17,1.28-1.56,3.17-3.11Z"/><path class="cls-11" d="m200.56,46.62c1.4-.37,2.58-.5,2.63-.29.05.21-1.03.68-2.43,1.06-1.4.37-2.58.5-2.63.29-.06-.21,1.03-.68,2.43-1.06Z"/><path class="cls-34" d="m194.65,45.08c-2.06-1.31-3.83-2.22-3.94-2.04-.12.18,1.46,1.4,3.52,2.7,2.06,1.31,3.83,2.22,3.95,2.04.12-.19-1.46-1.4-3.52-2.71Z"/><path class="cls-34" d="m195.58,46.92c-1.43-.2-2.62-.19-2.65.03-.03.22,1.11.55,2.54.75,1.43.2,2.62.19,2.65-.03.03-.22-1.11-.55-2.54-.75Z"/><path class="cls-11" d="m201.51,49.9c1.89-1.55,3.53-2.67,3.67-2.5.14.17-1.28,1.56-3.17,3.11-1.89,1.55-3.53,2.67-3.67,2.5-.14-.17,1.28-1.56,3.17-3.11Z"/><path class="cls-11" d="m200.81,51.84c1.4-.37,2.57-.5,2.63-.29.06.21-1.03.68-2.43,1.06-1.4.37-2.57.5-2.63.29-.06-.21,1.03-.68,2.43-1.05Z"/><path class="cls-34" d="m194.89,50.3c-2.06-1.31-3.83-2.22-3.95-2.04-.12.18,1.46,1.4,3.52,2.71,2.06,1.31,3.83,2.22,3.94,2.04.12-.18-1.46-1.39-3.52-2.7Z"/><path class="cls-34" d="m195.82,52.14c-1.43-.2-2.62-.19-2.65.03-.03.22,1.1.55,2.54.76,1.43.2,2.62.19,2.64-.03.03-.22-1.1-.55-2.54-.75Z"/><path class="cls-11" d="m201.81,56.14c1.89-1.55,3.53-2.67,3.67-2.5.14.17-1.28,1.56-3.17,3.11-1.89,1.55-3.53,2.67-3.67,2.5-.14-.17,1.28-1.56,3.17-3.11Z"/><path class="cls-11" d="m201.1,58.09c1.4-.37,2.58-.5,2.63-.29.06.21-1.03.68-2.42,1.06-1.4.37-2.58.5-2.63.29-.05-.21,1.03-.68,2.43-1.06Z"/><path class="cls-34" d="m195.19,56.54c-2.06-1.31-3.83-2.22-3.94-2.04-.12.18,1.46,1.4,3.52,2.71,2.06,1.31,3.82,2.22,3.94,2.04.12-.19-1.46-1.4-3.52-2.71Z"/><path class="cls-34" d="m196.12,58.39c-1.43-.2-2.62-.19-2.65.03-.03.22,1.11.55,2.54.75,1.43.2,2.62.19,2.65-.03.03-.22-1.11-.55-2.54-.75Z"/><path class="cls-11" d="m195.86,16.09c-.16-2.68-.12-4.86.1-4.87.21-.01.52,2.14.69,4.82.16,2.68.12,4.86-.1,4.87-.22.01-.53-2.14-.69-4.82Z"/><path class="cls-11" d="m197.21,16.69c.51-2.39,1.09-4.29,1.31-4.24.21.04-.02,2.02-.53,4.41-.51,2.39-1.1,4.29-1.31,4.24-.21-.05.03-2.02.53-4.41Z"/><path class="cls-11" d="m199.9,22.04c1.89-1.55,3.53-2.67,3.67-2.5.14.17-1.28,1.56-3.17,3.11-1.89,1.55-3.53,2.67-3.67,2.5-.14-.17,1.28-1.56,3.17-3.11Z"/><path class="cls-11" d="m199.19,23.99c1.4-.37,2.57-.5,2.63-.29.06.21-1.03.68-2.43,1.06-1.39.37-2.57.5-2.63.29-.06-.21,1.03-.68,2.43-1.05Z"/><path class="cls-34" d="m194.96,19.12c1.06.98,1.8,1.91,1.65,2.07-.15.16-1.13-.51-2.19-1.49-1.06-.98-1.8-1.91-1.65-2.07.15-.16,1.13.51,2.19,1.49Z"/><path class="cls-34" d="m193.28,22.44c-2.06-1.31-3.83-2.22-3.94-2.04-.12.18,1.46,1.39,3.52,2.71,2.06,1.31,3.83,2.22,3.95,2.04.11-.18-1.46-1.39-3.52-2.7Z"/><path class="cls-34" d="m194.21,24.29c-1.43-.2-2.62-.19-2.65.03-.03.22,1.11.55,2.54.75,1.43.2,2.62.19,2.64-.03.03-.22-1.1-.55-2.53-.75Z"/><path class="cls-11" d="m197.57,22.34c.53-1.34,1.12-2.37,1.32-2.29.2.08-.06,1.23-.59,2.58-.52,1.35-1.12,2.37-1.32,2.29-.2-.08.06-1.23.58-2.58Z"/><path class="cls-11" d="m229.06,71.81c.01.18-.13.34-.31.35h0c-.18.01-.34-.13-.35-.31l-2.16-35.53c0-.18.13-.34.31-.35h0c.18-.01.34.13.35.31l2.15,35.53Z"/><path class="cls-11" d="m229.44,41.61c1.44-1.18,2.7-2.04,2.8-1.91.11.13-.98,1.19-2.42,2.38-1.44,1.18-2.7,2.04-2.8,1.91-.11-.13.97-1.19,2.42-2.38Z"/><path class="cls-11" d="m228.9,43.1c1.07-.28,1.97-.38,2.01-.22.04.16-.79.52-1.85.81-1.06.29-1.96.38-2.01.22-.04-.16.79-.52,1.85-.81Z"/><path class="cls-34" d="m224.38,41.92c-1.57-1-2.92-1.7-3.01-1.56-.09.14,1.11,1.07,2.69,2.07,1.57,1,2.92,1.7,3.01,1.56.09-.14-1.12-1.07-2.69-2.07Z"/><path class="cls-34" d="m225.09,43.33c-1.09-.15-2-.14-2.02.02-.02.16.84.42,1.94.57,1.09.15,2,.14,2.02-.02.02-.17-.85-.42-1.94-.58Z"/><path class="cls-11" d="m229.65,46.11c1.44-1.18,2.7-2.04,2.8-1.91.1.13-.98,1.19-2.42,2.38-1.44,1.18-2.7,2.04-2.8,1.91-.11-.13.98-1.19,2.42-2.38Z"/><path class="cls-11" d="m229.11,47.59c1.07-.28,1.96-.38,2.01-.22.04.16-.79.52-1.85.81-1.07.28-1.97.38-2.01.22-.04-.16.79-.52,1.85-.81Z"/><path class="cls-11" d="m227.9,46.33c.4-1.03.85-1.81,1.01-1.75.15.06-.05.94-.45,1.97s-.85,1.81-1.01,1.75c-.16-.06.04-.94.44-1.97Z"/><path class="cls-11" d="m228.43,54.91c.4-1.03.85-1.81,1.01-1.75.15.06-.04.94-.45,1.97-.4,1.03-.85,1.81-1.01,1.75-.16-.06.04-.94.45-1.97Z"/><path class="cls-11" d="m226.73,50.45c-.52-.97-1.07-1.7-1.21-1.62-.15.08.16.93.68,1.9.52.97,1.07,1.7,1.21,1.62.15-.08-.16-.93-.68-1.9Z"/><path class="cls-11" d="m226.44,42.71c-.36-.66-.73-1.16-.83-1.1-.1.05.11.64.46,1.3.36.66.72,1.16.83,1.1.1-.05-.11-.63-.46-1.3Z"/><path class="cls-34" d="m224.59,46.42c-1.58-1-2.92-1.7-3.01-1.56-.09.14,1.12,1.07,2.69,2.07,1.57,1,2.93,1.7,3.01,1.56.09-.14-1.12-1.07-2.69-2.07Z"/><path class="cls-34" d="m225.3,47.83c-1.09-.15-2-.14-2.02.02-.02.16.84.42,1.94.57,1.09.15,2,.14,2.02-.02.02-.17-.84-.42-1.94-.58Z"/><path class="cls-11" d="m229.87,50.32c1.44-1.18,2.7-2.04,2.8-1.91.11.13-.98,1.19-2.42,2.38-1.44,1.18-2.7,2.04-2.8,1.91-.1-.13.98-1.19,2.42-2.38Z"/><path class="cls-11" d="m229.34,51.8c1.07-.29,1.97-.38,2.01-.22.04.16-.79.52-1.85.81-1.07.28-1.97.38-2.01.22-.04-.16.79-.52,1.86-.81Z"/><path class="cls-34" d="m224.82,50.62c-1.58-1-2.92-1.7-3.01-1.56-.09.14,1.11,1.07,2.69,2.07,1.58,1,2.92,1.7,3.01,1.56.09-.14-1.12-1.07-2.69-2.07Z"/><path class="cls-34" d="m225.53,52.03c-1.09-.15-2-.14-2.02.02-.02.17.84.42,1.94.58,1.09.15,2,.14,2.02-.02.02-.17-.84-.42-1.94-.57Z"/><path class="cls-11" d="m230.23,54.68c1.44-1.18,2.7-2.04,2.8-1.91.1.13-.98,1.19-2.42,2.38-1.44,1.18-2.7,2.04-2.8,1.91-.11-.13.98-1.19,2.42-2.38Z"/><path class="cls-11" d="m229.69,56.17c1.07-.28,1.97-.38,2.01-.22.04.16-.79.52-1.85.81-1.07.28-1.97.38-2.01.22-.05-.16.79-.52,1.85-.81Z"/><path class="cls-34" d="m225.17,54.99c-1.57-1-2.92-1.7-3.01-1.56-.09.14,1.11,1.07,2.69,2.07,1.57,1,2.92,1.7,3.01,1.56.09-.14-1.12-1.07-2.69-2.07Z"/><path class="cls-34" d="m225.88,56.4c-1.09-.15-2-.14-2.02.02-.02.16.84.42,1.94.58,1.09.15,2,.14,2.02-.02.02-.17-.84-.42-1.94-.58Z"/><path class="cls-11" d="m230.41,58.67c1.44-1.18,2.7-2.04,2.81-1.91.1.13-.98,1.19-2.42,2.38-1.44,1.18-2.7,2.04-2.8,1.91-.11-.13.98-1.19,2.42-2.38Z"/><path class="cls-11" d="m229.88,60.16c1.06-.28,1.96-.38,2.01-.22.04.16-.79.52-1.85.81-1.07.28-1.96.38-2.01.22-.04-.16.79-.52,1.85-.8Z"/><path class="cls-34" d="m225.36,58.98c-1.57-1-2.92-1.7-3.01-1.56-.09.14,1.12,1.07,2.69,2.07,1.57,1,2.92,1.7,3.01,1.56.09-.14-1.11-1.07-2.69-2.07Z"/><path class="cls-34" d="m226.07,60.39c-1.09-.15-2-.14-2.02.02-.02.16.84.42,1.94.58,1.09.15,2,.14,2.02-.02.02-.16-.84-.42-1.94-.58Z"/><path class="cls-11" d="m230.64,63.45c1.44-1.18,2.7-2.04,2.81-1.91.11.13-.98,1.19-2.42,2.38-1.44,1.18-2.7,2.04-2.8,1.91-.11-.13.98-1.19,2.42-2.38Z"/><path class="cls-11" d="m230.1,64.93c1.07-.29,1.97-.38,2.01-.22.04.16-.79.52-1.85.81-1.07.28-1.97.38-2.01.22-.04-.16.79-.52,1.85-.81Z"/><path class="cls-34" d="m225.58,63.75c-1.58-1-2.92-1.7-3.01-1.56-.09.14,1.12,1.07,2.69,2.07,1.58,1,2.92,1.7,3.01,1.56.09-.14-1.11-1.07-2.69-2.07Z"/><path class="cls-34" d="m226.29,65.16c-1.09-.15-2-.14-2.02.02-.02.16.85.42,1.94.58,1.09.15,2,.14,2.02-.02.02-.17-.84-.42-1.94-.58Z"/><path class="cls-11" d="m226.09,32.85c-.12-2.04-.09-3.71.08-3.72.16-.01.4,1.64.52,3.68.12,2.04.09,3.71-.08,3.72-.17,0-.4-1.64-.53-3.68Z"/><path class="cls-11" d="m227.12,33.31c.39-1.82.83-3.28,1-3.24.17.03-.02,1.54-.41,3.37-.39,1.82-.84,3.28-1,3.24-.16-.04.02-1.54.41-3.37Z"/><path class="cls-11" d="m229.18,37.39c1.44-1.18,2.7-2.04,2.8-1.91.11.13-.98,1.19-2.42,2.38-1.44,1.18-2.7,2.04-2.8,1.91-.11-.13.98-1.19,2.42-2.38Z"/><path class="cls-11" d="m228.64,38.88c1.07-.28,1.97-.38,2.01-.22.04.16-.79.52-1.85.81-1.06.28-1.97.38-2.01.22-.04-.16.79-.52,1.86-.81Z"/><path class="cls-34" d="m225.41,35.16c.81.75,1.37,1.46,1.26,1.58-.12.12-.86-.39-1.67-1.14-.81-.75-1.37-1.46-1.26-1.58.11-.12.86.39,1.67,1.14Z"/><path class="cls-34" d="m224.12,37.7c-1.57-1-2.92-1.7-3.01-1.56-.09.14,1.12,1.07,2.69,2.07,1.57,1,2.92,1.7,3.01,1.56.09-.14-1.11-1.06-2.69-2.07Z"/><path class="cls-34" d="m224.83,39.11c-1.09-.15-2-.14-2.02.02-.02.17.85.42,1.94.58,1.09.15,2,.14,2.02-.02.02-.17-.84-.42-1.94-.58Z"/><path class="cls-11" d="m227.4,37.62c.4-1.03.85-1.81,1.01-1.75.16.06-.04.94-.45,1.97-.4,1.03-.85,1.81-1.01,1.75-.16-.06.04-.94.45-1.97Z"/><path class="cls-24" d="m221.7,41.55c0-1.11-6.93-4.03-6.93-4.03,0,0-6.93,2.92-6.93,4.03s6.93,2,6.93,2c0,0,6.93-.9,6.93-2Z"/><path class="cls-11" d="m215.01,42.03s-.9-3.96,2.39-6.7c3.3-2.74,9.78-.77,9.78-.77,0,0-5.71,1.95-7.8,3.39-2.09,1.44-4.37,4.08-4.37,4.08Z"/><path class="cls-11" d="m214.78,42.03s.9-3.96-2.39-6.7c-3.3-2.74-9.78-.77-9.78-.77,0,0,5.71,1.95,7.8,3.39,2.08,1.44,4.37,4.08,4.37,4.08Z"/><path class="cls-24" d="m215.05,56.91s-1.19-5.21,3.16-8.83c4.35-3.62,12.89-1.01,12.89-1.01,0,0-7.53,2.57-10.29,4.47-2.75,1.9-5.76,5.38-5.76,5.38Z"/><path class="cls-24" d="m214.75,56.91s1.19-5.21-3.15-8.83c-4.34-3.62-12.89-1.01-12.89-1.01,0,0,7.53,2.57,10.28,4.47,2.75,1.9,5.76,5.38,5.76,5.38Z"/><path class="cls-34" d="m215.55,72.09c0,.36-.29.65-.65.65h0c-.36,0-.65-.29-.65-.65v-30.36c0-.36.29-.65.65-.65h0c.36,0,.65.29.65.65v30.36Z"/><path class="cls-11" d="m221.7,46.58c0,1.67-6.93,6.1-6.93,6.1,0,0-6.93-4.43-6.93-6.1s6.93-3.03,6.93-3.03c0,0,6.93,1.36,6.93,3.03Z"/><path class="cls-11" d="m224.07,58.86c0,1.93-9.29,7.03-9.29,7.03,0,0-9.29-5.1-9.29-7.03s9.29-3.49,9.29-3.49c0,0,9.29,1.57,9.29,3.49Z"/><g class="cls-52"><rect class="cls-3" x="197.74" y="33.44" width="17.16" height="49.7"/></g><polygon class="cls-32" points="110.02 92.9 116.84 92.9 116.84 20.53 121.4 5.63 110.02 20.53 110.02 92.9"/><polygon class="cls-36" points="116.84 20.53 116.84 92.9 125.95 92.9 125.95 20.53 121.4 5.63 116.84 20.53"/><polygon class="cls-22" points="125.95 20.53 125.95 92.9 132.77 92.9 132.77 20.53 121.4 5.63 125.95 20.53"/><path class="cls-17" d="m95.85,76c-16.63,0-30.1,6.86-30.1,15.32s13.47,11.31,30.1,11.31,30.1-2.85,30.1-11.31-13.47-15.32-30.1-15.32Z"/><path class="cls-44" d="m95.04,97.42c-14,0-25.76-2.02-29.13-7.71-.11.53-.16,1.06-.16,1.6,0,8.46,13.47,11.31,30.1,11.31s30.1-2.85,30.1-11.31c0-1.32-.33-2.59-.94-3.81-1.42,7.38-14.29,9.92-29.96,9.92Z"/><path class="cls-17" d="m95.85,60.54c-14.17,0-25.66,5.85-25.66,13.06s11.48,9.64,25.66,9.64,25.65-2.43,25.65-9.64-11.48-13.06-25.65-13.06Z"/><path class="cls-44" d="m95.16,78.81c-11.93,0-21.96-1.72-24.83-6.57-.09.45-.14.91-.14,1.37,0,7.21,11.48,9.64,25.66,9.64s25.65-2.43,25.65-9.64c0-1.12-.28-2.21-.8-3.25-1.21,6.29-12.18,8.45-25.54,8.45Z"/><path class="cls-17" d="m95.85,46.18c-12.2,0-22.08,5.03-22.08,11.24s9.89,8.3,22.08,8.3,22.08-2.09,22.08-8.3-9.88-11.24-22.08-11.24Z"/><path class="cls-44" d="m95.25,61.9c-10.27,0-18.9-1.48-21.37-5.66-.08.39-.12.78-.12,1.18,0,6.21,9.89,8.3,22.08,8.3s22.08-2.09,22.08-8.3c0-.97-.24-1.9-.69-2.8-1.04,5.42-10.48,7.28-21.99,7.28Z"/><path class="cls-17" d="m95.85,31.45c-8.75,0-15.85,5.03-15.85,11.24s7.1,8.3,15.85,8.3,15.84-2.09,15.84-8.3-7.09-11.24-15.84-11.24Z"/><path class="cls-44" d="m95.42,47.17c-7.37,0-13.56-1.48-15.34-5.66-.06.39-.09.78-.09,1.18,0,6.21,7.1,8.3,15.85,8.3s15.84-2.09,15.84-8.3c0-.96-.17-1.9-.49-2.8-.75,5.42-7.52,7.28-15.78,7.28Z"/><path class="cls-41" d="m102.35,34.32c-3.07-.61-5.93.76-6.4,3.07-.46,2.31,1.66,4.68,4.73,5.29,3.07.61,5.94-.76,6.4-3.08.46-2.31-1.66-4.68-4.73-5.29Z"/><path class="cls-41" d="m108.97,51.09c-3.07-.61-5.88.46-6.27,2.41-.39,1.94,1.79,4.01,4.86,4.63,3.07.61,5.87-.47,6.26-2.41.39-1.94-1.79-4.01-4.86-4.62Z"/><path class="cls-41" d="m112.53,66.17c-3.07-.61-5.88.48-6.27,2.43-.39,1.96,1.79,4.04,4.86,4.65,3.07.61,5.88-.48,6.27-2.43.39-1.96-1.78-4.04-4.86-4.65Z"/><g class="cls-49"><rect class="cls-3" x="60.65" y="23.83" width="35.24" height="80.86"/></g><path class="cls-6" d="m181.92,44.46c-3.06-2.3-13.56-5.47-14.54-5.69-.98-.22-2.62,1.53-3.72.66-1.09-.88-9.62,2.08-14.44,4.7-4.81,2.62-7.65,9.29-7.87,10.06-.22.77-1.86,1.42-1.86,4.48v.23c.55,2.63,2.19,5.35,4.7,11.15,2.52,5.8,14.33,8.75,16.4,8.97,2.08.22,15.31-.55,21.98-2.73,6.67-2.19,8.86-9.84,9.52-14.43.66-4.59-7.11-15.09-10.17-17.39Z"/><path class="cls-23" d="m180.7,45.78c-2.83-2.12-12.53-5.05-13.44-5.26-.91-.2-2.43,1.42-3.44.61-1.01-.81-8.89,1.92-13.34,4.35-4.45,2.43-7.07,8.59-7.28,9.3-.2.71-1.72,1.31-1.72,4.14v.21c.5,2.43,2.02,4.94,4.35,10.3,2.32,5.36,13.24,8.08,15.16,8.29,1.92.2,14.14-.51,20.31-2.53,6.16-2.02,8.19-9.09,8.79-13.34.61-4.25-6.57-13.94-9.4-16.07Z"/><path class="cls-15" d="m177.77,49.46c-2.07-1.55-9.15-3.69-9.82-3.84-.67-.15-1.77,1.03-2.51.44-.74-.59-6.5,1.4-9.74,3.17-3.25,1.77-5.17,6.28-5.32,6.79-.15.52-1.25.96-1.25,3.03v.15c.37,1.78,1.48,3.61,3.17,7.52,1.7,3.91,9.67,5.91,11.07,6.05,1.4.15,10.33-.37,14.84-1.85,4.5-1.48,5.98-6.64,6.42-9.75.44-3.1-4.8-10.19-6.87-11.74Z"/><path class="cls-5" d="m176.12,54.41c-1.86-1.42-6.67-3.5-9.23-3.5s-4.54.88-5.64,1.31c-1.1.44-3.17.22-3.72.55-.55.33-1.64,2.3-2.19,3.28-.54.98-2.77.72-2.3,2.85.44,1.98,1.31,3.71,3.28,5.35,1.97,1.64,5.8,3.28,7.44,4.38,1.64,1.09,7.54,1.09,8.53.44.98-.66,4.05-1.2,6.02-4.92,1.97-3.72-.33-8.31-2.19-9.73Z"/><path class="cls-18" d="m167.1,56.26c-3.78,0-6.83,2.1-6.83,4.7s3.06,4.7,6.83,4.7,6.84-2.1,6.84-4.7-3.06-4.7-6.84-4.7Z"/><path class="cls-4" d="m169.66,45.94c-3.78,2.96-4.04,8.95-.58,13.38,3.46,4.43,9.34,5.62,13.12,2.66s4.04-8.95.58-13.38c-3.46-4.43-9.34-5.62-13.12-2.66Z"/><path class="cls-4" d="m175.31,47.27c-1.72,1.34-1.84,4.06-.26,6.08,1.57,2.01,4.24,2.55,5.96,1.21,1.72-1.34,1.84-4.07.27-6.08-1.57-2.01-4.24-2.55-5.96-1.21Z"/><g class="cls-45"><rect class="cls-3" x="138.38" y="37.38" width="27.64" height="44.2"/></g><path class="cls-11" d="m186.61,52c-.16.06-.24.24-.18.4l12.01,30.86c.06.16.24.24.4.17.16-.06.24-.24.17-.4l-12.02-30.86c-.06-.16-.24-.24-.4-.17Z"/><path class="cls-11" d="m190.76,56.17c-.94,1.46-1.6,2.71-1.47,2.79.13.08,1-1.03,1.94-2.49.94-1.46,1.6-2.71,1.47-2.79-.13-.09-1,1.03-1.94,2.49Z"/><path class="cls-11" d="m190.71,57.64c-.87.55-1.5,1.11-1.41,1.24.08.13.85-.21,1.72-.77.86-.55,1.5-1.11,1.41-1.24-.08-.13-.85.21-1.72.77Z"/><path class="cls-34" d="m186.37,57.88c-1.68-.44-3.07-.67-3.11-.52-.04.15,1.29.63,2.97,1.07,1.68.44,3.07.67,3.11.52.04-.15-1.29-.63-2.97-1.07Z"/><path class="cls-34" d="m187.4,58.92c-1.01.18-1.81.44-1.78.59.03.15.87.13,1.88-.04,1.01-.17,1.81-.44,1.79-.59-.03-.15-.87-.13-1.88.04Z"/><path class="cls-11" d="m192.23,60.09c-.94,1.46-1.6,2.71-1.47,2.79.13.09,1-1.03,1.94-2.49.94-1.46,1.6-2.71,1.47-2.79s-1,1.03-1.94,2.49Z"/><path class="cls-11" d="m192.18,61.56c-.86.56-1.5,1.11-1.41,1.24.08.13.85-.21,1.72-.77.87-.56,1.5-1.11,1.42-1.24-.08-.13-.86.21-1.72.77Z"/><path class="cls-11" d="m191.14,58.95c-.16,0-.33.81-.4,1.84-.06,1.03.01,1.86.17,1.87.15.01.33-.81.39-1.84.06-1.02-.01-1.86-.16-1.87Z"/><path class="cls-11" d="m194.04,66.4c-.15,0-.33.81-.39,1.84-.06,1.03.01,1.86.17,1.87.15.01.33-.81.39-1.84.06-1.03,0-1.86-.17-1.87Z"/><path class="cls-11" d="m189.34,63.68c-.11.11.4.78,1.14,1.49.74.71,1.43,1.2,1.54,1.09.11-.11-.4-.78-1.15-1.49-.74-.71-1.43-1.2-1.53-1.09Z"/><path class="cls-11" d="m187.37,57.26c-.07.08.28.53.78,1.02.5.49.97.82,1.05.74.07-.08-.28-.53-.78-1.02-.5-.49-.97-.82-1.05-.74Z"/><path class="cls-34" d="m187.84,61.8c-1.68-.44-3.07-.67-3.11-.52-.04.15,1.29.63,2.97,1.07,1.68.44,3.07.67,3.11.52.04-.15-1.29-.63-2.97-1.07Z"/><path class="cls-34" d="m188.87,62.85c-1.01.17-1.81.44-1.78.59.03.15.87.13,1.88-.04,1.01-.18,1.81-.44,1.79-.59-.03-.15-.87-.13-1.88.04Z"/><path class="cls-11" d="m193.63,63.75c-.94,1.46-1.6,2.71-1.47,2.8.13.08,1-1.03,1.94-2.49.94-1.46,1.6-2.71,1.47-2.79-.13-.08-1,1.03-1.94,2.49Z"/><path class="cls-11" d="m193.57,65.22c-.86.56-1.5,1.11-1.41,1.24.08.13.85-.21,1.72-.77.86-.56,1.49-1.11,1.41-1.24-.08-.13-.85.21-1.72.77Z"/><path class="cls-34" d="m189.23,65.47c-1.68-.44-3.07-.67-3.11-.52-.04.15,1.29.63,2.97,1.07,1.68.44,3.07.67,3.11.52.04-.15-1.29-.63-2.97-1.07Z"/><path class="cls-34" d="m190.26,66.51c-1.01.17-1.81.44-1.78.59.03.15.87.13,1.88-.04,1.01-.18,1.81-.44,1.79-.59-.03-.15-.87-.13-1.88.04Z"/><path class="cls-11" d="m195.18,67.53c-.94,1.46-1.6,2.71-1.47,2.79.13.08,1-1.03,1.94-2.49.94-1.46,1.6-2.71,1.47-2.79-.13-.08-1,1.03-1.94,2.49Z"/><path class="cls-11" d="m195.13,69c-.86.56-1.5,1.11-1.41,1.24.08.13.85-.21,1.72-.77.86-.56,1.5-1.11,1.41-1.24-.08-.13-.85.21-1.72.77Z"/><path class="cls-34" d="m190.79,69.24c-1.68-.44-3.07-.67-3.11-.52-.04.15,1.29.63,2.97,1.07,1.68.44,3.07.67,3.11.52.04-.15-1.29-.63-2.97-1.07Z"/><path class="cls-34" d="m191.82,70.28c-1.01.18-1.81.44-1.78.59.03.15.87.13,1.88-.04,1.01-.18,1.81-.44,1.79-.6-.03-.15-.87-.13-1.88.04Z"/><path class="cls-11" d="m196.48,71.01c-.94,1.46-1.6,2.71-1.47,2.79.13.08,1-1.03,1.94-2.49.94-1.46,1.6-2.71,1.47-2.79-.13-.08-1,1.03-1.94,2.49Z"/><path class="cls-11" d="m196.43,72.48c-.87.56-1.5,1.11-1.41,1.24.08.13.85-.21,1.71-.77.87-.55,1.5-1.11,1.41-1.24-.08-.13-.85.21-1.72.77Z"/><path class="cls-34" d="m192.09,72.72c-1.68-.44-3.07-.67-3.11-.52-.04.15,1.29.63,2.97,1.07,1.68.44,3.07.67,3.11.52.04-.15-1.29-.63-2.97-1.06Z"/><path class="cls-34" d="m193.12,73.76c-1.01.17-1.81.44-1.78.59.03.15.87.13,1.88-.04,1.01-.18,1.81-.44,1.78-.59-.03-.15-.87-.14-1.88.04Z"/><path class="cls-11" d="m198.04,75.17c-.94,1.46-1.6,2.71-1.47,2.79.13.08,1-1.03,1.94-2.49.94-1.46,1.6-2.71,1.47-2.79-.13-.08-1,1.03-1.94,2.49Z"/><path class="cls-11" d="m197.99,76.64c-.86.55-1.5,1.11-1.41,1.24.09.13.85-.21,1.72-.77.86-.56,1.5-1.11,1.41-1.24-.08-.13-.85.21-1.72.77Z"/><path class="cls-34" d="m193.65,76.88c-1.68-.44-3.07-.67-3.11-.52-.04.15,1.29.63,2.97,1.07,1.68.44,3.07.67,3.11.52.04-.15-1.29-.63-2.97-1.07Z"/><path class="cls-34" d="m194.68,77.93c-1.01.18-1.81.44-1.78.6.02.15.87.13,1.88-.04,1.01-.18,1.81-.44,1.78-.6-.03-.15-.87-.13-1.88.04Z"/><path class="cls-11" d="m184.32,46.04c-.14.06.3,1.54.99,3.32.69,1.78,1.37,3.17,1.51,3.11.14-.06-.3-1.54-.99-3.32-.69-1.78-1.37-3.17-1.51-3.11Z"/><path class="cls-11" d="m186.31,46.32c-.15.02-.14,1.43.04,3.15.17,1.73.44,3.11.6,3.1.15-.02.14-1.43-.04-3.16-.17-1.73-.44-3.11-.6-3.1Z"/><path class="cls-11" d="m189.33,52.51c-.94,1.46-1.6,2.71-1.47,2.79.13.08,1-1.03,1.94-2.49.94-1.46,1.6-2.71,1.47-2.79-.13-.08-1,1.03-1.94,2.49Z"/><path class="cls-11" d="m189.28,53.97c-.87.56-1.5,1.11-1.41,1.24.08.13.85-.21,1.72-.77.86-.55,1.5-1.11,1.41-1.24-.08-.13-.85.21-1.72.77Z"/><path class="cls-34" d="m185.36,51.6c-.93-.43-1.74-.67-1.8-.53-.07.14.64.61,1.57,1.04.93.43,1.74.67,1.8.53.07-.14-.64-.61-1.57-1.04Z"/><path class="cls-34" d="m184.94,54.22c-1.68-.44-3.07-.67-3.11-.52-.04.15,1.29.63,2.97,1.07,1.68.44,3.07.67,3.11.52.04-.15-1.29-.63-2.97-1.07Z"/><path class="cls-34" d="m185.97,55.26c-1.01.18-1.81.44-1.79.6.03.15.87.13,1.88-.04,1.01-.18,1.81-.44,1.78-.59-.03-.15-.87-.14-1.88.04Z"/><path class="cls-11" d="m188.22,51.37c-.15,0-.33.81-.39,1.84-.06,1.03.01,1.86.17,1.87.15.01.33-.81.39-1.84.06-1.03-.01-1.87-.17-1.87Z"/><path class="cls-17" d="m240.03,49.41c-2.75.65-4.06,4.85-8.51,8.12-4.45,3.28-10.74,6.55-14.15,7.86-3.41,1.31-24.89,18.34-25.35,19.78-.46,1.44.33,6.94,2.03,8.65,1.7,1.7,5.9,4.72,8.52,4.19,2.62-.52,23.58-18.21,25.02-20.7,1.44-2.49,6.19-7.99,8.99-10.35,2.8-2.36,8.57-2.88,10.4-4.85,1.83-1.96,3.14-5.11,0-9.17-1.85-2.39-4.19-4.19-6.94-3.54Z"/><path class="cls-41" d="m241.32,50.65c-1.43,0-2.58,1.16-2.58,2.58s1.16,2.58,2.58,2.58,2.58-1.16,2.58-2.58-1.16-2.58-2.58-2.58Z"/><path class="cls-24" d="m204.63,54.74s-5.74,2.42-5.74,3.34,5.74,1.66,5.74,1.66c0,0,5.73-.74,5.73-1.66s-5.73-3.34-5.73-3.34Z"/><path class="cls-11" d="m206.81,52.93c-2.73,2.27-1.98,5.55-1.98,5.55,0,0,1.89-2.18,3.62-3.38,1.73-1.19,6.46-2.81,6.46-2.81,0,0-5.36-1.64-8.09.64Z"/><path class="cls-11" d="m202.66,52.93c-2.73-2.27-8.09-.64-8.09-.64,0,0,4.72,1.61,6.45,2.81,1.73,1.19,3.62,3.38,3.62,3.38,0,0,.75-3.27-1.98-5.55Z"/><path class="cls-24" d="m207.47,63.48c-3.59,3-2.61,7.31-2.61,7.31,0,0,2.49-2.88,4.77-4.45,2.28-1.58,8.51-3.7,8.51-3.7,0,0-7.07-2.16-10.67.84Z"/><path class="cls-24" d="m202,63.48c-3.6-3-10.67-.84-10.67-.84,0,0,6.23,2.12,8.51,3.7,2.28,1.57,4.77,4.45,4.77,4.45,0,0,.99-4.32-2.61-7.31Z"/><path class="cls-34" d="m204.73,57.69c-.3,0-.54.24-.54.54v25.13c0,.3.24.54.54.54s.54-.24.54-.54v-25.13c0-.3-.24-.54-.54-.54Z"/><path class="cls-11" d="m204.63,59.74s-5.74,1.12-5.74,2.51,5.74,5.05,5.74,5.05c0,0,5.73-3.66,5.73-5.05s-5.73-2.51-5.73-2.51Z"/><path class="cls-11" d="m204.63,69.51s-7.69,1.29-7.69,2.89,7.69,5.82,7.69,5.82c0,0,7.69-4.22,7.69-5.82s-7.69-2.89-7.69-2.89Z"/><g class="cls-53"><rect class="cls-3" x="190.53" y="51.37" width="14.2" height="41.13"/></g><path class="cls-9" d="m226.49,100.82h-31.72c-1.51,0-2.74,1.41-2.74,3.14v3.12c0,1.74,1.23,3.71,2.74,3.71h31.72c1.51,0,2.74-1.98,2.74-3.71v-3.12c0-1.74-1.23-3.14-2.74-3.14Z"/><path class="cls-9" d="m210.85,72.33h-25.3s-.95,6.55,0,12.44c.95,5.9,2.86,12.71,9.66,16.24,6.8,3.54,15.64,2.88,15.64,2.88,0,0,8.84.66,15.64-2.88,6.8-3.54,8.71-10.35,9.66-16.24.95-5.9,0-12.44,0-12.44h-25.3Z"/><g class="cls-50"><rect class="cls-3" x="181.83" y="71.16" width="29.61" height="45"/></g><path class="cls-34" d="m227.69,109.21s2.26,4.62,5.06,4.62,10.17-4.62,10.17-4.62c0,0-7.38-4.62-10.17-4.62s-5.06,4.62-5.06,4.62Z"/><path class="cls-34" d="m220.18,104.59c-2.79,0-10.17,4.62-10.17,4.62,0,0,7.38,4.62,10.17,4.62s5.06-4.62,5.06-4.62c0,0-2.26-4.62-5.06-4.62Z"/><path class="cls-11" d="m226.46,109.21s-3.78,1.85-3.78,4.14,3.78,8.33,3.78,8.33c0,0,3.78-6.04,3.78-8.33s-3.78-4.14-3.78-4.14Z"/><path class="cls-11" d="m222.68,105.07c0,2.29,3.78,4.14,3.78,4.14,0,0,3.78-1.86,3.78-4.14s-3.78-8.33-3.78-8.33c0,0-3.78,6.04-3.78,8.33Z"/><g class="cls-55"><rect class="cls-3" x="208.33" y="93.26" width="18.14" height="31.27"/></g><path class="cls-24" d="m126.4,67.38c-.32-1.16-8.44-2.22-8.44-2.22,0,0-6.43,5.08-6.11,6.24.32,1.16,7.86.1,7.86.1,0,0,7.01-2.95,6.69-4.11Z"/><path class="cls-11" d="m119.52,69.82s-2.1-3.89.57-7.73c2.66-3.83,10.04-3.64,10.04-3.64,0,0-5.43,3.7-7.21,5.82-1.77,2.12-3.4,5.55-3.4,5.55Z"/><path class="cls-11" d="m119.27,69.88s-.2-4.41-4.45-6.34c-4.25-1.93-10.49,2.02-10.49,2.02,0,0,6.56.39,9.17,1.3,2.61.91,5.77,3.02,5.77,3.02Z"/><path class="cls-24" d="m123.86,85.43s-2.76-5.13.75-10.19c3.51-5.06,13.24-4.8,13.24-4.8,0,0-7.16,4.88-9.5,7.67-2.34,2.79-4.49,7.31-4.49,7.31Z"/><path class="cls-24" d="m123.54,85.52s-.26-5.82-5.87-8.36c-5.61-2.54-13.83,2.67-13.83,2.67,0,0,8.65.52,12.09,1.72,3.44,1.2,7.6,3.98,7.6,3.98Z"/><path class="cls-34" d="m128.79,101.23c.1.38-.12.77-.5.88h0c-.38.1-.77-.12-.88-.5l-8.79-31.87c-.11-.38.12-.77.5-.88h0c.38-.1.77.12.88.5l8.79,31.87Z"/><path class="cls-11" d="m127.86,72.66c.49,1.76-5.51,8.41-5.51,8.41,0,0-8.56-2.64-9.04-4.4-.48-1.76,6.4-5.19,6.4-5.19,0,0,7.67-.58,8.15,1.18Z"/><path class="cls-11" d="m133.89,84.86c.56,2.03-7.72,10.07-7.72,10.07,0,0-11.24-2.66-11.79-4.69-.56-2.03,8.74-6.36,8.74-6.36,0,0,10.21-1.05,10.77.98Z"/><g class="cls-47"><rect class="cls-3" x="105.75" y="62.35" width="18.69" height="54.12" transform="translate(-19.63 33.82) rotate(-15.42)"/></g><path class="cls-20" d="m159.4,74.57c-3.06-2.17-7.18-2.59-11.2-2.59-4.57,0-9.21.7-12.56,3.29-6.43,4.96-11.38,11.97-12.83,19.6-2.1,11.07-1.19,17.73,25.52,17.73s27.73-6.74,25.27-17.73c-1.71-7.63-6.86-15.11-14.19-20.31Z"/><path class="cls-20" d="m124.59,59.93c0,6.79,10.34,13.62,23.09,13.62s23.09-6.82,23.09-13.62h-46.18Z"/><path class="cls-10" d="m155.6,88.74c-2.02-1.25-4.63-2.09-7.29-2.09-3.01,0-6.18,1-8.39,2.49-4.24,2.87-7.51,6.92-8.46,11.32-1.38,6.39-.3,9.38,17.32,9.38s17.8-3.03,16.18-9.38c-1.13-4.41-4.53-8.73-9.36-11.73Z"/><path class="cls-35" d="m139.09,107.57c0,.36,3.96.65,8.85.65s8.85-.29,8.85-.65v-5.2h-17.69v5.2Z"/><path class="cls-31" d="m157.71,71.2h-20.06c-.93,0-1.69.76-1.69,1.69s.76,1.69,1.69,1.69h20.06c.93,0,1.69-.76,1.69-1.69s-.76-1.69-1.69-1.69Z"/><path class="cls-22" d="m147.94,101.72c-4.88,0-8.85.29-8.85.65s3.96.65,8.85.65,8.85-.29,8.85-.65-3.96-.65-8.85-.65Z"/><path class="cls-38" d="m147.7,91.3c-.67,0-2.16,5.94-1.86,8.04.3,2.1,1.62,1.86,1.62,1.86,1.74-.12,2.16-.86,2.16-2.28,0-2.28-.96-7.62-1.92-7.62Z"/><path class="cls-12" d="m147.7,98.92c-.13,0-.24.11-.24.24v2.96c0,.13.11.24.24.24s.24-.11.24-.24v-2.96c0-.13-.11-.24-.24-.24Z"/><path class="cls-30" d="m139.93,89.15c-4.24,2.87-7.51,6.92-8.46,11.32-.95,4.37-.74,7.15,5.12,8.47-2.21-1.54-2.13-3.87-1.45-7.02.95-4.41,4.22-8.46,8.46-11.32,2.21-1.49,5.38-2.49,8.39-2.49,1.08,0,2.15.14,3.17.39-1.95-1.11-4.38-1.84-6.85-1.84-3.01,0-6.18,1-8.39,2.49Z"/><path class="cls-2" d="m152.5,103.19h-2.58c-.49,0-.88,1.08-.88,2.4s.39,2.4.88,2.4h2.58c.49,0,.88-1.08.88-2.4s-.39-2.4-.88-2.4Z"/><path class="cls-13" d="m158.16,77.67c-.86.92.08,3.2,2.11,5.1s4.37,2.7,5.23,1.79c.86-.92-.08-3.2-2.11-5.1-2.03-1.9-4.37-2.7-5.23-1.79Z"/><path class="cls-13" d="m163.68,63.2c-2.06,1.86-3.16,4.01-2.44,4.8.71.79,2.96-.08,5.03-1.95,2.06-1.86,2.52-3.37,1.81-4.16-.71-.79-2.33-.56-4.39,1.3Z"/><path class="cls-13" d="m157.52,71.63h-8.57c-.7,0-1.27.57-1.27,1.27s.57,1.27,1.27,1.27h8.57c.7,0,1.27-.57,1.27-1.27s-.57-1.27-1.27-1.27Z"/><g class="cls-48"><rect class="cls-8" x="120.02" y="58.56" width="27.65" height="55.25"/></g><path class="cls-23" d="m176.02,91.54h-6.82c-2.02,0-3.66,1.02-3.66,2.27v18.2c0,1.25,1.64,2.27,3.66,2.27h6.82c2.02,0,3.66-1.01,3.66-2.27v-18.2c0-1.25-1.64-2.27-3.66-2.27Z"/><rect class="cls-27" x="167.12" y="83.14" width="10.99" height="8.39"/><rect class="cls-22" x="165.54" y="96.8" width="14.14" height="11.75"/><rect class="cls-29" x="165.54" y="96.8" width="14.14" height="6.1"/><path class="cls-9" d="m177.11,83.81c-.14,0-.25.11-.25.25v6.48c0,.14.11.25.25.25s.25-.11.25-.25v-6.48c0-.14-.11-.25-.25-.25Z"/><path class="cls-9" d="m175.61,83.81c-.13,0-.25.11-.25.25v6.48c0,.14.11.25.25.25s.25-.11.25-.25v-6.48c0-.14-.11-.25-.25-.25Z"/><path class="cls-9" d="m174.11,83.81c-.13,0-.25.11-.25.25v6.48c0,.14.11.25.25.25s.25-.11.25-.25v-6.48c0-.14-.11-.25-.25-.25Z"/><path class="cls-9" d="m172.61,83.81c-.13,0-.25.11-.25.25v6.48c0,.14.11.25.25.25s.25-.11.25-.25v-6.48c0-.14-.11-.25-.25-.25Z"/><path class="cls-9" d="m171.11,83.81c-.14,0-.25.11-.25.25v6.48c0,.14.11.25.25.25s.25-.11.25-.25v-6.48c0-.14-.11-.25-.25-.25Z"/><path class="cls-9" d="m169.61,83.81c-.14,0-.25.11-.25.25v6.48c0,.14.11.25.25.25s.25-.11.25-.25v-6.48c0-.14-.11-.25-.25-.25Z"/><path class="cls-9" d="m168.1,83.81c-.14,0-.25.11-.25.25v6.48c0,.14.11.25.25.25s.25-.11.25-.25v-6.48c0-.14-.11-.25-.25-.25Z"/><path class="cls-41" d="m177.67,92.6c-.63,0-1.15.51-1.15,1.15v18.31c0,.63.51,1.15,1.15,1.15s1.15-.51,1.15-1.15v-18.31c0-.63-.51-1.15-1.15-1.15Z"/><g class="cls-54"><rect class="cls-8" x="164.85" y="82.41" width="7.76" height="33.11"/></g><path class="cls-23" d="m195.91,112.44c0,1.18-1.28,2.14-2.86,2.14h-5.33c-1.58,0-2.86-.96-2.86-2.14v-17.18c0-1.18,1.28-2.14,2.86-2.14h5.33c1.58,0,2.86.96,2.86,2.14v17.18Z"/><rect class="cls-33" x="184.85" y="96.02" width="11.05" height="15.11"/><path class="cls-26" d="m192.1,86.91c0,.62-.77,1.12-1.72,1.12h0c-.95,0-1.73-.5-1.73-1.12v-6.77c0-.62.78-1.13,1.73-1.13h0c.95,0,1.72.5,1.72,1.13v6.77Z"/><path class="cls-26" d="m192.89,85.37c0,.45-.37.82-.82.82h-3.38c-.45,0-.82-.37-.82-.82h0c0-.45.37-.82.82-.82h3.38c.45,0,.82.37.82.82h0Z"/><rect class="cls-23" x="187.87" y="91.55" width="5.01" height="1.57"/><rect class="cls-40" x="186.78" y="85.37" width="7.2" height="6.18"/><path class="cls-41" d="m195.06,112.54c0,.6-.48,1.08-1.08,1.08h0c-.6,0-1.08-.48-1.08-1.08v-17.24c0-.6.49-1.08,1.08-1.08h0c.6,0,1.08.48,1.08,1.08v17.24Z"/><path class="cls-28" d="m193.29,90.29c0,.37-.3.67-.67.67h0c-.37,0-.67-.3-.67-.67v-3.7c0-.37.3-.67.67-.67h0c.37,0,.67.3.67.67v3.7Z"/><path class="cls-13" d="m191.53,84.23c0,.18-.15.32-.32.32h0c-.18,0-.32-.14-.32-.32v-4.4c0-.18.15-.32.32-.32h0c.18,0,.32.14.32.32v4.4Z"/><path class="cls-13" d="m192.49,84.99c0,.1-.15.18-.34.18s-.34-.08-.34-.18.16-.18.34-.18.34.08.34.18Z"/><g class="cls-51"><rect class="cls-8" x="183.86" y="78.27" width="6.52" height="37.89"/></g><path class="cls-22" d="m186.83,106.85c0,2.66-2.06,4.82-2.92,4.82-.98,0-2.92-2.16-2.92-4.82s1.31-3.84,2.92-3.84,2.92,1.18,2.92,3.84Z"/><path class="cls-43" d="m186.06,108.12c0,1.96-1.52,3.55-2.16,3.55-.72,0-2.16-1.59-2.16-3.55s.97-2.83,2.16-2.83,2.16.87,2.16,2.83Z"/><path class="cls-37" d="m185.26,109.44c0,1.23-.95,2.23-1.35,2.23-.45,0-1.35-1-1.35-2.23s.61-1.78,1.35-1.78,1.35.55,1.35,1.78Z"/><path class="cls-22" d="m180.09,107.65c2.53.82,3.94,3.44,3.68,4.27-.3.93-2.95,2.11-5.48,1.29-2.53-.82-3.25-2.43-2.75-3.97.5-1.54,2.03-2.41,4.56-1.59Z"/><path class="cls-43" d="m181.05,108.77c1.87.61,2.91,2.54,2.71,3.15-.22.68-2.18,1.56-4.04.95-1.87-.61-2.4-1.79-2.03-2.93.37-1.13,1.5-1.78,3.36-1.17Z"/><path class="cls-37" d="m182.06,109.95c1.17.38,1.82,1.59,1.7,1.97-.14.43-1.37.98-2.54.6s-1.5-1.13-1.27-1.84c.23-.71.94-1.12,2.11-.74Z"/><path class="cls-22" d="m178.71,113.9c1.57-2.15,4.5-2.69,5.2-2.18.79.57,1.1,3.46-.46,5.61-1.56,2.15-3.32,2.34-4.62,1.39-1.31-.95-1.67-2.67-.11-4.83Z"/><path class="cls-43" d="m180.08,113.33c1.15-1.59,3.31-1.98,3.83-1.61.58.42.81,2.55-.34,4.14-1.15,1.59-2.45,1.73-3.41,1.03-.96-.7-1.23-1.97-.08-3.56Z"/><path class="cls-37" d="m181.51,112.73c.72-1,2.08-1.24,2.4-1.01.37.26.51,1.6-.21,2.6-.72,1-1.54,1.08-2.14.64-.6-.44-.77-1.24-.05-2.23Z"/><path class="cls-22" d="m184.38,117.25c-1.56-2.15-1.17-5.1-.47-5.61.79-.57,3.63.03,5.2,2.18,1.56,2.15,1.2,3.88-.11,4.83-1.31.95-3.06.76-4.62-1.39Z"/><path class="cls-43" d="m184.26,115.78c-1.16-1.58-.86-3.77-.34-4.14.58-.42,2.68.02,3.83,1.61,1.15,1.59.89,2.86-.08,3.56-.96.7-2.26.56-3.41-1.03Z"/><path class="cls-37" d="m184.13,114.23c-.72-1-.54-2.36-.22-2.6.36-.27,1.68.01,2.4,1.01.73,1,.56,1.79-.05,2.23-.61.44-1.42.35-2.14-.64Z"/><path class="cls-22" d="m189.44,113.03c-2.53.82-5.22-.47-5.48-1.29-.3-.93,1.15-3.45,3.68-4.27,2.53-.82,4.06.06,4.56,1.59.5,1.54-.22,3.14-2.75,3.97Z"/><path class="cls-43" d="m188,112.69c-1.87.61-3.85-.35-4.04-.95-.22-.68.85-2.54,2.71-3.15,1.87-.61,3,.04,3.36,1.17.37,1.13-.17,2.32-2.03,2.92Z"/><path class="cls-37" d="m186.49,112.34c-1.17.38-2.41-.22-2.54-.6-.14-.43.53-1.6,1.7-1.98,1.17-.38,1.88.03,2.11.74.23.71-.1,1.46-1.27,1.84Z"/><path class="cls-22" d="m198.61,109.79c0,1.92-1.49,3.48-2.11,3.48-.7,0-2.11-1.56-2.11-3.48s.94-2.78,2.11-2.78,2.11.85,2.11,2.78Z"/><path class="cls-43" d="m198.06,110.7c0,1.42-1.1,2.57-1.56,2.57-.52,0-1.55-1.15-1.55-2.57s.7-2.05,1.55-2.05,1.56.63,1.56,2.05Z"/><path class="cls-37" d="m197.48,111.66c0,.89-.69,1.61-.98,1.61-.32,0-.98-.72-.98-1.61s.44-1.28.98-1.28.98.39.98,1.28Z"/><path class="cls-22" d="m193.74,110.37c1.83.59,2.85,2.49,2.65,3.08-.22.67-2.13,1.53-3.96.93-1.83-.59-2.35-1.76-1.99-2.87.36-1.11,1.46-1.74,3.29-1.15Z"/><path class="cls-43" d="m194.44,111.18c1.35.44,2.1,1.83,1.96,2.27-.16.49-1.57,1.12-2.92.69-1.35-.44-1.73-1.29-1.46-2.11.27-.82,1.08-1.29,2.43-.85Z"/><path class="cls-37" d="m195.17,112.03c.84.27,1.32,1.15,1.23,1.43-.1.31-.99.71-1.83.43-.84-.27-1.09-.81-.92-1.33.17-.51.68-.81,1.52-.53Z"/><path class="cls-22" d="m192.75,114.88c1.13-1.55,3.24-1.94,3.75-1.57.57.41.79,2.5-.34,4.05-1.13,1.56-2.4,1.69-3.34,1.01-.94-.69-1.21-1.93-.08-3.49Z"/><path class="cls-43" d="m193.74,114.47c.83-1.15,2.39-1.43,2.77-1.16.42.31.58,1.84-.25,2.99-.83,1.15-1.77,1.25-2.46.74-.7-.5-.89-1.43-.06-2.57Z"/><path class="cls-37" d="m194.77,114.04c.52-.72,1.5-.9,1.74-.73.26.19.37,1.16-.16,1.88-.52.72-1.11.78-1.54.46-.44-.32-.56-.89-.04-1.61Z"/><path class="cls-22" d="m196.84,117.3c-1.13-1.55-.84-3.68-.34-4.05.57-.41,2.62.02,3.75,1.57,1.13,1.55.87,2.8-.08,3.49-.94.69-2.21.55-3.34-1Z"/><path class="cls-43" d="m196.76,116.24c-.83-1.14-.62-2.72-.25-2.99.42-.31,1.93.01,2.76,1.16.83,1.15.64,2.07-.06,2.57-.69.5-1.63.41-2.46-.74Z"/><path class="cls-37" d="m196.66,115.12c-.52-.72-.39-1.71-.15-1.87.26-.19,1.21,0,1.73.73.52.72.4,1.3-.03,1.61-.44.32-1.02.25-1.55-.46Z"/><path class="cls-22" d="m200.5,114.26c-1.83.59-3.76-.34-3.96-.93-.22-.67.83-2.49,2.66-3.08,1.83-.59,2.93.04,3.29,1.15.36,1.11-.16,2.27-1.99,2.86Z"/><path class="cls-43" d="m199.46,114.01c-1.35.44-2.78-.25-2.92-.69-.16-.49.61-1.84,1.96-2.27s2.16.03,2.43.85c.26.82-.12,1.68-1.46,2.11Z"/><path class="cls-37" d="m198.37,113.76c-.84.27-1.74-.16-1.83-.43-.1-.31.38-1.15,1.23-1.43.84-.28,1.36.02,1.52.53.17.51-.07,1.05-.92,1.33Z"/><path class="cls-42" d="m49.67,77.81h-16.5c-8.99,0-15.88.75-15.25,10.04.31,4.5,4.06,7.8,4.06,7.8h-4.06v7.49h31.84c8.99,0,15.52,0,16.28-13.04,0-8.96-7.38-12.28-16.38-12.28Z"/><path class="cls-15" d="m56.21,76.17c-2.4-.44-29.99.07-31.64.39-5.29,1.01-8.45,4.85-8.45,10.28,0,3.03.91,5.32,2.14,7h-.33c-1,0-1.81.81-1.81,1.81v7.49c0,.48.19.95.54,1.29.34.34.8.53,1.28.53h0c.37,0,36.91-.3,38.56-.26,2.63,0,5.29-1.06,7.26-3,1.88-1.86,4.12-5.46,4.12-12.06,0-7.08-4.36-12.11-11.67-13.45Zm5,22.93c-1.28,1.26-2.97,2.02-4.67,1.96-1.48-.01-29.26.19-36.8.25v-3.85h2.25c.27,0,.53-.06.77-.17.09.03.18.06.27.09,3.44,1.08,26.12.98,27.22.8.07-.01.16-.02.27-.03,6.01-.71,7.39-4.9,7.5-8.28.06-2.1-.66-3.98-2.09-5.42-1.82-1.83-4.75-2.9-7.84-2.83-.85.01-3.37,0-6.29-.02-6.63-.04-11.81-.06-12.97.05-1.19.12-2.28.8-3.07,1.93-.94,1.33-1.33,3.09-.97,4.5.83,3.31,3.03,4.11,4.73,4.19,2.59.12,18.11.13,18.77.13,1,0,1.81-.81,1.81-1.81s-.81-1.81-1.81-1.81c-.16,0-16.09,0-18.59-.12-.81-.04-1.12-.37-1.4-1.49-.07-.27.05-.96.43-1.5.2-.29.39-.4.47-.41,1.06-.1,8-.06,12.59-.03,2.94.02,5.48.03,6.38.02,2.08-.04,4.08.63,5.2,1.76.73.74,1.08,1.65,1.04,2.77-.12,3.97-2.28,4.56-4.3,4.8-.17.02-.32.04-.39.05-1.74.18-23.1.1-25.59-.67-1.51-.47-4.36-2.56-4.36-7.08s2.99-6.24,5.49-6.72c2.11-.34,28.47-.67,30.32-.39,3.25.6,8.7,2.68,8.7,9.89,0,4.24-1.06,7.52-3.05,9.49Z"/><path class="cls-7" d="m49.16,57.06h-12.89c-7.02,0-12.4.59-11.91,7.84.24,3.51,3.17,6.09,3.17,6.09h-3.17v5.85h24.87c7.02,0,12.12,0,12.72-10.19,0-7-5.77-9.59-12.79-9.59Z"/><path class="cls-15" d="m54.34,55.39c-2.02-.37-23.47.04-24.86.31-4.33.83-6.92,3.97-6.92,8.42,0,2.13.56,3.82,1.36,5.12-.78.2-1.36.91-1.36,1.75v5.85c0,.48.19.95.53,1.29.34.34.8.53,1.28.53h.01c.29,0,28.84-.22,30.1-.21,2.2.03,4.34-.87,5.95-2.46,1.52-1.5,3.34-4.41,3.34-9.7,0-5.73-3.52-9.8-9.44-10.89Zm3.55,18.02c-1.32,1.3-2.79,1.42-3.36,1.41-1.13-.02-21.94.14-28.35.19v-2.21h1.36c.21,0,.42-.04.61-.11.03,0,.05.02.08.02,2.72.85,20.58.78,21.44.64l.19-.02c4.98-.59,6.12-4.05,6.21-6.85.05-1.76-.55-3.32-1.75-4.53-1.5-1.51-3.85-2.38-6.41-2.32-.68.01-2.63,0-4.91-.01-5.36-.03-9.23-.05-10.15.04-1.04.1-2,.7-2.68,1.67-.8,1.13-1.12,2.63-.82,3.85.71,2.82,2.6,3.5,4.06,3.57,2.03.1,14.16.1,14.68.1,1,0,1.81-.81,1.81-1.81s-.81-1.81-1.81-1.81c-.12,0-12.56,0-14.5-.09-.37-.02-.53-.06-.73-.86-.05-.28.22-.91.35-1.01.81-.08,6.21-.05,9.78-.02,2.32.01,4.31.02,5.01.01,1.49-.02,2.99.46,3.77,1.25.49.5.72,1.11.7,1.87-.09,2.79-1.47,3.18-3.01,3.36-.14.02-.26.03-.3.04-1.87.18-18.01.04-19.83-.51-1.08-.34-3.13-1.85-3.13-5.15,0-2.72,1.34-4.36,3.96-4.86,1.75-.26,22.02-.52,23.55-.31,2.95.54,6.47,2.26,6.47,7.33,0,3.2-.78,5.67-2.26,7.13Z"/><g class="cls-56"><rect class="cls-21" x="14.6" y="53.82" width="27.39" height="52.78"/></g><path class="cls-14" d="m99.4,105.62h-16.19c-.8,0-1.45.65-1.45,1.45s.65,1.45,1.45,1.45h16.19c.8,0,1.45-.65,1.45-1.45s-.65-1.45-1.45-1.45Z"/><path class="cls-22" d="m99.56,72.25c-1.15-.59-2-1.19-2.8-2.23-.58-.76-.83-3-.83-3v-3.92h-10.02v3.78s-.51,2.58-1.11,3.37c-.99,1.31-1.98,1.66-3.37,2.47-5.59,3.26-9.36,9.32-9.36,16.26,0,10.41,8.44,18.84,18.84,18.84s18.84-8.43,18.84-18.84c0-7.29-4.14-13.6-10.2-16.73Z"/><rect class="cls-22" x="85.07" y="62.57" width="11.69" height="1.04"/><rect class="cls-29" x="84.37" y="55.86" width="13.1" height="6.71"/><path class="cls-39" d="m95.78,74.37h-9.92c-6.35,1.99-10.95,7.92-10.95,14.92,0,8.64,7,15.64,15.64,15.64s15.64-7,15.64-15.64c0-6.79-4.36-12.77-10.41-14.92Z"/><g class="cls-1"><rect class="cls-3" x="71.03" y="53.7" width="19.84" height="56.6"/></g><path class="cls-13" d="m93.91,76.09c-1.04,1.1.1,3.84,2.53,6.13,2.43,2.28,5.24,3.25,6.28,2.15,1.03-1.1-.1-3.84-2.53-6.13-2.43-2.29-5.24-3.25-6.28-2.15Z"/><path class="cls-30" d="m96.19,56.5c-.15,0-.28.12-.28.28v4.77c0,.15.12.28.28.28s.28-.12.28-.28v-4.77c0-.15-.12-.28-.28-.28Z"/><path class="cls-30" d="m94.86,56.5c-.15,0-.28.12-.28.28v4.77c0,.15.12.28.28.28s.28-.12.28-.28v-4.77c0-.15-.12-.28-.28-.28Z"/><path class="cls-30" d="m93.53,56.5c-.15,0-.28.12-.28.28v4.77c0,.15.12.28.28.28s.28-.12.28-.28v-4.77c0-.15-.12-.28-.28-.28Z"/><path class="cls-30" d="m92.2,56.5c-.15,0-.28.12-.28.28v4.77c0,.15.12.28.28.28s.28-.12.28-.28v-4.77c0-.15-.12-.28-.28-.28Z"/><path class="cls-30" d="m90.87,56.5c-.15,0-.28.12-.28.28v4.77c0,.15.12.28.28.28s.28-.12.28-.28v-4.77c0-.15-.12-.28-.28-.28Z"/><path class="cls-30" d="m89.53,56.5c-.15,0-.28.12-.28.28v4.77c0,.15.12.28.28.28s.28-.12.28-.28v-4.77c0-.15-.12-.28-.28-.28Z"/><path class="cls-30" d="m88.2,56.5c-.15,0-.28.12-.28.28v4.77c0,.15.12.28.28.28s.28-.12.28-.28v-4.77c0-.15-.12-.28-.28-.28Z"/><path class="cls-30" d="m86.87,56.5c-.15,0-.28.12-.28.28v4.77c0,.15.12.28.28.28s.28-.12.28-.28v-4.77c0-.15-.12-.28-.28-.28Z"/><path class="cls-30" d="m85.54,56.5c-.15,0-.28.12-.28.28v4.77c0,.15.12.28.28.28s.28-.12.28-.28v-4.77c0-.15-.12-.28-.28-.28Z"/><path class="cls-19" d="m17.45,112.27h90.63c2.53-.97,7.03-10.66,7.03-10.66H11.13s2.81,9.32,6.33,10.66Z"/><path class="cls-25" d="m106.38,109.31H18.85c-.53,0-.96.43-.96.96s.43.96.96.96h87.53c.53,0,.96-.43.96-.96s-.43-.96-.96-.96Z"/><path class="cls-22" d="m60.69,88.02c-2.11,0-3.83,1.55-3.83,5.03s2.55,6.31,3.83,6.31c1.13,0,3.83-2.82,3.83-6.31s-1.71-5.03-3.83-5.03Z"/><path class="cls-43" d="m60.69,90.99c-1.56,0-2.82,1.14-2.82,3.71s1.88,4.65,2.82,4.65c.84,0,2.82-2.08,2.82-4.65s-1.26-3.71-2.82-3.71Z"/><path class="cls-37" d="m60.69,94.11c-.98,0-1.77.72-1.77,2.33s1.18,2.92,1.77,2.92c.53,0,1.77-1.31,1.77-2.92s-.79-2.33-1.77-2.33Z"/><path class="cls-22" d="m55.7,94.1c-3.31-1.08-5.32.07-5.97,2.08-.65,2.01.29,4.12,3.6,5.19,3.31,1.08,6.79-.48,7.18-1.69.35-1.08-1.5-4.51-4.81-5.59Z"/><path class="cls-43" d="m56.96,95.56c-2.44-.79-3.92.05-4.4,1.54s.21,3.04,2.66,3.83c2.44.79,5-.35,5.29-1.25.26-.79-1.11-3.33-3.55-4.12Z"/><path class="cls-37" d="m58.28,97.1c-1.53-.5-2.46.03-2.76.96-.3.93.13,1.91,1.66,2.4,1.53.5,3.14-.22,3.32-.78.16-.5-.69-2.09-2.23-2.58Z"/><path class="cls-22" d="m60.7,99.42c-.91-.67-4.75.04-6.8,2.85-2.05,2.82-1.57,5.08.14,6.32,1.71,1.24,4.01,1,6.05-1.82,2.05-2.82,1.64-6.6.61-7.35Z"/><path class="cls-43" d="m55.68,101.53c-1.51,2.08-1.16,3.74.1,4.66,1.26.92,2.96.74,4.46-1.34,1.51-2.08,1.21-4.87.45-5.42-.67-.49-3.51.03-5.01,2.1Z"/><path class="cls-37" d="m57.55,100.74c-.95,1.3-.73,2.35.06,2.92.79.58,1.85.46,2.8-.84.95-1.3.76-3.05.28-3.4-.42-.31-2.2.02-3.14,1.32Z"/><path class="cls-22" d="m60.7,99.31c-.92.67-1.44,4.53.61,7.35,2.05,2.82,4.34,3.07,6.05,1.82,1.71-1.24,2.19-3.5.14-6.32-2.05-2.82-5.77-3.6-6.8-2.85Z"/><path class="cls-43" d="m60.7,99.31c-.68.49-1.06,3.34.45,5.42,1.51,2.08,3.2,2.26,4.46,1.34,1.26-.92,1.61-2.58.1-4.66-1.51-2.08-4.26-2.66-5.02-2.1Z"/><path class="cls-37" d="m60.7,99.31c-.43.31-.67,2.09.28,3.4.95,1.3,2.01,1.42,2.8.84.79-.57,1.01-1.62.06-2.92-.94-1.3-2.67-1.66-3.14-1.32Z"/><path class="cls-22" d="m65.57,93.86c-3.31,1.08-5.21,4.38-4.81,5.59.35,1.08,3.87,2.77,7.18,1.69,3.32-1.08,4.26-3.18,3.6-5.2-.65-2.01-2.65-3.16-5.97-2.08Z"/><path class="cls-43" d="m64.31,95.33c-2.44.79-3.84,3.23-3.55,4.12.26.8,2.85,2.04,5.29,1.25,2.44-.79,3.14-2.35,2.66-3.83-.48-1.48-1.96-2.33-4.4-1.54Z"/><path class="cls-37" d="m62.99,96.87c-1.53.5-2.41,2.03-2.22,2.58.16.5,1.79,1.28,3.32.78,1.53-.5,1.97-1.47,1.67-2.4-.3-.93-1.23-1.46-2.76-.96Z"/><path class="cls-22" d="m75.36,92.26c-1.53,0-2.76,1.12-2.76,3.63s1.84,4.55,2.76,4.55c.82,0,2.76-2.04,2.76-4.55s-1.24-3.63-2.76-3.63Z"/><path class="cls-43" d="m75.36,94.41c-1.12,0-2.04.83-2.04,2.68s1.36,3.36,2.04,3.36c.6,0,2.04-1.5,2.04-3.36s-.91-2.68-2.04-2.68Z"/><path class="cls-37" d="m75.36,96.66c-.71,0-1.28.52-1.28,1.68s.85,2.11,1.28,2.11c.38,0,1.28-.94,1.28-2.11s-.57-1.68-1.28-1.68Z"/><path class="cls-22" d="m71.76,96.65c-2.39-.78-3.84.05-4.31,1.5-.47,1.45.21,2.97,2.6,3.75,2.39.78,4.9-.35,5.18-1.22.25-.78-1.08-3.26-3.48-4.03Z"/><path class="cls-43" d="m72.67,97.71c-1.76-.57-2.83.04-3.18,1.11-.35,1.07.15,2.19,1.92,2.76,1.76.57,3.61-.25,3.82-.9.19-.57-.8-2.4-2.56-2.97Z"/><path class="cls-37" d="m73.62,98.82c-1.11-.36-1.77.02-1.99.69-.22.67.1,1.38,1.2,1.74,1.11.36,2.27-.16,2.4-.57.12-.36-.5-1.51-1.61-1.86Z"/><path class="cls-22" d="m70.46,102.55c-1.48,2.04-1.14,3.67.1,4.56,1.24.9,2.89.72,4.37-1.32,1.48-2.03,1.19-4.77.44-5.31-.66-.48-3.43.03-4.91,2.06Z"/><path class="cls-43" d="m71.75,102.01c-1.09,1.5-.84,2.7.07,3.37.91.66,2.13.53,3.22-.97,1.09-1.5.87-3.51.32-3.91-.48-.35-2.53.02-3.62,1.52Z"/><path class="cls-37" d="m73.1,101.44c-.68.94-.53,1.7.05,2.11.57.42,1.34.33,2.02-.61.68-.94.55-2.21.2-2.46-.3-.22-1.59.01-2.27.95Z"/><path class="cls-22" d="m75.37,100.41c-.66.48-1.04,3.27.44,5.3,1.48,2.04,3.14,2.21,4.37,1.32,1.23-.9,1.58-2.53.1-4.56-1.48-2.03-4.17-2.6-4.91-2.06Z"/><path class="cls-43" d="m75.37,100.41c-.49.35-.77,2.41.33,3.91,1.09,1.5,2.31,1.63,3.22.97.91-.66,1.16-1.87.07-3.37-1.09-1.5-3.07-1.92-3.62-1.52Z"/><path class="cls-37" d="m75.37,100.41c-.31.22-.48,1.51.2,2.45.68.94,1.45,1.02,2.02.61.57-.42.73-1.17.05-2.11-.68-.94-1.93-1.2-2.27-.95Z"/><path class="cls-22" d="m78.89,96.48c-2.39.78-3.76,3.16-3.47,4.03.25.78,2.79,2,5.18,1.22,2.39-.78,3.07-2.3,2.6-3.75-.47-1.45-1.92-2.28-4.31-1.5Z"/><path class="cls-43" d="m77.98,97.54c-1.76.57-2.77,2.33-2.56,2.98.19.57,2.06,1.47,3.82.9,1.76-.57,2.27-1.7,1.92-2.77-.35-1.07-1.41-1.68-3.18-1.11Z"/><path class="cls-37" d="m77.02,98.65c-1.11.36-1.74,1.46-1.61,1.87.12.36,1.29.92,2.4.56,1.11-.36,1.42-1.06,1.2-1.73-.22-.67-.88-1.06-1.99-.7Z"/><path class="cls-22" d="m30.4,45.76c-1.38,0-2.49,1.01-2.49,3.28s1.66,4.1,2.49,4.1c.74,0,2.49-1.84,2.49-4.1s-1.12-3.28-2.49-3.28Z"/><path class="cls-43" d="m30.4,47.7c-1.01,0-1.84.74-1.84,2.42s1.23,3.03,1.84,3.03c.54,0,1.84-1.36,1.84-3.03s-.82-2.42-1.84-2.42Z"/><path class="cls-37" d="m30.4,49.73c-.64,0-1.15.47-1.15,1.51s.77,1.9,1.15,1.9c.34,0,1.15-.85,1.15-1.9s-.52-1.51-1.15-1.51Z"/><path class="cls-22" d="m27.15,49.72c-2.16-.7-3.46.05-3.89,1.36-.42,1.31.19,2.68,2.35,3.38,2.15.7,4.42-.31,4.67-1.1.23-.7-.98-2.94-3.13-3.64Z"/><path class="cls-43" d="m27.97,50.67c-1.59-.52-2.55.04-2.87,1-.31.97.14,1.98,1.73,2.49,1.59.52,3.26-.23,3.45-.81.17-.52-.72-2.17-2.31-2.68Z"/><path class="cls-37" d="m28.84,51.67c-1-.32-1.6.02-1.8.63-.2.61.09,1.24,1.08,1.56,1,.32,2.04-.14,2.16-.51.11-.32-.45-1.36-1.45-1.68Z"/><path class="cls-22" d="m25.98,55.04c-1.33,1.84-1.02,3.31.09,4.12,1.11.81,2.61.65,3.94-1.19,1.33-1.83,1.07-4.3.4-4.78-.6-.43-3.09.02-4.43,1.86Z"/><path class="cls-43" d="m27.14,54.56c-.98,1.35-.76,2.44.06,3.03.82.6,1.92.48,2.91-.87.98-1.35.79-3.17.29-3.53-.44-.32-2.28.02-3.26,1.37Z"/><path class="cls-37" d="m28.36,54.04c-.62.85-.47,1.53.04,1.9.51.37,1.2.3,1.82-.55.62-.85.49-1.99.18-2.21-.28-.2-1.43,0-2.05.86Z"/><path class="cls-22" d="m30.41,53.12c-.6.43-.93,2.95.4,4.78,1.33,1.84,2.83,2,3.94,1.19,1.11-.81,1.42-2.28.09-4.11-1.33-1.83-3.75-2.35-4.43-1.86Z"/><path class="cls-43" d="m30.41,53.12c-.44.32-.69,2.18.29,3.53.98,1.35,2.08,1.47,2.9.87.82-.6,1.05-1.68.07-3.03-.98-1.35-2.77-1.73-3.27-1.37Z"/><path class="cls-37" d="m30.41,53.12c-.28.2-.43,1.36.18,2.21.62.85,1.31.92,1.82.55.51-.37.66-1.05.04-1.9-.62-.85-1.74-1.08-2.05-.86Z"/><path class="cls-22" d="m33.58,49.57c-2.16.7-3.39,2.85-3.13,3.64.23.7,2.52,1.8,4.67,1.1,2.16-.7,2.77-2.07,2.35-3.38-.43-1.31-1.73-2.06-3.89-1.36Z"/><path class="cls-43" d="m32.76,50.52c-1.59.52-2.5,2.1-2.31,2.68.17.52,1.86,1.33,3.45.81,1.59-.52,2.04-1.53,1.73-2.49-.31-.96-1.27-1.52-2.87-1Z"/><path class="cls-37" d="m31.9,51.52c-1,.32-1.57,1.32-1.45,1.68.11.33,1.16.83,2.16.51,1-.32,1.28-.96,1.08-1.56-.2-.61-.8-.95-1.8-.63Z"/></g></g></svg>