<?xml version="1.0" encoding="UTF-8"?><svg id="Background" xmlns="http://www.w3.org/2000/svg" xmlns:xlink="http://www.w3.org/1999/xlink" viewBox="0 0 260 130"><defs><style>.cls-1{opacity:.4;}.cls-1,.cls-2,.cls-3,.cls-4,.cls-5,.cls-6,.cls-7,.cls-8,.cls-9,.cls-10,.cls-11,.cls-12,.cls-13,.cls-14,.cls-15,.cls-16,.cls-17,.cls-18,.cls-19,.cls-20,.cls-21,.cls-22,.cls-23,.cls-24,.cls-25,.cls-26,.cls-27,.cls-28,.cls-29,.cls-30,.cls-31,.cls-32,.cls-33,.cls-34,.cls-35{stroke-width:0px;}.cls-1,.cls-16,.cls-22,.cls-32{fill:#fff;}.cls-2{opacity:.5;}.cls-2,.cls-31{fill:#d3478e;}.cls-3{fill:#00b3ff;}.cls-4{fill:#ffff04;}.cls-5{fill:#450000;}.cls-5,.cls-6,.cls-32{opacity:.2;}.cls-6{fill:#1d000e;}.cls-36{clip-path:url(#clippath-2);}.cls-7{fill:#c400ff;}.cls-8{fill:#000cff;}.cls-9{fill:#ff0004;}.cls-11{fill:#ff5b04;}.cls-12{fill:#ffbd95;}.cls-13{fill:none;}.cls-14{fill:#ff7cff;}.cls-37{clip-path:url(#clippath-1);}.cls-15{fill:#4c2210;}.cls-17{fill:#1f1a24;}.cls-18{fill:#b84024;}.cls-19{fill:#ae9c90;}.cls-20{fill:#ff97ff;}.cls-21{fill:#542210;}.cls-38{clip-path:url(#clippath);}.cls-22{opacity:.1;}.cls-23{fill:#3b0500;}.cls-24{fill:#ffcaaa;}.cls-39{clip-path:url(#clippath-3);}.cls-25{fill:#ffdbc7;}.cls-26{fill:#a4b5ff;opacity:.8;}.cls-27{fill:#ffa47c;}.cls-28{fill:#cec9c5;}.cls-29{fill:#fff172;}.cls-30{fill:#fff600;}.cls-33{fill:#fff1bd;}.cls-34{fill:#00c404;}.cls-35{fill:#8d3b26;}</style><clipPath id="clippath"><path class="cls-13" d="m190.66,24.28c-2.73-.29-15.84-.92-17.12-1.63-1.27-.71,1.03-4.14.82-7.92-.21-3.79-4.2-7.06-11.17-7.06s-10.97,3.28-11.18,7.06c-.21,3.78,1.64,7.74.37,8.45-1.27.71-14.3.56-17.03.85-2.73.29-21.35,2.39-21.35,8.39,0,7.01,14.29,8.2,19.66,8.2,5.38,0,10.88-.82,14.03.25,3.14,1.06,2.03,6.68,1.39,10.44-.63,3.76-.21,20.36-.42,22.86-.21,2.5,2.31,14.67,1.09,16.99-1.21,2.32-5.04,10.37-2.89,12.88,3.26,3.8,13.7-.17,16.38-.17,2.67,0,13.62,3.21,16.13,1.06,2.52-2.14-1.41-10.58-2.63-12.9-1.21-2.32,1.19-15.37.98-17.87-.21-2.5.21-19.09-.42-22.86-.63-3.77-1.64-9.38,1.51-10.44,3.15-1.07,9.66.12,15.03.12,5.37,0,19-1.47,19.21-7.47.21-6-19.65-8.96-22.38-9.24Z"/></clipPath><clipPath id="clippath-1"><path class="cls-13" d="m141.15,81.08c2.45-11.24,2.89-24.78,2.89-24.78,0,0-13.13,6.21-22.57,13.18-3.96-11.06-11.4-23.53-11.4-23.53,0,0-7.66,12.27-11.82,23.26-9.41-6.87-22.2-12.91-22.2-12.91,0,0,.45,13.54,2.89,24.78-11.38-.68-24.53.83-24.53.83,0,0,15.14,22.66,25.34,27.26,10.2,4.6,30.29-2.17,30.29-2.17,0,0,0-.02-.02-.04,0,0,.03,0,.03,0,0,0,.01,0,.02,0,0,0,0,0,0,0h0s-.02.03-.02.03c0,0,20.09,6.77,30.29,2.17,10.2-4.6,25.34-27.26,25.34-27.26,0,0-13.15-1.51-24.53-.83Z"/></clipPath><clipPath id="clippath-2"><path class="cls-13" d="m83.25,110.04c.09-.88-.05-1.8-1.03-2.35-.4-.22-.99-.46-1.72-.71-.45-1.16-1.68-3.1-2.53-4.1-1.06-1.24-2.02-1.69-3.06-1.78-.98-1.29-3.95-5.15-6.08-7.85-2.4-3.03-3.26-4.33-5.01-5.91-.06-2.65-1.55-6.61-1.85-9.21-.36-3.12-.29-7.76-1.77-9.65-.92-1.51-6.3-3.48-6.71-3.62,0,0,0-.01,0-.01,0,0-1.66-.57-1.75-4.88,1.67-1.52,3.2-4.15,3.53-7.14.38-3.44-1.47-6.41-3.93-7.62.05-.19.08-.38.08-.58,0-1.36-1.1-2.45-2.46-2.45s-2.45,1.1-2.45,2.45c0,.2.03.4.08.58-2.44,1.21-4.28,4.17-3.93,7.61.32,3.12,1.92,5.81,3.65,7.29-.32,3.78-1.88,4.72-1.88,4.72,0,0,0,.04,0,.1-.02-.04-.03-.07-.05-.1,0,0-5.05,1.16-6.41,2.66-2.04,1.36-1.92,6.71-2.32,10.18-.3,2.61-1.78,6.56-1.85,9.21-1.75,1.58-2.61,2.87-5.01,5.91-2.12,2.7-5.09,6.56-6.07,7.85-1.04.09-2,.54-3.06,1.78-.94,1.12-2.37,3.41-2.65,4.47-.58.21-1.06.42-1.4.61-1.02.58-1.13,1.56-1.01,2.47-.32,1.64,1.56,3.07,4.08,3.43,3.6.5,9.28.81,13.71-.2.93-.21,1.97-.53,3.08-.9,2.72-.17,5.25-.4,7.22-.72.51-.08.97-.19,1.4-.32,1,.04,1.96,0,2.78-.07.43.7,1.2,1.18,2.09,1.18s1.65-.47,2.08-1.16c.58.08,1.26.14,1.98.17.62.22,1.32.4,2.13.52,2.22.35,5.14.58,8.25.74.72.22,1.4.42,2.02.56,4.43,1,10.11.7,13.71.2.76-.11,1.45-.32,2.05-.59.82-.27,1.46-.78,1.74-1.41.26-.42.38-.88.3-1.36Zm-5.56-4.67c.42.29.81.69,1.17,1.09-.51-.15-1.05-.3-1.62-.45-.06-.3-.45-.83-1.03-1.39.45.16.94.37,1.48.75Zm-11.29-8.3c2.39,2.05,6.06,4.85,7.02,5.58.05.26.16.52.31.77.1.16.22.29.35.4.22.36.62.82,1.14,1.29.24.22.48.41.71.57-6.15-1.54-14.4-3.05-15.86-3.32-1.13-5-4.54-6.63-4.54-10.47,0-2.2.65-6.46,1.6-10.95.83,3.83,1.76,7.21,3.26,8.55.03.22.07.45.15.7.65,2.03,2.87,4.3,5.86,6.87Zm-35.15-.46c2.99-2.57,5.21-4.84,5.86-6.87.08-.25.12-.49.15-.7,1.59-1.42,2.55-5.17,3.42-9.31.93,4.94,1.56,9.9,1.56,12.17,0,3.73-2.85,5.57-4.24,10.12,0,0-.03,0-.03,0,0,0-10.44,1.93-17.23,3.75.38-.11,1.03-.53,1.68-1.12.52-.47.92-.94,1.14-1.29.12-.11.24-.23.34-.4.16-.25.26-.51.32-.77.96-.73,4.63-3.54,7.02-5.59Zm-11.28,8.3c.54-.38,1.03-.59,1.48-.75-.74.72-1.18,1.4-1.01,1.59.05.05.13.05.25.03-.81.22-1.58.44-2.26.65.45-.52.97-1.12,1.54-1.52Z"/></clipPath><clipPath id="clippath-3"><path class="cls-13" d="m167.59,105.87c-1.19-5.32-4.78-10.53-9.89-14.16-.14-.1-.29-.18-.44-.27.26-.22.44-.54.44-.91,0-.33-.14-.63-.36-.84,4.94-1.74,8.28-4.97,8.28-8.19h-32.2c0,3.22,3.34,6.46,8.28,8.19-.22.21-.36.51-.36.84,0,.47.28.87.67,1.06-.31.18-.61.38-.9.61-4.48,3.46-7.94,8.35-8.95,13.67-1.46,7.71-.83,12.36,17.79,12.36s19.33-4.7,17.62-12.36Z"/></clipPath></defs><path class="cls-26" d="m190.66,24.28c-2.73-.29-15.84-.92-17.12-1.63-1.27-.71,1.03-4.14.82-7.92-.21-3.79-4.2-7.06-11.17-7.06s-10.97,3.28-11.18,7.06c-.21,3.78,1.64,7.74.37,8.45-1.27.71-14.3.56-17.03.85-2.73.29-21.35,2.39-21.35,8.39,0,7.01,14.29,8.2,19.66,8.2,5.38,0,10.88-.82,14.03.25,3.14,1.06,2.03,6.68,1.39,10.44-.63,3.76-.21,20.36-.42,22.86-.21,2.5,2.31,14.67,1.09,16.99-1.21,2.32-5.04,10.37-2.89,12.88,3.26,3.8,13.7-.17,16.38-.17,2.67,0,13.62,3.21,16.13,1.06,2.52-2.14-1.41-10.58-2.63-12.9-1.21-2.32,1.19-15.37.98-17.87-.21-2.5.21-19.09-.42-22.86-.63-3.77-1.64-9.38,1.51-10.44,3.15-1.07,9.66.12,15.03.12,5.37,0,19-1.47,19.21-7.47.21-6-19.65-8.96-22.38-9.24Z"/><path class="cls-2" d="m185.48,25.78c-2.17-.27-14.36-.4-15.37-1.07-1.01-.67,2.18-5.18,2.01-8.72-.17-3.54-3.34-6.6-8.89-6.6s-8.73,3.07-8.9,6.6c-.17,3.54,3.03,8.05,2.01,8.72-1.01.67-13.2.8-15.38,1.07-2.17.27-23.21,1.72-23.04,7.34.17,5.62,17.33,4.96,21.61,4.96,4.28,0,8.62-1,11.12,0,2.51,1,1.84,8.64,1.34,12.17-.5,3.52-.17,19.05-.33,21.39-.17,2.34,1.94,18.2.97,20.37-.97,2.17-4.98,8.19-2.97,10.19,2.01,2,11.45-2.01,13.57-2.01,2.12,0,11.56,4.01,13.57,2.01,2-2-2.01-8.02-2.97-10.19-.96-2.17,1.14-18.04.97-20.37-.16-2.34.17-17.87-.33-21.39-.5-3.53-1.17-11.17,1.33-12.17,2.51-1,6.85,0,11.12,0,4.28,0,21.44.66,21.61-4.96.17-5.62-20.87-7.07-23.05-7.34Z"/><path class="cls-24" d="m172.13,28.54l-4.94-.36s-1.71-.22-1.75-4.6c0-1.1-4.62-1.08-4.61.02.06,3.76-1.33,4.8-1.55,4.94l-4.94.1s1.32,13.34,1.72,16.04c.41,2.7-.23,9.68-.23,9.68h7.38l7.28.05s-.53-7.03-.12-9.73c.41-2.7,1.77-16.15,1.77-16.15Z"/><path class="cls-25" d="m163.13,13.83c-2.6,0-5.05,2.76-4.71,6.11.37,3.55,2.94,6.36,4.71,6.36s4.31-2.87,4.7-6.36c.37-3.35-2.11-6.11-4.7-6.11Z"/><path class="cls-35" d="m163.11,12.45c-2.01,0-4.19,1.41-4.75,2.88-.6,1.56-.34,4.14-.34,4.14l.66.73s.43-2.94,1.12-3.34c.22-.13,1.54-.79,1.54-.79,0,0,4.83.94,5.31,1.42.65.65.93,2.6.93,2.6l.71-1.02s.19-2.93-.59-4.18c-.56-.89-2.49-2.45-4.59-2.45Z"/><path class="cls-24" d="m185.87,30.72c-4.46-.94-13.88-3.64-15.58-1.16,0,0-.67,1.67.25,2.73,1.75,1.99,14.13,1.81,15.22,1.27,1.09-.54,1.76-2.48.12-2.83Z"/><path class="cls-24" d="m198.05,32.04c-3.96-.74-11.37-2.27-13.25-.91,0,0-.98,1.21-.33,2,1.21,1.49,12.76,1.21,13.89.82,1.14-.38,1.14-1.64-.32-1.92Z"/><path class="cls-24" d="m201.33,31.93c-1.35-.39-2.19-.18-2.95.32-.75.5-.36,1.42.5,1.8.96.43,1.56-.47,3.31-.43,1.2.02,2.66.82,2.89.39.23-.44-2.41-1.69-3.75-2.07Z"/><path class="cls-24" d="m200.66,33.71c-.91-.13-1.68-.07-1.72.14-.04.21.68.49,1.59.63.91.13,1.68.07,1.71-.14.04-.22-.67-.5-1.59-.63Z"/><path class="cls-24" d="m140.53,30.72c-1.64.35-.98,2.29.11,2.83,1.09.54,13.47.72,15.22-1.27.93-1.06.25-2.73.25-2.73-1.7-2.48-11.12.22-15.58,1.16Z"/><path class="cls-24" d="m128.35,32.04c-1.46.28-1.45,1.53-.32,1.92,1.13.39,12.68.67,13.89-.82.65-.79-.33-2-.33-2-1.88-1.36-9.29.16-13.25.91Z"/><path class="cls-24" d="m128.02,32.25c-.75-.5-1.59-.71-2.94-.32-1.34.38-3.98,1.63-3.75,2.07.23.43,1.69-.37,2.89-.39,1.75-.03,2.35.86,3.31.43.85-.38,1.25-1.3.5-1.8Z"/><path class="cls-24" d="m125.74,33.71c-.91.13-1.62.41-1.58.63.04.21.81.27,1.72.14.91-.14,1.62-.42,1.59-.63-.04-.21-.8-.28-1.72-.14Z"/><path class="cls-24" d="m158.28,73.12c-2.02-.08-2.53,1.73-2.53,1.73-.26,1.06-.26,7.37-.31,9-.06,1.63.85,8.02.65,9.87-.01.16-1.32,3.27-2.77,4.6-.43.4-.67.92-.69,1.37-.02.65.15,1.01,1.03,1.03s2.13-.54,2.59-1.12c1.78-2.25,2.66-1.95,3.12-2.67.34-.54.13-1.47.13-1.47l-.15-.44c-.12-.63-.72-2.07-.52-3.34.22-1.44,1.45-6.26,1.72-8.85.26-2.6.36-5.36.26-6.16-.1-.8-.5-3.47-2.52-3.56Z"/><path class="cls-24" d="m170.33,93.19c-.2-1.85.7-8.24.65-9.87-.06-1.63-.06-7.94-.31-9,0,0-.51-1.8-2.53-1.72-2.02.08-2.41,2.76-2.52,3.56-.1.8,0,3.56.27,6.16.26,2.6,1.49,7.42,1.72,8.85.2,1.27-.41,2.7-.53,3.34l-.15.44s-.22.92.13,1.46c.46.73,1.34.43,3.12,2.68.46.58,1.71,1.13,2.59,1.12.88-.01,1.05-.37,1.03-1.02-.02-.46-.26-.97-.69-1.37-1.45-1.34-2.76-4.44-2.77-4.61Z"/><path class="cls-24" d="m159.28,51.06c-.88.16-2.16.33-2.99,1.78-.84,1.45-.98,3.57-1.1,9.79-.13,6.23.28,12.5.79,13.18.51.68.94,1.16,2.08,1.23.97.05,2.49-.11,2.79-.89.3-.77,1.81-7.17,2.06-12.65.25-5.47.56-9.81-.32-11.31-.88-1.5-2.43-1.29-3.31-1.13Z"/><path class="cls-24" d="m169.96,52.84c-.83-1.45-2.11-1.62-2.99-1.78-.88-.16-2.44-.37-3.31,1.13-.88,1.5-.56,5.83-.32,11.31.24,5.47,1.75,11.88,2.05,12.65.3.78,1.82.94,2.8.89,1.14-.06,1.57-.54,2.08-1.23.51-.68.91-6.95.79-13.18-.13-6.22-.27-8.35-1.1-9.79Z"/><g class="cls-38"><rect class="cls-5" x="113.99" y="1.83" width="49.25" height="110.81"/></g><path class="cls-27" d="m190.99,57.66c-3.93,1.24-8.27,5.18-9.38,7.17-1.43,2.54-1.33,6.38-.88,8.33.9,3.84,3.65,10.44,4.16,14.77.81,6.99,1.34,14.64,2.11,18.22.91,4.19,4.58,9.58,11.09,8.67,7.44-1.04,8.91-5.92,8.39-10.36-.52-4.44-3-13.53-2.28-17.87.72-4.34,3.03-15.19,3.31-18.59.29-3.51.17-7.27-2.27-9.71-2.17-2.17-8.65-2.39-14.25-.62Z"/><path class="cls-27" d="m203.09,45.47c-2.45,0-4.44,2.6-4.44,5.81s1.99,5.81,4.44,5.81,4.44-2.6,4.44-5.81-1.99-5.81-4.44-5.81Z"/><path class="cls-27" d="m195.97,47.66c-1.42,0-2.57,1.88-2.57,4.21s1.15,4.21,2.57,4.21,2.57-1.88,2.57-4.21-1.15-4.21-2.57-4.21Z"/><path class="cls-27" d="m190.82,50.63c-1.18,0-2.14,1.57-2.14,3.5s.96,3.5,2.14,3.5,2.14-1.57,2.14-3.5-.95-3.5-2.14-3.5Z"/><path class="cls-27" d="m186.55,54.13c-.99,0-1.78,1.31-1.78,2.92s.8,2.92,1.78,2.92,1.78-1.31,1.78-2.92-.8-2.92-1.78-2.92Z"/><path class="cls-27" d="m182.52,57.63c-.99,0-1.78,1.31-1.78,2.92s.8,2.92,1.78,2.92,1.78-1.31,1.78-2.92-.8-2.92-1.78-2.92Z"/><path class="cls-16" d="m197.03,91.06c-.13.17-.1.42.07.55.17.13.41.1.55-.07.13-.17.1-.41-.06-.55-.17-.13-.42-.1-.55.07Z"/><path class="cls-16" d="m195.58,92.91c-.13.17-.1.42.06.55.17.13.42.1.55-.07.13-.17.1-.42-.07-.55-.17-.13-.42-.1-.55.07Z"/><path class="cls-16" d="m194.13,94.77c-.13.17-.1.41.07.55.17.13.42.1.55-.07.13-.17.1-.42-.07-.55-.17-.13-.41-.1-.55.07Z"/><path class="cls-16" d="m192.69,96.61c-.13.17-.11.41.06.55.17.13.42.1.55-.07.13-.17.1-.42-.07-.55-.17-.13-.41-.1-.54.07Z"/><path class="cls-16" d="m191.24,98.46c-.13.17-.1.42.07.55.17.13.41.1.55-.07.13-.17.1-.42-.07-.55-.17-.13-.42-.1-.55.07Z"/><path class="cls-16" d="m189.8,100.31c-.13.17-.11.41.06.55.17.13.41.1.55-.07.13-.17.1-.42-.07-.55-.17-.13-.41-.1-.54.07Z"/><path class="cls-16" d="m189.91,103.62c-.15.15-.17.38-.03.53.14.14.37.13.53-.02.15-.15.17-.39.03-.53-.14-.14-.37-.13-.53.02Z"/><path class="cls-16" d="m191.39,105.15c-.15.15-.17.38-.03.53.14.14.37.13.53-.02.15-.15.17-.38.03-.53-.14-.14-.37-.13-.53.02Z"/><path class="cls-16" d="m192.87,106.68c-.16.15-.17.38-.04.53.14.14.38.13.53-.02.15-.15.17-.39.03-.53-.14-.14-.37-.13-.53.02Z"/><path class="cls-16" d="m194.36,108.21c-.15.15-.17.38-.03.53.13.14.37.13.53-.02.15-.15.17-.38.03-.53-.14-.14-.37-.13-.53.02Z"/><path class="cls-16" d="m195.84,109.74c-.16.15-.17.38-.03.53.13.14.37.13.52-.02.15-.15.17-.38.03-.52-.13-.14-.37-.13-.52.02Z"/><path class="cls-16" d="m199.13,109.27c-.18-.11-.42-.06-.53.12-.11.18-.05.41.13.53.18.11.42.06.53-.12.11-.18.05-.42-.13-.53Z"/><path class="cls-16" d="m200.32,107.34c-.18-.11-.42-.06-.53.12-.11.18-.05.41.13.53.18.11.42.06.53-.12.11-.18.05-.42-.13-.53Z"/><path class="cls-16" d="m201.52,105.4c-.18-.11-.42-.06-.53.12-.11.18-.05.41.13.53.18.11.42.06.53-.12.11-.18.05-.41-.13-.53Z"/><path class="cls-16" d="m202.72,103.47c-.18-.11-.42-.06-.53.12-.11.18-.05.42.13.53.18.11.42.06.53-.12.11-.18.05-.42-.13-.53Z"/><path class="cls-16" d="m202.65,99.6c-.2.08-.3.31-.21.51.08.21.31.31.51.23.2-.08.29-.31.21-.52-.08-.21-.31-.31-.51-.23Z"/><path class="cls-16" d="m201.76,97.37c-.2.08-.3.31-.21.51.08.21.31.31.51.23.2-.08.3-.31.21-.52-.08-.21-.31-.31-.51-.23Z"/><path class="cls-16" d="m200.87,95.14c-.2.08-.29.31-.21.52.08.21.31.31.51.23.2-.08.3-.31.21-.52-.08-.21-.31-.31-.51-.23Z"/><path class="cls-16" d="m199.98,92.91c-.2.08-.3.31-.21.52.08.21.31.3.51.23.2-.08.3-.31.21-.51-.08-.21-.31-.31-.51-.23Z"/><path class="cls-16" d="m199.09,90.68c-.2.08-.29.31-.21.52.08.21.31.31.51.23.2-.08.3-.31.21-.52-.08-.21-.31-.31-.51-.23Z"/><path class="cls-16" d="m198.7,88.39c-.21-.04-.42.11-.45.33-.04.22.1.42.32.46.21.04.41-.11.45-.33.04-.22-.1-.42-.32-.46Z"/><path class="cls-16" d="m199.1,86.02c-.21-.04-.41.11-.45.33-.04.21.11.42.32.46.21.04.42-.11.45-.33.04-.22-.1-.43-.32-.46Z"/><path class="cls-16" d="m199.51,83.66c-.21-.04-.41.11-.45.33-.04.22.1.42.32.46.21.04.42-.11.45-.33.04-.22-.11-.42-.32-.46Z"/><path class="cls-16" d="m199.91,81.29c-.21-.04-.41.11-.45.33-.04.22.1.42.32.46.21.04.41-.11.45-.33.04-.22-.11-.42-.32-.46Z"/><path class="cls-16" d="m200.32,78.92c-.21-.04-.42.11-.45.33-.04.22.11.42.32.46.21.04.42-.11.45-.33.04-.22-.11-.42-.32-.46Z"/><path class="cls-16" d="m200.72,76.55c-.21-.04-.41.11-.45.33-.04.22.11.42.32.46.21.04.41-.11.45-.33.04-.21-.1-.42-.32-.46Z"/><path class="cls-16" d="m201.13,74.18c-.21-.03-.42.11-.45.33-.04.22.11.42.32.46.21.04.41-.11.45-.33.04-.22-.1-.42-.32-.46Z"/><path class="cls-16" d="m201.54,71.81c-.21-.04-.41.11-.45.33-.03.22.11.42.32.46.21.04.42-.11.45-.33.04-.22-.11-.42-.32-.46Z"/><path class="cls-16" d="m201.94,69.45c-.21-.04-.41.11-.45.33-.04.22.1.42.31.46.22.04.42-.11.46-.33.04-.22-.1-.42-.32-.46Z"/><path class="cls-16" d="m202.35,67.08c-.21-.04-.41.11-.45.33-.04.22.11.42.32.46.21.04.42-.11.45-.33.04-.22-.1-.43-.32-.46Z"/><path class="cls-16" d="m202.75,64.71c-.21-.04-.41.11-.45.33-.04.22.1.42.32.46.21.04.41-.11.45-.33.04-.22-.1-.42-.32-.46Z"/><path class="cls-16" d="m200.6,61.93c-.24-.04-.46.1-.5.31-.04.21.13.42.37.46.24.04.46-.1.5-.31.04-.21-.13-.42-.37-.46Z"/><path class="cls-16" d="m198,61.48c-.24-.04-.46.1-.5.31-.03.21.13.42.37.46.24.04.46-.1.5-.31.04-.21-.13-.42-.37-.46Z"/><path class="cls-16" d="m195.39,61.04c-.24-.04-.46.1-.5.31-.04.21.13.42.37.46.24.04.46-.1.5-.31s-.13-.42-.37-.46Z"/><path class="cls-16" d="m191.03,62.35c-.17.16-.18.42-.04.57.15.15.41.15.58-.01.17-.16.18-.42.03-.57-.15-.16-.41-.15-.57.01Z"/><path class="cls-16" d="m189.21,64.11c-.17.16-.18.42-.03.57.15.15.41.15.57-.02.17-.16.18-.42.04-.57-.15-.15-.41-.15-.58.01Z"/><path class="cls-16" d="m187.38,65.88c-.17.16-.18.42-.04.57.15.16.41.15.58-.01.17-.16.18-.42.04-.57-.15-.15-.41-.15-.58.01Z"/><path class="cls-16" d="m185.55,67.64c-.17.16-.18.42-.03.57.15.16.41.15.58-.01.17-.16.18-.42.03-.58-.15-.16-.41-.15-.58.01Z"/><path class="cls-16" d="m193.11,62.46c-.21.02-.37.2-.35.4.02.2.21.34.42.32.21-.02.37-.2.35-.4-.02-.2-.21-.34-.42-.32Z"/><path class="cls-16" d="m193.32,64.62c-.21.02-.37.2-.35.4.02.2.21.34.42.32.21-.02.38-.2.35-.4-.02-.2-.21-.34-.42-.32Z"/><path class="cls-16" d="m193.53,66.77c-.21.02-.37.2-.35.4.02.2.21.34.42.32.21-.02.37-.2.35-.4-.02-.2-.21-.34-.42-.32Z"/><path class="cls-16" d="m193.74,68.93c-.21.02-.37.2-.35.4.02.2.21.34.42.32.21-.02.37-.2.35-.4-.02-.2-.21-.34-.42-.32Z"/><path class="cls-16" d="m195.86,69.51c-.17.17-.18.43-.03.58.15.15.41.13.58-.03.17-.17.18-.43.02-.58-.15-.15-.41-.14-.58.03Z"/><path class="cls-16" d="m197.67,67.67c-.17.17-.18.43-.03.58.16.15.41.14.58-.03.17-.17.18-.43.02-.58-.15-.15-.41-.14-.58.03Z"/><path class="cls-16" d="m199.49,65.84c-.17.17-.18.43-.03.58.15.15.41.13.58-.04.17-.17.18-.43.03-.58-.15-.15-.41-.13-.58.04Z"/><path class="cls-16" d="m201.3,64c-.17.17-.18.43-.03.58.15.15.41.14.58-.03.17-.17.18-.43.03-.58-.15-.15-.41-.14-.58.03Z"/><path class="cls-16" d="m186.84,70.15c-.22-.06-.44.06-.5.26-.06.21.07.43.28.49.22.06.44-.05.5-.26.06-.2-.07-.42-.28-.49Z"/><path class="cls-16" d="m189.19,70.84c-.22-.06-.44.05-.5.26-.06.2.07.42.28.49.22.07.44-.05.5-.26.06-.2-.07-.42-.28-.49Z"/><path class="cls-16" d="m191.54,71.53c-.22-.06-.44.05-.5.26-.06.21.07.42.28.49.22.07.44-.05.5-.26.06-.21-.07-.43-.28-.49Z"/><path class="cls-16" d="m184.66,71.59c-.21.05-.34.26-.29.49.05.22.26.37.47.33.21-.05.34-.26.29-.49-.05-.23-.26-.37-.47-.33Z"/><path class="cls-16" d="m185.19,74.05c-.21.04-.34.27-.29.49.05.23.26.37.47.33.21-.05.34-.27.29-.49-.05-.22-.26-.37-.47-.33Z"/><path class="cls-16" d="m185.73,76.5c-.21.04-.34.27-.29.49.05.23.26.37.47.33.21-.04.34-.26.29-.49-.05-.23-.26-.37-.47-.33Z"/><path class="cls-16" d="m186.26,78.95c-.21.04-.34.27-.29.49.05.22.26.37.47.33.21-.05.34-.27.29-.49-.05-.23-.26-.37-.47-.33Z"/><path class="cls-16" d="m186.79,81.4c-.21.05-.34.27-.29.49.05.22.26.37.47.33.21-.04.34-.27.29-.49-.05-.23-.26-.37-.47-.33Z"/><path class="cls-16" d="m189.58,84.72c-.21-.11-.45-.03-.55.16-.1.19,0,.43.2.54.21.11.45.03.55-.16.09-.19,0-.43-.2-.54Z"/><path class="cls-16" d="m191.83,85.86c-.21-.11-.45-.04-.55.16-.1.19,0,.43.2.53.21.11.45.03.55-.16.1-.19,0-.43-.2-.53Z"/><path class="cls-16" d="m194.08,86.99c-.21-.1-.45-.03-.55.16-.1.19,0,.43.2.54.21.1.46.03.55-.16.1-.19,0-.43-.2-.54Z"/><path class="cls-16" d="m196.33,88.13c-.21-.1-.45-.03-.55.16-.1.19,0,.43.2.53.21.11.45.03.55-.16.1-.19,0-.43-.2-.54Z"/><path class="cls-16" d="m193.17,74.39c-.18-.11-.42-.07-.52.1-.11.17-.05.4.13.52.18.12.41.07.52-.09.11-.17.05-.4-.13-.52Z"/><path class="cls-16" d="m191.99,76.22c-.18-.12-.42-.07-.53.09-.11.17-.05.4.13.52.18.11.42.07.52-.1.11-.17.05-.4-.13-.52Z"/><path class="cls-16" d="m190.81,78.06c-.18-.11-.42-.07-.52.1-.11.17-.05.4.13.52.18.11.42.07.52-.1.11-.17.05-.4-.13-.52Z"/><path class="cls-16" d="m189.63,79.89c-.18-.12-.42-.07-.53.09-.11.17-.05.4.13.52.18.12.41.07.53-.09.11-.17.05-.4-.13-.52Z"/><path class="cls-16" d="m188.44,81.73c-.18-.12-.42-.07-.53.1-.11.17-.05.4.13.52.18.12.42.07.52-.1.11-.17.05-.4-.13-.52Z"/><path class="cls-16" d="m194.43,74.4c-.21.05-.33.27-.28.49.05.22.27.35.48.3.21-.05.33-.27.28-.49-.06-.22-.27-.35-.48-.3Z"/><path class="cls-16" d="m195.03,76.77c-.21.05-.33.27-.28.49.06.22.27.35.48.3.21-.05.33-.27.28-.49-.06-.22-.27-.35-.48-.3Z"/><path class="cls-16" d="m195.63,79.14c-.21.05-.33.27-.28.49.05.22.27.35.48.3.21-.05.33-.27.28-.49-.06-.22-.27-.35-.48-.3Z"/><path class="cls-16" d="m196.23,81.51c-.21.05-.33.27-.28.49.05.22.27.35.48.3.21-.05.33-.27.28-.49-.06-.22-.27-.35-.48-.3Z"/><path class="cls-16" d="m196.83,83.88c-.21.05-.33.27-.28.49.06.22.27.35.48.3.21-.05.33-.27.28-.49-.06-.22-.27-.35-.48-.3Z"/><path class="cls-16" d="m197.43,86.25c-.21.05-.33.27-.28.49.05.22.27.35.48.3.21-.05.33-.27.28-.49-.06-.22-.27-.35-.48-.3Z"/><path class="cls-16" d="m194.03,71.14c-.74,0-1.34.6-1.34,1.34s.6,1.34,1.34,1.34,1.34-.6,1.34-1.34-.6-1.34-1.34-1.34Z"/><path class="cls-16" d="m184.77,68.62c-.74,0-1.34.6-1.34,1.34s.6,1.34,1.34,1.34,1.34-.6,1.34-1.34-.6-1.34-1.34-1.34Z"/><path class="cls-16" d="m193.4,59.69c-.74,0-1.34.6-1.34,1.34s.6,1.34,1.34,1.34,1.34-.6,1.34-1.34-.6-1.34-1.34-1.34Z"/><path class="cls-16" d="m203.27,49.29c-.74,0-1.34.6-1.34,1.34s.6,1.34,1.34,1.34,1.34-.6,1.34-1.34-.6-1.34-1.34-1.34Z"/><path class="cls-16" d="m202.56,61.69c-.74,0-1.34.6-1.34,1.34s.6,1.34,1.34,1.34,1.34-.6,1.34-1.34-.6-1.34-1.34-1.34Z"/><path class="cls-16" d="m198.43,88.08c-.74,0-1.34.6-1.34,1.34s.6,1.34,1.34,1.34,1.34-.6,1.34-1.34-.6-1.34-1.34-1.34Z"/><path class="cls-16" d="m187.74,82.23c-.74,0-1.34.6-1.34,1.34s.6,1.34,1.34,1.34,1.34-.6,1.34-1.34-.6-1.34-1.34-1.34Z"/><path class="cls-16" d="m189.57,101.14c-.74,0-1.34.6-1.34,1.34s.6,1.34,1.34,1.34,1.34-.6,1.34-1.34-.6-1.34-1.34-1.34Z"/><path class="cls-16" d="m197.37,109.43c-.74,0-1.34.6-1.34,1.34s.6,1.34,1.34,1.34,1.34-.6,1.34-1.34-.6-1.34-1.34-1.34Z"/><path class="cls-16" d="m203.27,100.55c-.74,0-1.34.6-1.34,1.34s.6,1.34,1.34,1.34,1.34-.6,1.34-1.34-.6-1.34-1.34-1.34Z"/><path class="cls-16" d="m188.88,98.78c-.21.02-.37.21-.35.44.02.23.21.39.42.38.22-.02.38-.22.36-.44-.02-.23-.21-.39-.42-.38Z"/><path class="cls-16" d="m188.68,96.33c-.21.02-.37.21-.35.44.02.23.21.39.42.38.21-.02.38-.21.36-.44-.02-.23-.21-.4-.42-.38Z"/><path class="cls-16" d="m188.48,93.89c-.21.02-.37.21-.35.44.02.23.21.39.42.37.21-.02.38-.21.36-.44-.02-.23-.21-.39-.42-.37Z"/><path class="cls-16" d="m188.28,91.43c-.21.02-.37.21-.35.44.02.23.21.39.42.38.21-.02.38-.21.36-.44-.02-.22-.21-.39-.42-.38Z"/><path class="cls-16" d="m188.08,88.99c-.21.02-.37.21-.35.44.02.22.21.39.42.37.21-.02.38-.21.36-.44-.02-.23-.21-.4-.42-.38Z"/><path class="cls-16" d="m187.88,86.54c-.21.02-.37.21-.35.44.02.23.21.39.42.38.21-.02.37-.22.36-.44-.02-.22-.21-.39-.42-.37Z"/><path class="cls-27" d="m226.59,57.66c-5.61-1.77-12.09-1.55-14.26.62-2.44,2.44-2.56,6.2-2.27,9.71.28,3.4,2.58,14.26,3.31,18.59.72,4.34-1.76,13.43-2.27,17.87-.52,4.44.95,9.33,8.39,10.36,6.5.9,10.18-4.48,11.09-8.67.77-3.58,1.3-11.23,2.11-18.22.5-4.33,3.26-10.93,4.16-14.77.46-1.95.55-5.79-.88-8.33-1.11-1.98-5.45-5.93-9.38-7.17Z"/><path class="cls-27" d="m214.49,45.47c-2.45,0-4.44,2.6-4.44,5.81s1.99,5.81,4.44,5.81,4.44-2.6,4.44-5.81-1.99-5.81-4.44-5.81Z"/><path class="cls-27" d="m221.61,47.66c-1.42,0-2.57,1.88-2.57,4.21s1.15,4.21,2.57,4.21,2.57-1.88,2.57-4.21-1.15-4.21-2.57-4.21Z"/><path class="cls-27" d="m226.75,50.63c-1.18,0-2.14,1.57-2.14,3.5s.96,3.5,2.14,3.5,2.14-1.57,2.14-3.5-.96-3.5-2.14-3.5Z"/><ellipse class="cls-27" cx="231.03" cy="57.05" rx="1.78" ry="2.92"/><path class="cls-27" d="m235.06,57.63c-.99,0-1.78,1.31-1.78,2.92s.8,2.92,1.78,2.92,1.78-1.31,1.78-2.92-.8-2.92-1.78-2.92Z"/><path class="cls-16" d="m220,91c-.17.13-.2.38-.07.55.13.17.38.2.55.07.17-.13.2-.38.07-.55-.13-.17-.38-.2-.55-.07Z"/><path class="cls-16" d="m221.45,92.85c-.17.13-.2.38-.07.55.13.17.38.2.55.07.17-.13.2-.38.06-.55-.13-.17-.38-.2-.54-.07Z"/><path class="cls-16" d="m222.9,94.7c-.17.13-.2.38-.07.55.13.17.38.2.55.07.17-.13.2-.38.06-.55-.13-.17-.38-.2-.55-.07Z"/><path class="cls-16" d="m224.34,96.54c-.17.13-.2.38-.07.55.13.17.38.2.55.07.17-.13.2-.38.06-.55-.13-.17-.38-.2-.55-.07Z"/><path class="cls-16" d="m225.79,98.39c-.17.13-.2.38-.07.55.13.17.38.2.55.07.17-.13.2-.38.06-.55-.13-.17-.38-.2-.55-.07Z"/><path class="cls-16" d="m227.24,100.24c-.17.13-.2.38-.07.55.13.17.38.2.55.07.17-.13.2-.38.07-.55-.13-.17-.38-.2-.54-.07Z"/><path class="cls-16" d="m227.14,103.61c-.14.14-.12.38.03.53.15.15.39.15.53.01.14-.14.12-.38-.03-.53-.15-.15-.39-.16-.53-.02Z"/><path class="cls-16" d="m225.66,105.14c-.14.14-.12.38.03.53.15.15.39.16.53.02.14-.14.12-.38-.03-.53-.16-.15-.39-.16-.53-.02Z"/><path class="cls-16" d="m224.18,106.67c-.14.14-.12.38.03.53.15.15.39.16.53.02.14-.14.12-.38-.03-.53-.16-.15-.39-.16-.53-.02Z"/><path class="cls-16" d="m222.7,108.2c-.13.14-.12.38.03.53.16.15.39.15.53.01.14-.14.12-.38-.03-.53-.16-.15-.39-.16-.53-.02Z"/><path class="cls-16" d="m221.21,109.73c-.14.14-.12.38.03.53.16.15.39.15.53.02.14-.14.12-.38-.03-.53-.16-.15-.39-.16-.53-.02Z"/><path class="cls-16" d="m218.45,109.27c-.18.11-.24.35-.13.53.11.18.35.23.53.12.18-.11.24-.35.13-.53-.11-.18-.35-.23-.53-.12Z"/><path class="cls-16" d="m217.26,107.34c-.18.11-.24.35-.13.53.11.18.35.23.53.12.18-.11.24-.35.13-.53-.11-.18-.35-.23-.53-.12Z"/><path class="cls-16" d="m216.06,105.4c-.18.11-.24.35-.13.53.11.18.35.23.53.12.18-.11.24-.35.13-.53-.11-.18-.35-.23-.53-.12Z"/><path class="cls-16" d="m214.86,103.47c-.18.11-.24.35-.13.53.11.18.35.23.53.12.18-.11.24-.35.13-.53-.11-.18-.35-.23-.53-.12Z"/><path class="cls-16" d="m214.92,99.6c-.2-.08-.43.02-.51.23-.08.21.01.44.21.52.2.08.43-.02.51-.23.08-.2-.01-.44-.21-.52Z"/><path class="cls-16" d="m215.82,97.37c-.2-.08-.43.02-.51.23-.08.2.01.44.21.52.2.08.43-.02.51-.23.08-.2-.01-.44-.21-.51Z"/><path class="cls-16" d="m216.71,95.14c-.2-.08-.43.02-.51.23-.08.21.01.44.21.52.2.08.43-.02.51-.23.08-.21-.01-.43-.21-.52Z"/><path class="cls-16" d="m217.6,92.91c-.2-.08-.42.02-.51.23-.08.2.01.44.21.51.2.08.43-.02.51-.23.08-.21-.01-.44-.22-.52Z"/><path class="cls-16" d="m218.49,90.68c-.2-.08-.43.02-.51.23-.08.2.01.44.21.52.2.08.43-.02.51-.23.08-.21-.01-.44-.21-.52Z"/><path class="cls-16" d="m218.88,88.39c-.21.04-.35.24-.32.46.04.22.24.37.45.33.21-.04.35-.24.32-.46-.04-.22-.24-.37-.45-.33Z"/><path class="cls-16" d="m218.48,86.02c-.21.03-.36.24-.32.46.04.22.24.36.45.33.21-.04.36-.24.32-.46-.04-.22-.24-.37-.45-.33Z"/><path class="cls-16" d="m218.07,83.66c-.21.04-.35.24-.32.46.04.22.24.37.45.33.21-.04.35-.24.32-.46-.04-.22-.24-.37-.45-.33Z"/><path class="cls-16" d="m217.66,81.29c-.21.04-.35.24-.32.46.04.22.24.36.45.33.21-.04.36-.24.32-.46-.04-.22-.24-.37-.45-.33Z"/><path class="cls-16" d="m217.26,78.92c-.21.04-.35.24-.32.46.04.22.24.37.45.33.21-.04.35-.24.31-.46-.04-.22-.24-.37-.45-.33Z"/><path class="cls-16" d="m216.85,76.55c-.21.04-.35.24-.32.46.04.22.24.37.45.33.21-.04.35-.24.32-.46-.04-.22-.24-.36-.45-.33Z"/><path class="cls-16" d="m216.45,74.18c-.21.04-.35.24-.32.46.04.22.24.37.45.33.21-.03.35-.24.32-.46-.04-.22-.24-.37-.45-.33Z"/><path class="cls-16" d="m216.04,71.81c-.21.04-.35.24-.32.46.04.22.24.36.45.33.21-.04.35-.24.32-.46-.04-.22-.24-.37-.45-.33Z"/><path class="cls-16" d="m215.64,69.45c-.21.04-.35.24-.32.46.04.22.24.37.45.33.21-.04.36-.24.32-.46-.04-.22-.24-.37-.45-.33Z"/><path class="cls-16" d="m215.23,67.08c-.21.04-.35.24-.31.46.04.22.24.36.45.33.21-.04.35-.24.32-.46-.04-.22-.24-.37-.45-.33Z"/><path class="cls-16" d="m214.83,64.71c-.21.04-.36.24-.32.46.04.22.24.37.45.33.21-.04.35-.24.32-.46-.04-.22-.24-.37-.45-.33Z"/><path class="cls-16" d="m216.98,61.93c-.24.04-.41.25-.37.46.04.21.26.35.5.31.24-.04.41-.25.37-.46-.04-.21-.26-.35-.5-.31Z"/><path class="cls-16" d="m219.58,61.48c-.24.04-.4.25-.37.46.04.21.26.35.5.31.24-.04.4-.25.37-.46-.04-.21-.26-.35-.5-.31Z"/><path class="cls-16" d="m222.19,61.04c-.24.04-.4.25-.37.46.04.21.26.35.5.31.24-.04.41-.25.37-.46-.04-.21-.26-.35-.5-.31Z"/><path class="cls-16" d="m225.97,62.34c-.15.16-.13.41.04.58.17.16.43.17.58.01.15-.15.14-.41-.04-.57-.17-.16-.43-.17-.58-.02Z"/><path class="cls-16" d="m227.8,64.1c-.15.16-.13.41.04.57.17.16.42.17.57.02.15-.16.13-.41-.04-.57-.17-.16-.42-.17-.57-.01Z"/><path class="cls-16" d="m229.62,65.86c-.15.16-.13.41.03.57.17.17.43.17.57.01.15-.15.13-.41-.03-.57-.17-.16-.42-.17-.57-.02Z"/><path class="cls-16" d="m231.45,67.62c-.15.15-.14.41.03.58.17.16.42.17.57.01.15-.15.13-.41-.03-.57-.17-.16-.43-.17-.58-.01Z"/><path class="cls-16" d="m224.47,62.46c-.21-.02-.4.12-.42.32-.02.2.14.38.35.4.21.02.41-.12.42-.32.02-.2-.14-.38-.35-.4Z"/><path class="cls-16" d="m224.26,64.62c-.21-.02-.4.12-.42.32-.02.2.14.38.35.4.21.02.4-.12.42-.32.02-.2-.14-.38-.35-.4Z"/><path class="cls-16" d="m224.05,66.77c-.21-.02-.41.13-.42.32-.02.2.14.38.35.4.22.02.4-.12.42-.32.02-.2-.14-.38-.35-.4Z"/><path class="cls-16" d="m223.84,68.93c-.21-.02-.4.12-.42.32-.02.2.14.38.35.4.21.02.4-.12.42-.32.02-.2-.14-.38-.35-.4Z"/><path class="cls-16" d="m221.14,69.48c-.15.15-.14.41.03.58.17.17.43.19.58.03.15-.15.14-.41-.03-.58-.17-.17-.43-.18-.58-.03Z"/><path class="cls-16" d="m219.33,67.64c-.15.15-.14.41.03.58.17.17.43.18.58.03.15-.15.14-.41-.03-.58-.17-.17-.43-.18-.58-.03Z"/><path class="cls-16" d="m217.51,65.81c-.15.15-.14.41.03.58.17.17.43.19.58.04.15-.15.14-.41-.03-.58-.17-.17-.43-.19-.58-.03Z"/><path class="cls-16" d="m215.7,63.97c-.15.15-.14.41.03.58.17.17.43.18.58.03.15-.15.14-.41-.03-.58-.17-.17-.43-.18-.58-.03Z"/><path class="cls-16" d="m230.74,70.15c-.22.07-.34.28-.28.49.06.21.28.32.5.26.21-.06.34-.28.28-.49-.06-.21-.29-.32-.5-.26Z"/><path class="cls-16" d="m228.39,70.84c-.22.07-.34.29-.28.49.06.21.28.32.5.26.22-.06.34-.28.29-.49-.06-.21-.29-.32-.5-.26Z"/><path class="cls-16" d="m226.03,71.53c-.22.06-.34.28-.28.49.06.21.28.32.5.26.22-.06.34-.28.28-.49-.06-.21-.29-.32-.5-.26Z"/><path class="cls-16" d="m232.92,71.59c-.21-.05-.42.1-.47.33-.05.23.08.45.29.49.21.05.42-.1.47-.33.05-.23-.08-.45-.29-.49Z"/><path class="cls-16" d="m232.38,74.05c-.21-.05-.42.1-.47.33-.05.22.08.45.29.49.21.05.42-.1.47-.33.05-.23-.08-.45-.29-.49Z"/><path class="cls-16" d="m231.85,76.5c-.21-.04-.42.1-.47.33-.05.23.08.45.29.49.21.05.42-.1.47-.33.05-.23-.08-.45-.29-.49Z"/><path class="cls-16" d="m231.32,78.95c-.21-.05-.42.1-.47.33-.05.22.08.44.29.49.21.04.42-.1.47-.33.05-.23-.08-.45-.29-.49Z"/><path class="cls-16" d="m230.79,81.4c-.21-.04-.42.1-.47.33-.05.22.08.45.29.49.21.05.42-.1.47-.33.05-.23-.08-.45-.29-.49Z"/><path class="cls-16" d="m228,84.72c-.2.1-.3.34-.2.54.1.19.34.26.55.16.21-.1.3-.35.2-.54-.09-.19-.34-.26-.55-.16Z"/><path class="cls-16" d="m225.75,85.86c-.21.1-.3.34-.2.53.09.19.34.26.55.16.21-.1.3-.34.2-.53-.1-.19-.34-.26-.55-.16Z"/><path class="cls-16" d="m223.5,86.99c-.21.11-.3.35-.2.54.1.19.34.26.55.16.21-.1.29-.35.2-.54-.09-.19-.34-.26-.55-.16Z"/><path class="cls-16" d="m221.25,88.13c-.21.1-.3.34-.2.54.1.19.34.26.55.16.21-.1.29-.35.2-.53-.1-.19-.34-.26-.55-.16Z"/><path class="cls-16" d="m224.4,74.39c-.18.12-.24.35-.13.52.11.17.34.21.52.09.18-.12.24-.35.13-.52-.11-.17-.34-.21-.53-.1Z"/><path class="cls-16" d="m225.59,76.22c-.18.11-.24.35-.13.52.11.17.34.21.52.1.18-.12.24-.35.13-.52-.11-.17-.34-.21-.52-.09Z"/><path class="cls-16" d="m226.77,78.06c-.18.12-.24.35-.13.52.11.17.34.21.52.1.18-.11.24-.35.13-.52-.11-.17-.35-.21-.52-.1Z"/><path class="cls-16" d="m227.95,79.89c-.18.11-.24.35-.13.52.11.17.35.21.53.09.18-.11.24-.34.13-.51-.11-.17-.34-.21-.52-.09Z"/><path class="cls-16" d="m229.14,81.73c-.18.12-.24.35-.13.52.11.17.34.21.53.1.18-.12.24-.35.13-.52-.11-.17-.34-.21-.52-.1Z"/><path class="cls-16" d="m223.14,74.4c-.21-.05-.42.08-.48.3-.06.22.07.44.28.49.21.05.42-.08.48-.3.06-.22-.07-.44-.28-.49Z"/><path class="cls-16" d="m222.55,76.77c-.21-.05-.42.08-.48.3-.05.22.07.44.28.49.21.05.42-.08.48-.3.05-.22-.07-.44-.28-.49Z"/><path class="cls-16" d="m221.95,79.14c-.21-.06-.42.08-.48.3-.06.22.07.44.28.49.21.05.42-.08.48-.3.06-.22-.07-.44-.28-.49Z"/><path class="cls-16" d="m221.35,81.51c-.21-.05-.42.08-.48.3-.06.22.07.44.28.49.21.05.42-.08.48-.3.05-.22-.07-.44-.28-.49Z"/><path class="cls-16" d="m220.75,83.88c-.21-.05-.42.08-.48.3-.05.22.07.44.28.49.21.05.42-.08.48-.3.05-.22-.07-.44-.28-.49Z"/><path class="cls-16" d="m220.15,86.25c-.21-.05-.42.08-.48.3-.06.22.07.44.28.49.21.06.42-.08.48-.3.06-.22-.07-.44-.28-.49Z"/><path class="cls-16" d="m223.54,71.14c-.74,0-1.34.6-1.34,1.34s.6,1.34,1.34,1.34,1.34-.6,1.34-1.34-.6-1.34-1.34-1.34Z"/><path class="cls-16" d="m232.81,68.62c-.74,0-1.34.6-1.34,1.34s.6,1.34,1.34,1.34,1.34-.6,1.34-1.34-.6-1.34-1.34-1.34Z"/><path class="cls-16" d="m224.18,59.69c-.74,0-1.34.6-1.34,1.34s.6,1.34,1.34,1.34,1.34-.6,1.34-1.34-.6-1.34-1.34-1.34Z"/><path class="cls-16" d="m215.02,61.69c-.74,0-1.34.6-1.34,1.34s.6,1.34,1.34,1.34,1.34-.6,1.34-1.34-.6-1.34-1.34-1.34Z"/><path class="cls-16" d="m219.15,88.08c-.74,0-1.34.6-1.34,1.34s.6,1.34,1.34,1.34,1.34-.6,1.34-1.34-.6-1.34-1.34-1.34Z"/><path class="cls-16" d="m229.83,82.23c-.74,0-1.34.6-1.34,1.34s.6,1.34,1.34,1.34,1.34-.6,1.34-1.34-.6-1.34-1.34-1.34Z"/><path class="cls-16" d="m228.01,101.14c-.74,0-1.34.6-1.34,1.34s.6,1.34,1.34,1.34,1.34-.6,1.34-1.34-.6-1.34-1.34-1.34Z"/><path class="cls-16" d="m220.21,109.43c-.74,0-1.34.6-1.34,1.34s.6,1.34,1.34,1.34,1.34-.6,1.34-1.34-.6-1.34-1.34-1.34Z"/><path class="cls-16" d="m214.31,100.55c-.74,0-1.34.6-1.34,1.34s.6,1.34,1.34,1.34,1.34-.6,1.34-1.34-.6-1.34-1.34-1.34Z"/><path class="cls-16" d="m228.7,98.78c-.21-.02-.4.15-.42.38-.02.22.14.42.35.44.21.02.4-.15.42-.38.02-.23-.14-.42-.36-.44Z"/><path class="cls-16" d="m228.9,96.33c-.21-.02-.4.15-.42.38-.02.22.14.42.35.44.21.02.4-.15.42-.38.02-.22-.14-.42-.36-.44Z"/><path class="cls-16" d="m229.1,93.89c-.21-.02-.4.15-.42.37s.14.42.35.44c.21.02.4-.15.42-.37.02-.23-.14-.42-.36-.44Z"/><path class="cls-16" d="m229.3,91.43c-.21-.02-.4.15-.42.38-.02.23.14.42.35.44.22.02.4-.15.42-.38.02-.22-.14-.42-.36-.44Z"/><path class="cls-16" d="m229.5,88.99c-.21-.02-.4.15-.42.38-.02.23.14.42.36.44.22.02.4-.15.42-.37.02-.23-.14-.42-.35-.44Z"/><path class="cls-16" d="m229.7,86.54c-.22-.02-.4.15-.42.37-.02.23.14.42.35.44.21.02.4-.15.42-.38.02-.23-.14-.42-.35-.44Z"/><path class="cls-16" d="m213.96,49.29c-.74,0-1.34.6-1.34,1.34s.6,1.34,1.34,1.34,1.34-.6,1.34-1.34-.6-1.34-1.34-1.34Z"/><path class="cls-27" d="m106.99,17.57c-2.1-.57-5.53,12.29-7.07,11.31-1.79-1.13,3.42-18.23,0-18.86-3.11-.57-3.63,17.25-5.85,17.25-1.7,0,.47-19.43-2.55-19.43-3.49,0-1.7,19.91-3.58,20-1.24.06-2.2-8.58-2.45-10.46-.25-1.89-.75-6.32-2.45-5.94-1.7.38-1.32,4.15-1.23,6.32.09,2.17.94,8.86.94,10.94s.28,9.8-2.17,9.99c-2.45.19-4.34-4.57-8.3-5.82-1.77-.56-4.53,1.01-3.87,2.04.66,1.04,4.53,3.21,5.85,4.53,1.32,1.32,4.34,6.79,5.28,8.48.94,1.7,3.47,2.4,5.47,3.49,1.04.57,2.68,25.82,2.68,25.82h15.74s-3.15-26.48-2.2-27.8c.94-1.32,2.13-10.99,2.17-12.22.28-9.24,6.04-18.98,3.58-19.64Z"/><path class="cls-16" d="m82.52,42.72c-.15-.05-.3.05-.35.2-.05.16.03.32.18.36.15.04.3-.05.35-.2.05-.16-.04-.32-.18-.36Z"/><path class="cls-16" d="m83.03,41.02c-.15-.04-.3.05-.35.2-.05.16.03.32.18.36.15.04.3-.05.35-.21.05-.16-.04-.32-.18-.36Z"/><path class="cls-16" d="m83.54,39.32c-.14-.04-.3.05-.35.2-.05.16.03.32.18.36.15.04.31-.05.35-.2.05-.16-.04-.32-.18-.36Z"/><path class="cls-16" d="m84.05,37.63c-.15-.04-.3.05-.35.2-.05.16.03.32.18.36.15.04.3-.05.35-.2.05-.16-.03-.32-.18-.36Z"/><path class="cls-16" d="m84.56,35.93c-.15-.04-.3.05-.35.2-.05.16.04.32.18.36.15.05.3-.05.35-.2.05-.16-.04-.32-.18-.36Z"/><path class="cls-16" d="m85.07,34.23c-.15-.04-.3.05-.35.2-.05.16.03.32.18.36.15.04.3-.05.35-.2.05-.16-.03-.32-.18-.36Z"/><path class="cls-16" d="m85.58,32.53c-.15-.04-.3.05-.35.2-.05.16.03.32.18.36.15.04.31-.05.35-.2.04-.16-.04-.32-.18-.36Z"/><path class="cls-16" d="m87.41,30.74c-.14.02-.25.16-.22.31.02.15.15.26.3.24.14-.02.24-.16.22-.31-.02-.15-.16-.26-.3-.24Z"/><path class="cls-16" d="m88.99,30.52c-.14.02-.24.16-.22.31.02.15.16.26.3.24.15-.02.24-.16.22-.31-.02-.15-.16-.26-.3-.24Z"/><path class="cls-16" d="m90.56,30.29c-.14.02-.24.16-.22.31.02.15.16.26.3.24.14-.02.24-.16.22-.31-.02-.15-.16-.26-.3-.24Z"/><path class="cls-16" d="m92.18,30.25c-.15,0-.26.13-.26.28s.12.28.26.28.27-.12.27-.28-.12-.28-.27-.28Z"/><path class="cls-16" d="m93.77,30.25c-.15,0-.26.13-.26.28s.12.28.26.28.27-.12.27-.28-.12-.28-.27-.28Z"/><path class="cls-16" d="m95.36,30.25c-.15,0-.26.13-.26.28s.12.28.26.28.27-.12.27-.28-.12-.28-.27-.28Z"/><path class="cls-16" d="m96.99,30.6c-.13-.06-.29,0-.36.14-.07.14-.01.3.12.37.13.06.29,0,.36-.14.07-.14.01-.3-.12-.37Z"/><path class="cls-16" d="m98.43,31.28c-.13-.06-.29,0-.36.14-.07.14-.01.3.12.36.13.06.29,0,.36-.14s.01-.3-.12-.37Z"/><path class="cls-16" d="m99.86,31.97c-.13-.06-.29,0-.36.14-.07.14-.01.3.12.37.13.06.29,0,.36-.14.07-.14.01-.3-.12-.36Z"/><path class="cls-16" d="m100.94,34.21c-.15-.02-.29.09-.31.25-.02.16.09.3.24.32.15.02.29-.09.31-.25.02-.16-.09-.3-.24-.32Z"/><path class="cls-16" d="m100.72,35.9c-.15-.02-.29.09-.31.25-.02.16.09.3.24.32.15.02.29-.09.31-.25.02-.16-.09-.3-.24-.32Z"/><path class="cls-16" d="m100.5,37.59c-.15-.02-.29.09-.31.25-.02.16.09.3.24.32.15.02.29-.09.31-.25.02-.16-.09-.3-.24-.32Z"/><path class="cls-16" d="m100.27,39.28c-.15-.02-.29.09-.31.25-.02.15.08.3.24.32.15.02.29-.09.31-.25.02-.16-.09-.3-.24-.32Z"/><path class="cls-16" d="m100.05,40.97c-.15-.02-.29.09-.31.25-.02.15.09.3.24.32.15.02.29-.09.31-.25.02-.16-.09-.3-.24-.32Z"/><path class="cls-16" d="m99.83,42.66c-.15-.02-.29.09-.31.24-.02.16.09.3.24.32.15.02.29-.09.31-.25.02-.16-.09-.3-.24-.32Z"/><path class="cls-16" d="m99.61,44.35c-.15-.02-.29.09-.31.25-.02.16.09.3.24.32.15.02.29-.09.31-.25.02-.16-.09-.3-.24-.32Z"/><path class="cls-16" d="m99.39,46.04c-.15-.02-.29.09-.31.25-.02.16.09.3.24.32.15.02.29-.09.31-.25.02-.16-.09-.3-.24-.32Z"/><path class="cls-16" d="m98.57,47.64c-.11.11-.11.29,0,.4.11.11.29.1.4-.01.11-.11.11-.29,0-.4-.11-.11-.29-.1-.4.01Z"/><path class="cls-16" d="m97.39,48.87c-.11.11-.11.29,0,.4.11.11.29.1.4-.01.11-.11.11-.29,0-.4-.11-.11-.29-.1-.4,0Z"/><path class="cls-16" d="m96.21,50.09c-.11.11-.11.29,0,.4.11.11.29.1.4-.01.11-.11.11-.29,0-.4-.11-.11-.29-.1-.4.01Z"/><path class="cls-16" d="m95.02,51.32c-.11.12-.11.29,0,.4.11.11.29.1.4-.01.11-.12.11-.29,0-.4-.11-.11-.29-.1-.4,0Z"/><path class="cls-16" d="m93.84,52.54c-.11.11-.11.29,0,.4.11.11.29.1.4-.01.11-.11.11-.29,0-.4-.11-.11-.29-.1-.4,0Z"/><path class="cls-16" d="m91.45,52.73c-.1.12-.09.29.02.39.11.1.29.08.38-.04.1-.12.09-.29-.02-.39-.11-.1-.28-.08-.38.04Z"/><path class="cls-16" d="m90.23,51.68c-.1.12-.09.29.02.38.11.1.28.08.38-.04s.09-.29-.02-.39c-.11-.09-.29-.08-.38.04Z"/><path class="cls-16" d="m89.01,50.64c-.1.12-.09.29.02.39.11.09.29.08.38-.04.1-.12.09-.29-.02-.39-.11-.1-.28-.08-.38.04Z"/><path class="cls-16" d="m87.79,49.59c-.1.12-.09.29.02.39.11.1.28.08.38-.04.1-.12.09-.29-.02-.39-.11-.09-.29-.08-.39.04Z"/><path class="cls-16" d="m86.57,48.55c-.1.12-.09.29.02.38.11.09.28.08.38-.04.1-.12.09-.29-.02-.38-.11-.1-.29-.08-.38.04Z"/><path class="cls-16" d="m85.35,47.5c-.1.12-.09.29.02.38.11.1.28.08.38-.04.1-.12.09-.29-.02-.39-.11-.1-.28-.08-.38.04Z"/><path class="cls-16" d="m84.13,46.45c-.1.12-.09.29.02.39.11.1.29.08.38-.04.1-.12.09-.29-.02-.38-.11-.1-.28-.08-.38.04Z"/><path class="cls-16" d="m82.91,45.41c-.1.12-.09.29.02.38.11.1.29.08.38-.04.1-.12.09-.29-.02-.38-.11-.1-.28-.08-.38.04Z"/><path class="cls-16" d="m87.23,33.47c-.14.07-.2.23-.14.36.07.13.23.19.37.12.14-.07.2-.23.13-.36-.06-.13-.23-.18-.37-.12Z"/><path class="cls-16" d="m87.92,34.9c-.14.07-.2.23-.13.36.06.13.23.18.37.12.14-.07.2-.23.13-.36-.07-.13-.23-.18-.37-.12Z"/><path class="cls-16" d="m88.62,36.34c-.14.07-.2.23-.13.36.06.13.23.18.37.12.14-.07.2-.23.13-.36-.06-.13-.23-.18-.37-.12Z"/><path class="cls-16" d="m89.32,37.78c-.14.07-.2.23-.13.36.06.13.23.18.37.12.14-.07.2-.23.14-.36-.07-.13-.23-.19-.37-.12Z"/><path class="cls-16" d="m90.02,39.21c-.14.07-.2.23-.13.36.06.13.23.19.37.12.14-.07.2-.23.13-.36-.06-.13-.23-.19-.37-.12Z"/><path class="cls-16" d="m91.29,38.97c-.15,0-.28.11-.29.25,0,.14.12.27.27.27.15,0,.28-.11.29-.25,0-.14-.12-.27-.27-.27Z"/><path class="cls-16" d="m91.34,37.39c-.15,0-.28.11-.29.25,0,.15.12.27.27.27.15,0,.28-.11.29-.25,0-.14-.12-.27-.27-.27Z"/><path class="cls-16" d="m91.4,35.82c-.15,0-.28.11-.29.25,0,.14.12.27.27.27.15,0,.28-.11.29-.25,0-.15-.12-.27-.27-.27Z"/><path class="cls-16" d="m91.45,34.25c-.15,0-.28.11-.29.25,0,.15.12.27.27.27.15,0,.28-.11.29-.25,0-.14-.12-.27-.27-.27Z"/><path class="cls-16" d="m91.5,32.68c-.15,0-.28.11-.29.25,0,.14.12.26.27.27.15,0,.28-.11.29-.25,0-.15-.12-.27-.27-.27Z"/><path class="cls-16" d="m92.37,39.87c-.14-.07-.3-.02-.37.11-.07.13,0,.29.13.36.14.07.3.02.37-.11.06-.13,0-.29-.13-.36Z"/><path class="cls-16" d="m93.07,38.45c-.14-.07-.3-.02-.37.11-.06.13,0,.29.13.36.14.07.3.02.37-.11.06-.13,0-.29-.13-.36Z"/><path class="cls-16" d="m93.78,37.03c-.14-.07-.3-.02-.37.11-.06.13,0,.29.13.36.14.07.3.02.37-.11.07-.13,0-.29-.13-.36Z"/><path class="cls-16" d="m94.49,35.62c-.14-.07-.3-.02-.37.11-.06.13,0,.29.13.36.14.07.3.02.37-.11.06-.13,0-.29-.13-.36Z"/><path class="cls-16" d="m95.2,34.2c-.13-.07-.3-.02-.37.11-.06.13,0,.29.13.36.14.07.3.02.37-.11.07-.13,0-.29-.13-.36Z"/><path class="cls-16" d="m95.9,32.78c-.14-.07-.3-.02-.37.11-.06.13,0,.29.13.36.14.07.3.02.37-.11.06-.13,0-.29-.13-.36Z"/><path class="cls-16" d="m92.53,40.45c-.12.11-.13.29-.02.4.11.11.29.11.4,0,.12-.11.12-.29.02-.4-.11-.11-.29-.11-.41,0Z"/><path class="cls-16" d="m93.8,39.23c-.12.11-.13.29-.02.41.11.11.29.11.41,0,.12-.11.12-.29.02-.4-.11-.11-.29-.11-.4,0Z"/><path class="cls-16" d="m95.07,38.01c-.12.11-.12.29-.02.4.11.11.29.11.4,0,.12-.11.13-.29.02-.41-.11-.11-.29-.11-.41,0Z"/><path class="cls-16" d="m96.35,36.79c-.12.11-.12.29-.02.4.11.11.29.11.4,0,.12-.11.12-.29.02-.4-.1-.11-.29-.11-.4,0Z"/><path class="cls-16" d="m97.62,35.58c-.12.11-.12.29-.02.4.11.11.29.11.41,0,.12-.11.13-.29.02-.4-.11-.11-.29-.11-.41,0Z"/><path class="cls-16" d="m98.89,34.36c-.12.11-.13.29-.02.4.11.11.29.11.4,0,.12-.11.12-.29.02-.4-.11-.11-.29-.11-.4,0Z"/><path class="cls-16" d="m93.26,42.74c-.13-.08-.3-.04-.38.09-.08.13-.05.3.08.38.13.08.3.04.38-.09.08-.13.05-.3-.08-.38Z"/><path class="cls-16" d="m94.63,43.63c-.13-.08-.3-.04-.38.09-.08.13-.05.3.08.38.13.08.3.04.38-.09s.05-.3-.08-.38Z"/><path class="cls-16" d="m96,44.51c-.13-.08-.3-.04-.38.09s-.05.3.08.38c.13.08.29.04.38-.09.08-.13.05-.3-.08-.38Z"/><path class="cls-16" d="m97.37,45.4c-.12-.08-.29-.04-.38.09-.08.13-.05.3.08.38.13.08.3.04.38-.09.08-.13.05-.3-.08-.38Z"/><path class="cls-16" d="m91.79,43.29c-.15.02-.26.15-.24.3.02.14.16.25.31.23.15-.02.26-.15.24-.3-.02-.14-.16-.25-.31-.23Z"/><path class="cls-16" d="m91.99,44.86c-.15.02-.26.15-.24.3.02.14.16.25.31.23.15-.02.26-.15.24-.29-.02-.15-.16-.25-.31-.23Z"/><path class="cls-16" d="m92.19,46.43c-.15.02-.26.15-.24.3.02.15.16.25.31.23.15-.02.26-.15.24-.29-.02-.15-.16-.25-.31-.23Z"/><path class="cls-16" d="m92.38,48c-.15.02-.26.15-.24.3.02.14.16.25.31.23.15-.02.26-.15.24-.3-.02-.15-.16-.25-.31-.23Z"/><path class="cls-16" d="m92.58,49.57c-.15.02-.26.15-.24.3.02.14.16.25.31.23.15-.02.26-.15.24-.3-.02-.14-.16-.25-.31-.23Z"/><path class="cls-16" d="m92.78,51.14c-.15.02-.26.15-.24.29.02.15.16.25.31.23.15-.02.26-.15.24-.3-.02-.14-.16-.25-.31-.23Z"/><path class="cls-16" d="m89.38,41.87c-.16.05-.24.21-.19.36.05.15.21.22.37.17.15-.05.24-.21.19-.36-.05-.15-.21-.22-.37-.17Z"/><path class="cls-16" d="m87.69,42.43c-.16.05-.24.21-.19.36.05.15.21.22.37.17.16-.05.24-.21.19-.36-.05-.14-.21-.22-.37-.17Z"/><path class="cls-16" d="m86.01,43c-.15.05-.24.21-.19.36.05.14.21.22.37.17.16-.05.24-.21.19-.36-.05-.15-.21-.22-.37-.17Z"/><path class="cls-16" d="m84.32,43.57c-.16.05-.24.21-.19.36.05.14.21.22.37.17.15-.05.24-.21.19-.36-.05-.15-.21-.22-.37-.17Z"/><path class="cls-16" d="m86.09,30.53c-.61,0-1.1.49-1.1,1.1s.49,1.1,1.1,1.1,1.1-.49,1.1-1.1-.49-1.1-1.1-1.1Z"/><path class="cls-16" d="m83.4,13.7c-.61,0-1.1.49-1.1,1.1s.49,1.1,1.1,1.1,1.1-.49,1.1-1.1-.49-1.1-1.1-1.1Z"/><path class="cls-16" d="m71.73,33.7c-.61,0-1.1.49-1.1,1.1s.49,1.1,1.1,1.1,1.1-.49,1.1-1.1-.49-1.1-1.1-1.1Z"/><path class="cls-16" d="m91.23,10.8c-.61,0-1.1.49-1.1,1.1s.49,1.1,1.1,1.1,1.1-.49,1.1-1.1-.49-1.1-1.1-1.1Z"/><path class="cls-16" d="m99.34,12.59c-.61,0-1.1.49-1.1,1.1s.49,1.1,1.1,1.1,1.1-.49,1.1-1.1-.49-1.1-1.1-1.1Z"/><path class="cls-16" d="m105.86,19.65c-.61,0-1.1.49-1.1,1.1s.49,1.1,1.1,1.1,1.1-.49,1.1-1.1-.49-1.1-1.1-1.1Z"/><path class="cls-16" d="m91.54,29.43c-.61,0-1.1.49-1.1,1.1s.49,1.1,1.1,1.1,1.1-.49,1.1-1.1-.49-1.1-1.1-1.1Z"/><path class="cls-16" d="m91.38,40.56c-.61,0-1.1.49-1.1,1.1s.49,1.1,1.1,1.1,1.1-.49,1.1-1.1-.49-1.1-1.1-1.1Z"/><path class="cls-16" d="m96.84,29.74c-.61,0-1.1.49-1.1,1.1s.49,1.1,1.1,1.1,1.1-.49,1.1-1.1-.49-1.1-1.1-1.1Z"/><path class="cls-16" d="m100.75,31.94c-.61,0-1.1.49-1.1,1.1s.49,1.1,1.1,1.1,1.1-.49,1.1-1.1-.49-1.1-1.1-1.1Z"/><path class="cls-16" d="m99.04,46.13c-.61,0-1.1.49-1.1,1.1s.49,1.1,1.1,1.1,1.1-.49,1.1-1.1-.49-1.1-1.1-1.1Z"/><path class="cls-16" d="m92.97,52.17c-.61,0-1.1.49-1.1,1.1s.49,1.1,1.1,1.1,1.1-.49,1.1-1.1-.49-1.1-1.1-1.1Z"/><path class="cls-16" d="m82.3,43.51c-.61,0-1.1.49-1.1,1.1s.49,1.1,1.1,1.1,1.1-.49,1.1-1.1-.49-1.1-1.1-1.1Z"/><path class="cls-16" d="m85.48,29.49c-.15.02-.26.17-.24.32.02.16.16.26.32.24.15-.02.26-.17.24-.32-.02-.16-.17-.27-.32-.24Z"/><path class="cls-16" d="m85.24,27.8c-.15.02-.26.17-.23.32.02.16.16.27.31.25.15-.02.26-.17.24-.32-.02-.16-.16-.26-.32-.24Z"/><path class="cls-16" d="m85,26.1c-.15.02-.26.17-.24.32.02.16.16.27.32.24.15-.02.26-.16.23-.32-.02-.16-.16-.26-.31-.24Z"/><path class="cls-16" d="m84.76,24.41c-.15.02-.26.17-.24.32.02.16.17.27.31.25.15-.02.26-.16.24-.32-.02-.16-.16-.27-.32-.25Z"/><path class="cls-16" d="m84.52,22.71c-.15.02-.26.16-.24.32.02.16.16.27.32.25.15-.02.26-.17.24-.32-.02-.16-.16-.26-.31-.24Z"/><path class="cls-16" d="m84.28,21.02c-.15.02-.26.17-.24.32.02.16.16.26.32.24.15-.02.26-.17.23-.32-.02-.16-.16-.27-.31-.24Z"/><path class="cls-16" d="m84.04,19.32c-.15.02-.26.17-.24.32.02.16.16.27.32.25.15-.02.26-.16.24-.32-.02-.16-.16-.27-.32-.25Z"/><path class="cls-16" d="m83.8,17.62c-.15.02-.26.16-.23.32.02.16.16.26.31.24.15-.02.26-.17.24-.32-.02-.16-.16-.27-.32-.24Z"/><path class="cls-16" d="m83.56,15.93c-.15.02-.26.17-.24.32.02.16.16.26.32.24.15-.02.26-.16.23-.32-.02-.16-.16-.26-.31-.24Z"/><path class="cls-16" d="m91.51,28.29c-.15,0-.28.13-.27.29,0,.16.13.28.28.28.15,0,.28-.13.27-.29,0-.16-.13-.28-.28-.28Z"/><path class="cls-16" d="m91.48,26.6c-.15,0-.27.13-.27.29,0,.16.13.28.28.28.15,0,.28-.13.27-.29,0-.16-.13-.28-.28-.28Z"/><path class="cls-16" d="m91.45,24.9c-.15,0-.27.13-.27.29,0,.16.13.28.28.28.15,0,.28-.13.27-.29,0-.16-.13-.28-.28-.28Z"/><path class="cls-16" d="m91.42,23.2c-.15,0-.28.13-.27.29,0,.16.13.28.28.28.15,0,.28-.13.27-.29,0-.16-.13-.28-.28-.28Z"/><path class="cls-16" d="m91.39,21.51c-.15,0-.28.13-.27.29,0,.16.13.28.28.28.15,0,.28-.13.27-.29,0-.16-.13-.28-.28-.28Z"/><path class="cls-16" d="m91.37,19.81c-.15,0-.28.13-.27.29,0,.16.13.28.28.28.15,0,.28-.13.27-.29,0-.16-.13-.28-.28-.28Z"/><path class="cls-16" d="m91.34,18.12c-.15,0-.28.13-.27.29,0,.16.13.28.28.28.15,0,.28-.13.27-.29,0-.16-.13-.28-.28-.28Z"/><path class="cls-16" d="m91.31,16.42c-.15,0-.28.13-.27.29,0,.16.13.28.28.28.15,0,.28-.13.27-.29,0-.16-.13-.28-.28-.28Z"/><path class="cls-16" d="m91.28,14.73c-.15,0-.28.13-.27.29,0,.16.13.28.28.28.15,0,.28-.13.28-.29,0-.16-.13-.28-.28-.28Z"/><path class="cls-16" d="m91.25,13.03c-.15,0-.28.13-.27.29,0,.16.13.28.28.28.15,0,.28-.13.27-.29,0-.16-.13-.28-.28-.28Z"/><path class="cls-16" d="m97.07,28.93c-.15-.02-.29.08-.31.23-.02.15.08.28.24.31.15.02.29-.08.31-.23.02-.15-.08-.28-.24-.31Z"/><path class="cls-16" d="m97.31,27.33c-.15-.02-.29.08-.31.23-.02.15.08.29.24.31.15.02.29-.08.31-.23.02-.15-.08-.29-.24-.31Z"/><path class="cls-16" d="m97.54,25.73c-.15-.02-.29.08-.32.23s.09.29.24.31c.15.02.29-.08.32-.23.02-.15-.09-.29-.24-.31Z"/><path class="cls-16" d="m97.78,24.13c-.15-.02-.29.08-.31.23-.02.15.08.29.24.31.15.02.29-.08.31-.23.02-.15-.09-.29-.24-.31Z"/><path class="cls-16" d="m98.01,22.53c-.15-.02-.29.08-.32.23-.02.15.08.28.24.31.15.02.29-.08.31-.22.02-.15-.08-.29-.23-.31Z"/><path class="cls-16" d="m98.25,20.93c-.15-.02-.29.08-.31.23-.02.15.08.28.24.31.15.02.29-.08.31-.23.02-.15-.08-.28-.24-.31Z"/><path class="cls-16" d="m98.48,19.32c-.15-.02-.29.08-.31.22-.02.15.08.29.24.31.15.02.29-.08.31-.23.02-.15-.08-.29-.24-.31Z"/><path class="cls-16" d="m98.71,17.72c-.15-.02-.29.08-.31.23-.02.15.08.29.24.31.15.02.29-.08.31-.23.02-.15-.08-.28-.24-.31Z"/><path class="cls-16" d="m98.95,16.12c-.15-.02-.29.08-.32.23-.02.15.09.28.24.31.15.02.29-.08.31-.23.02-.15-.08-.29-.24-.31Z"/><path class="cls-16" d="m99.19,14.52c-.15-.02-.29.08-.32.23-.02.15.08.29.24.31.15.02.29-.08.31-.23.02-.15-.08-.29-.24-.31Z"/><path class="cls-16" d="m101.46,31.17c-.14-.06-.3,0-.37.15-.06.14,0,.31.15.37.14.06.31,0,.37-.15.06-.15,0-.31-.15-.37Z"/><path class="cls-16" d="m102.12,29.61c-.14-.06-.31,0-.37.15-.06.14,0,.31.15.37.14.06.3,0,.37-.15.06-.14,0-.31-.15-.37Z"/><path class="cls-16" d="m102.78,28.05c-.14-.06-.31,0-.37.15-.06.14,0,.31.15.37.14.06.31,0,.37-.15s0-.31-.15-.37Z"/><path class="cls-16" d="m103.44,26.48c-.14-.06-.3,0-.37.15-.06.14,0,.31.15.37.14.06.31,0,.37-.15.06-.14,0-.31-.15-.37Z"/><path class="cls-16" d="m104.1,24.92c-.14-.06-.3,0-.37.15-.06.14,0,.31.15.37.14.06.3,0,.36-.15.06-.14,0-.31-.15-.37Z"/><path class="cls-16" d="m104.76,23.36c-.14-.06-.31,0-.37.15-.06.14,0,.31.15.37s.31,0,.37-.15c.06-.14,0-.31-.15-.37Z"/><path class="cls-16" d="m105.42,21.8c-.14-.06-.31,0-.37.15-.06.14,0,.31.15.37.14.06.3,0,.37-.15.06-.14,0-.31-.14-.37Z"/><path class="cls-16" d="m80.55,43.48c-.11.11-.12.28-.01.38.1.11.27.1.38,0,.11-.11.12-.28.01-.38-.1-.11-.27-.1-.38,0Z"/><path class="cls-16" d="m79.43,42.35c-.11.11-.11.28-.01.38.1.1.27.1.38,0,.11-.11.12-.28.01-.38-.1-.1-.27-.1-.38,0Z"/><path class="cls-16" d="m78.33,41.21c-.11.11-.12.28-.01.38.1.1.27.1.38,0,.11-.11.12-.28.02-.38-.1-.1-.27-.1-.38,0Z"/><path class="cls-16" d="m77.21,40.08c-.11.11-.11.28-.01.38.1.1.27.1.38,0,.11-.11.12-.28.01-.38-.1-.1-.27-.1-.38,0Z"/><path class="cls-16" d="m76.11,38.95c-.11.11-.12.28-.01.38.1.1.27.1.38,0,.11-.11.12-.28.01-.38-.1-.1-.27-.1-.38,0Z"/><path class="cls-16" d="m75,37.82c-.11.11-.12.28-.01.38.1.1.28.1.38,0,.11-.11.12-.28.01-.38-.1-.11-.27-.1-.38,0Z"/><path class="cls-16" d="m73.89,36.69c-.11.11-.12.28-.01.38.1.1.28.1.38,0,.11-.11.12-.28.01-.38-.1-.11-.27-.1-.38,0Z"/><path class="cls-16" d="m72.78,35.56c-.11.11-.11.28-.01.38.1.1.27.1.38,0,.11-.11.11-.28.01-.38-.1-.1-.27-.1-.38,0Z"/><path class="cls-31" d="m76.05,56.3s.89,27.24,7.13,36.53c6.23,9.29,26.87,14.14,26.87,14.14,0,0,2.82-20.59-3.41-29.88-6.23-9.29-30.58-20.79-30.58-20.79Z"/><path class="cls-20" d="m91.36,83.43c-10.2-4.6-36.95-1.52-36.95-1.52,0,0,15.14,22.66,25.34,27.26,10.2,4.6,30.29-2.17,30.29-2.17,0,0-8.48-18.97-18.68-23.57Z"/><path class="cls-31" d="m113.46,77.09c-6.23,9.29-3.42,29.88-3.42,29.88,0,0,20.64-4.85,26.87-14.14,6.23-9.29,7.13-36.53,7.13-36.53,0,0-24.35,11.5-30.58,20.79Z"/><path class="cls-20" d="m128.73,83.43c-10.2,4.6-18.68,23.57-18.68,23.57,0,0,20.09,6.77,30.29,2.17,10.2-4.6,25.34-27.26,25.34-27.26,0,0-26.75-3.08-36.95,1.52Z"/><path class="cls-14" d="m95.64,80.25c0,11.19,14.43,26.72,14.43,26.72,0,0,13.81-15.53,13.81-26.72s-13.81-34.31-13.81-34.31c0,0-14.43,23.12-14.43,34.31Z"/><g class="cls-37"><rect class="cls-6" x="52.54" y="44.82" width="57.45" height="84.7"/></g><path class="cls-19" d="m114.6,111.32c0,.33,3.69.6,8.25.6s8.25-.27,8.25-.6v-4.85h-16.49v4.85Z"/><path class="cls-16" d="m122.84,105.87c-4.55,0-8.25.27-8.25.6s3.69.6,8.25.6,8.25-.27,8.25-.6-3.69-.6-8.25-.6Z"/><path class="cls-30" d="m122.62,96.15c-.63,0-2.02,5.54-1.74,7.5.28,1.96,1.51,1.74,1.51,1.74,1.62-.11,2.01-.8,2.01-2.13,0-2.13-.9-7.11-1.79-7.11Z"/><path class="cls-10" d="m122.62,103.26c-.12,0-.22.1-.22.22v2.76c0,.12.1.22.22.22s.22-.1.22-.22v-2.76c0-.12-.1-.22-.22-.22Z"/><path class="cls-1" d="m127.1,107.24h-2.41c-.45,0-.82,1-.82,2.24s.37,2.24.82,2.24h2.41c.45,0,.82-1,.82-2.24s-.37-2.24-.82-2.24Z"/><path class="cls-19" d="m103.89,113.96c0,.33,3.69.6,8.24.6s8.25-.27,8.25-.6v-4.85h-16.49v4.85Z"/><path class="cls-16" d="m112.14,108.5c-4.55,0-8.24.27-8.24.6s3.69.6,8.24.6,8.25-.27,8.25-.6-3.69-.6-8.25-.6Z"/><path class="cls-30" d="m111.91,98.79c-.63,0-2.02,5.54-1.74,7.5.28,1.96,1.51,1.73,1.51,1.73,1.62-.11,2.01-.8,2.01-2.13,0-2.13-.89-7.11-1.79-7.11Z"/><path class="cls-10" d="m111.91,105.9c-.12,0-.22.1-.22.22v2.76c0,.12.1.22.22.22s.22-.1.22-.22v-2.76c0-.12-.1-.22-.22-.22Z"/><path class="cls-1" d="m116.39,109.88h-2.41c-.45,0-.82,1-.82,2.24s.37,2.24.82,2.24h2.41c.45,0,.82-1,.82-2.24s-.37-2.24-.82-2.24Z"/><path class="cls-27" d="m37.99,102.01s-18.76,3.46-22.35,5.49c-1.37.78-1.1,2.27-.84,3.37.25,1.1,1.61,1.98,3.22,1.95,6.01-.13,18.27-.18,24.69-1.24,6.41-1.06,6.56-5.18,5.6-8.13-.96-2.96-10.32-1.44-10.32-1.44Z"/><path class="cls-27" d="m82.22,107.69c-3.6-2.01-22.38-5.37-22.38-5.37,0,0-9.37-1.47-10.31,1.49-.96,2.96-.78,7.08,5.63,8.11,6.42,1.03,18.68,1.01,24.7,1.11,1.61.02,2.97-.87,3.21-1.97.25-1.1.52-2.59-.85-3.36Z"/><path class="cls-27" d="m39.1,67.17c-3.2,0-2.96,6.5-3.41,10.5-.46,4-3.74,11.21-.32,11.93,3.41.72,4.64-6.46,6.03-13.27,1.39-6.81,1.67-9.16-2.29-9.16Z"/><path class="cls-12" d="m34.25,86.51c-2.06,1.76-2.84,3.01-5.43,6.28-2.58,3.27-6.41,8.28-6.41,8.28l1.58,1.3s4.5-3.39,7.27-5.77c2.99-2.57,5.21-4.84,5.86-6.87,1.08-3.38-2.87-3.22-2.87-3.22Z"/><path class="cls-12" d="m23.15,100.62c-1.19,0-2.27.39-3.47,1.8-1.19,1.41-3.17,4.71-2.6,5.02.57.31,1.58-1.63,2.89-2.53,1.9-1.32,3.2-.77,3.95-1.95.66-1.04.43-2.34-.77-2.34Z"/><path class="cls-12" d="m21.73,103.9c-.9.81-1.48,1.64-1.28,1.85.2.21,1.09-.29,1.99-1.1.9-.82,1.48-1.64,1.28-1.85-.2-.2-1.09.29-1.99,1.1Z"/><path class="cls-27" d="m58.57,67.63c-3.96,0-3.69,2.35-2.3,9.16,1.39,6.81,2.62,13.99,6.03,13.27,3.41-.72.14-7.93-.32-11.93-.46-4-.22-10.51-3.41-10.5Z"/><path class="cls-12" d="m63.41,86.97s-3.95-.17-2.87,3.22c.65,2.03,2.87,4.3,5.86,6.87,2.77,2.38,7.27,5.77,7.27,5.77l1.58-1.29s-3.83-5.01-6.41-8.29c-2.58-3.27-3.37-4.52-5.43-6.28Z"/><path class="cls-12" d="m74.51,101.08c-1.19,0-1.42,1.29-.77,2.34.74,1.18,2.05.63,3.95,1.95,1.3.9,2.31,2.84,2.88,2.54.57-.31-1.41-3.61-2.6-5.02-1.19-1.41-2.27-1.79-3.47-1.8Z"/><path class="cls-12" d="m75.94,104.36c-.91-.81-1.79-1.31-1.99-1.1-.19.21.38,1.04,1.28,1.85.91.82,1.79,1.31,1.99,1.1.2-.21-.38-1.03-1.28-1.85Z"/><path class="cls-27" d="m51.76,59.17c.03-1.26-5.35-1.41-5.37-.14-.08,4.69-1.93,5.8-1.93,5.8,0,0,0,5.08,4.53,5.25,4.31.15,4.52-5.23,4.52-5.23,0,0-1.86-.64-1.75-5.67Z"/><path class="cls-24" d="m48.99,44.62c-3.48,0-6.76,3.69-6.3,8.2.49,4.75,3.94,8.51,6.3,8.51s5.78-3.83,6.31-8.51c.5-4.5-2.82-8.2-6.31-8.2Z"/><path class="cls-27" d="m60.37,104.21c-.58-6.52-4.84-8.05-4.84-12.32s2.45-16.34,4.79-22.82c.57-1.58-6.87-4.24-6.87-4.24-.67,3.6-4.52,3.95-4.52,3.95,0,0-2.98-.36-4.53-3.97,0,0-7.54,1.73-6.68,3.71,2.34,5.38,4.52,19.09,4.52,23.36s-3.76,6.06-4.74,12.32c-.07.47-.12,1.02-.16,1.65-.4,7.53,11.85,5.02,11.85,5.02,0,0,12.36,3.02,11.25-5.64-.05-.38-.05-.73-.08-1.04Z"/><path class="cls-12" d="m81.52,107.85s-2.91-1.22-13.01-2.03c-11.28-.9-14.44-.75-19.33-.94-4.9-.2-8.27-1.2-11.17-1.51-1.85-.19-3.69.3-3.73,1.81-.02,1.12,1.04,2.3,2.43,2.44,1.39.14,5.66-.39,11.53.42,5.87.81,12.77,4.15,17.2,5.16,4.43,1,10.11.7,13.71.2,3.59-.51,5.9-3.2,2.37-5.55Z"/><path class="cls-12" d="m38.71,103.43s-6.17-1.05-7.01,1.09c-.84,2.14,3.17,3.33,6.89,3.17,0,0-4.02-.64-3.61-2.46.4-1.77,3.73-1.81,3.73-1.81Z"/><path class="cls-12" d="m59.85,103.37c-2.91.3-6.27,1.31-11.17,1.51-4.89.19-8.04.03-19.32.94-10.1.81-13.01,2.03-13.01,2.03-3.53,2.35-1.23,5.04,2.37,5.55,3.6.5,9.28.81,13.71-.2,4.43-1.01,11.33-4.35,17.2-5.16,5.87-.81,10.14-.28,11.52-.42,1.39-.13,2.46-1.32,2.43-2.44-.04-1.51-1.88-2-3.73-1.81Z"/><path class="cls-12" d="m59.16,103.43s3.33.04,3.72,1.81c.41,1.82-3.61,2.46-3.61,2.46,3.72.16,7.73-1.03,6.89-3.17-.84-2.14-7.01-1.09-7.01-1.09Z"/><path class="cls-23" d="m48.99,44.62c-3.48,0-6.76,3.69-6.3,8.2.02.22.08.42.12.64.71-3.26,3.34-5.65,6.13-5.65s5.58,2.51,6.19,5.9c.06-.3.14-.59.17-.89.5-4.5-2.82-8.2-6.31-8.2Z"/><path class="cls-9" d="m48.98,107.47c-1.35,0-2.45,1.1-2.45,2.45s1.1,2.45,2.45,2.45,2.45-1.1,2.45-2.45-1.1-2.45-2.45-2.45Z"/><path class="cls-11" d="m49.11,96.17c-1.35,0-2.45,1.1-2.45,2.45s1.1,2.46,2.45,2.46,2.45-1.1,2.45-2.46-1.1-2.45-2.45-2.45Z"/><path class="cls-4" d="m49.11,86.32c-1.35,0-2.45,1.1-2.45,2.46s1.1,2.45,2.45,2.45,2.45-1.1,2.45-2.45-1.1-2.46-2.45-2.46Z"/><path class="cls-34" d="m49.11,73.38c-1.35,0-2.45,1.1-2.45,2.45s1.1,2.45,2.45,2.45,2.45-1.1,2.45-2.45-1.1-2.45-2.45-2.45Z"/><path class="cls-3" d="m49.11,63.75c-1.35,0-2.45,1.1-2.45,2.45s1.1,2.45,2.45,2.45,2.45-1.1,2.45-2.45-1.1-2.45-2.45-2.45Z"/><path class="cls-8" d="m48.99,51.5c-1.36,0-2.45,1.1-2.45,2.46s1.1,2.45,2.45,2.45,2.45-1.1,2.45-2.45-1.1-2.46-2.45-2.46Z"/><path class="cls-7" d="m48.99,42.17c-1.35,0-2.45,1.1-2.45,2.45s1.1,2.45,2.45,2.45,2.46-1.1,2.46-2.45-1.1-2.45-2.46-2.45Z"/><g class="cls-36"><rect class="cls-5" x="12.59" y="39.58" width="36.4" height="77.16"/></g><path class="cls-17" d="m168.17,84.92c-.13.15-.11.37.04.5l11.86,10.21c.15.12.37.11.5-.04.13-.15.11-.37-.04-.5l-11.86-10.21c-.15-.13-.37-.11-.5.04Z"/><path class="cls-17" d="m167.22,84.17c-.32.37-.28.92.09,1.24.37.32.93.28,1.24-.09.32-.37.28-.93-.09-1.24-.37-.32-.93-.28-1.24.09Z"/><rect class="cls-17" x="184.73" y="93.64" width=".18" height="11.22" transform="translate(-11.51 173.16) rotate(-48.87)"/><path class="cls-32" d="m168.6,85.56l11.47,9.89s.09.03.12,0c.03-.04.03-.09,0-.12l-11.47-9.89s-.09-.03-.12,0c-.03.04-.03.09,0,.12Z"/><path class="cls-32" d="m167.16,84.6c-.05.27.13.54.4.59.27.05.54-.13.59-.4.05-.27-.13-.54-.4-.59-.27-.05-.54.12-.59.4Z"/><path class="cls-17" d="m217.21,72.69c-.12-.13-.33-.15-.47-.02l-10.89,9.83c-.14.12-.14.33-.03.47.12.13.33.15.47.02l10.9-9.83c.13-.12.14-.33.02-.47Z"/><path class="cls-17" d="m218.01,71.9c-.31-.34-.83-.37-1.16-.06-.34.31-.37.83-.06,1.17.31.34.83.37,1.17.06.34-.31.37-.83.06-1.17Z"/><polygon class="cls-17" points="197.95 89.95 198.07 90.07 205.88 83.02 205.77 82.9 197.95 89.95"/><path class="cls-32" d="m216.56,73.02l-10.56,9.5s-.04.08,0,.12c.03.03.08.04.12,0l10.56-9.5s.04-.08,0-.12c-.03-.04-.08-.04-.12,0Z"/><path class="cls-32" d="m217.62,71.79c-.25-.08-.52.05-.6.3-.08.25.05.51.3.59.25.08.51-.05.59-.3.08-.25-.05-.51-.3-.6Z"/><path class="cls-17" d="m183.55,46.75c-.18.08-.28.29-.2.48l6.04,14.98c.07.19.29.28.47.2.18-.08.28-.29.2-.47l-6.04-14.98c-.07-.18-.29-.27-.47-.2Z"/><path class="cls-17" d="m183.04,45.61c-.46.19-.69.72-.5,1.18.19.47.72.69,1.18.5.47-.19.69-.72.5-1.18-.19-.47-.72-.69-1.18-.5Z"/><polygon class="cls-17" points="194.11 73.17 194.27 73.1 189.94 62.36 189.78 62.43 194.11 73.17"/><path class="cls-32" d="m183.64,47.54l5.83,14.5s.07.07.12.05c.05-.02.07-.07.05-.12l-5.83-14.5s-.07-.07-.12-.05c-.05.02-.07.07-.05.12Z"/><path class="cls-32" d="m182.77,45.98c-.17.23-.14.55.09.73.23.18.55.14.73-.09.18-.22.14-.55-.09-.73-.23-.18-.55-.14-.73.09Z"/><path class="cls-17" d="m239.27,51.02c-.15-.11-.36-.08-.48.07l-9.2,12.09c-.12.15-.09.37.06.48.15.11.37.08.48-.06l9.21-12.09c.11-.15.08-.36-.06-.48Z"/><path class="cls-17" d="m239.94,50.05c-.37-.29-.91-.21-1.2.16-.29.38-.21.91.16,1.2.38.29.91.21,1.2-.16.28-.38.21-.91-.16-1.2Z"/><polygon class="cls-17" points="222.98 72.26 223.11 72.37 229.71 63.7 229.58 63.6 222.98 72.26"/><path class="cls-32" d="m238.67,51.47l-8.92,11.69s-.02.09.02.12c.04.03.09.02.12-.02l8.92-11.69s.02-.09-.02-.12c-.04-.03-.09-.02-.12.02Z"/><path class="cls-32" d="m239.51,50.02c-.27-.03-.51.16-.55.42-.04.27.15.51.42.55.27.04.51-.15.54-.42.04-.27-.15-.51-.42-.55Z"/><path class="cls-17" d="m237.62,90.85c-.08-.17-.29-.24-.46-.15l-13.48,6.71c-.17.08-.24.29-.16.46.08.16.29.24.46.15l13.49-6.71c.17-.08.24-.29.15-.45Z"/><path class="cls-17" d="m238.64,90.29c-.21-.42-.72-.59-1.13-.38-.42.21-.59.72-.38,1.14.21.42.72.59,1.14.38.42-.21.59-.72.38-1.14Z"/><rect class="cls-17" x="213.29" y="100.18" width="10.8" height=".17" transform="translate(-21.75 108.32) rotate(-26.55)"/><path class="cls-32" d="m236.89,90.99l-13.06,6.48s-.06.07-.04.11c.02.04.07.06.12.04l13.06-6.48s.06-.07.04-.11c-.02-.04-.07-.06-.11-.04Z"/><path class="cls-32" d="m238.28,90.07c-.22-.15-.52-.09-.67.13-.15.22-.09.52.14.67.22.15.52.09.67-.14.15-.22.09-.52-.13-.67Z"/><path class="cls-16" d="m83.32,101.59c-1.79,0-3.24,1.31-3.24,4.26s2.16,5.34,3.24,5.34c.96,0,3.24-2.39,3.24-5.34s-1.45-4.26-3.24-4.26Z"/><path class="cls-33" d="m83.32,104.11c-1.32,0-2.39.97-2.39,3.14s1.59,3.94,2.39,3.94c.71,0,2.39-1.76,2.39-3.94s-1.07-3.14-2.39-3.14Z"/><path class="cls-29" d="m83.32,106.75c-.83,0-1.5.61-1.5,1.97s1,2.47,1.5,2.47c.44,0,1.5-1.11,1.5-2.47s-.67-1.97-1.5-1.97Z"/><path class="cls-16" d="m79.08,106.74c-2.81-.91-4.5.06-5.06,1.77-.55,1.7.25,3.49,3.05,4.4,2.8.91,5.75-.41,6.08-1.43.3-.91-1.27-3.82-4.08-4.73Z"/><path class="cls-33" d="m80.15,107.98c-2.07-.67-3.32.05-3.73,1.3-.41,1.26.18,2.57,2.25,3.25,2.07.67,4.24-.3,4.49-1.06.22-.67-.94-2.82-3.01-3.49Z"/><path class="cls-29" d="m81.28,109.29c-1.3-.42-2.08.03-2.34.82-.26.79.11,1.61,1.41,2.04,1.3.42,2.66-.19,2.81-.66.14-.42-.59-1.77-1.89-2.19Z"/><path class="cls-16" d="m77.56,113.67c-1.73,2.39-1.33,4.3.12,5.35,1.45,1.05,3.39.85,5.13-1.54,1.73-2.39,1.39-5.59.51-6.23-.78-.56-4.03.03-5.76,2.42Z"/><path class="cls-33" d="m79.07,113.04c-1.28,1.76-.98,3.17.08,3.95,1.07.78,2.5.62,3.78-1.14,1.28-1.76,1.03-4.13.38-4.59-.57-.42-2.97.02-4.25,1.78Z"/><path class="cls-29" d="m80.66,112.37c-.8,1.1-.62,1.99.05,2.48.67.49,1.57.39,2.37-.71.8-1.1.64-2.59.24-2.88-.36-.26-1.86.01-2.66,1.12Z"/><path class="cls-16" d="m83.33,111.16c-.78.56-1.22,3.84.52,6.23,1.74,2.39,3.68,2.6,5.13,1.54,1.45-1.05,1.85-2.97.12-5.36-1.74-2.39-4.89-3.05-5.76-2.42Z"/><path class="cls-33" d="m83.33,111.16c-.57.42-.9,2.83.38,4.59,1.28,1.76,2.71,1.92,3.78,1.14,1.07-.77,1.37-2.19.09-3.95-1.28-1.76-3.61-2.25-4.25-1.78Z"/><path class="cls-29" d="m83.33,111.16c-.36.26-.56,1.78.24,2.88.8,1.1,1.7,1.2,2.38.71.67-.49.86-1.37.05-2.48-.8-1.1-2.26-1.41-2.66-1.12Z"/><path class="cls-16" d="m87.45,106.54c-2.81.91-4.41,3.71-4.08,4.73.3.91,3.28,2.34,6.08,1.43,2.81-.91,3.61-2.7,3.05-4.4-.55-1.7-2.25-2.68-5.06-1.77Z"/><path class="cls-33" d="m86.38,107.79c-2.07.67-3.26,2.73-3.01,3.49.22.67,2.42,1.73,4.49,1.06,2.07-.67,2.66-1.99,2.25-3.25-.41-1.26-1.66-1.98-3.73-1.3Z"/><path class="cls-29" d="m85.26,109.09c-1.3.42-2.04,1.72-1.89,2.19.14.42,1.52,1.08,2.81.66,1.3-.42,1.67-1.25,1.41-2.04-.26-.79-1.04-1.24-2.34-.82Z"/><path class="cls-16" d="m94.3,97.16c-1.37,0-2.48,1.01-2.48,3.27s1.65,4.09,2.48,4.09c.74,0,2.49-1.83,2.49-4.09s-1.12-3.27-2.49-3.27Z"/><path class="cls-33" d="m94.3,99.1c-1.01,0-1.83.74-1.83,2.41s1.22,3.02,1.83,3.02c.54,0,1.83-1.35,1.83-3.02s-.82-2.41-1.83-2.41Z"/><path class="cls-29" d="m94.3,101.12c-.63,0-1.15.46-1.15,1.51s.76,1.89,1.15,1.89c.34,0,1.15-.85,1.15-1.89s-.52-1.51-1.15-1.51Z"/><path class="cls-16" d="m91.06,101.11c-2.15-.7-3.45.05-3.87,1.35-.42,1.31.19,2.67,2.34,3.37,2.15.7,4.4-.31,4.66-1.1.23-.7-.97-2.93-3.12-3.62Z"/><path class="cls-33" d="m91.88,102.06c-1.59-.51-2.55.04-2.85,1-.31.96.14,1.97,1.72,2.49,1.59.52,3.25-.23,3.44-.81.17-.51-.72-2.16-2.3-2.67Z"/><path class="cls-29" d="m92.74,103.06c-1-.33-1.59.02-1.79.63-.2.6.09,1.24,1.08,1.56.99.32,2.04-.14,2.16-.51.11-.32-.45-1.35-1.44-1.68Z"/><path class="cls-16" d="m89.89,106.42c-1.33,1.83-1.02,3.29.09,4.1,1.11.8,2.6.65,3.93-1.18,1.33-1.83,1.07-4.28.39-4.77-.59-.43-3.08.03-4.41,1.85Z"/><path class="cls-33" d="m91.05,105.93c-.98,1.35-.75,2.43.07,3.03.82.6,1.92.48,2.9-.87.98-1.35.79-3.16.29-3.52-.44-.32-2.28.02-3.26,1.37Z"/><path class="cls-29" d="m92.27,105.42c-.61.85-.47,1.53.04,1.9.51.37,1.2.3,1.82-.55.62-.85.49-1.98.18-2.21-.28-.2-1.43.01-2.04.86Z"/><path class="cls-16" d="m94.31,104.5c-.6.43-.93,2.94.4,4.77,1.33,1.83,2.82,1.99,3.93,1.19,1.11-.81,1.42-2.27.09-4.1-1.33-1.83-3.75-2.34-4.42-1.85Z"/><path class="cls-33" d="m94.31,104.5c-.44.32-.69,2.17.29,3.52.98,1.35,2.08,1.47,2.9.87.82-.6,1.04-1.68.06-3.02-.98-1.35-2.76-1.72-3.26-1.37Z"/><path class="cls-29" d="m94.31,104.5c-.28.2-.43,1.36.18,2.21.62.85,1.3.92,1.82.54.51-.37.66-1.05.04-1.9-.62-.85-1.73-1.08-2.04-.86Z"/><path class="cls-16" d="m97.47,100.96c-2.15.7-3.38,2.84-3.13,3.63.23.7,2.51,1.79,4.66,1.1,2.15-.7,2.76-2.07,2.34-3.37-.43-1.3-1.72-2.05-3.88-1.35Z"/><path class="cls-33" d="m96.65,101.91c-1.58.51-2.49,2.1-2.31,2.67.17.52,1.85,1.33,3.44.81,1.59-.51,2.04-1.52,1.72-2.48-.31-.96-1.27-1.51-2.86-1Z"/><path class="cls-29" d="m95.79,102.91c-.99.32-1.56,1.32-1.45,1.68.11.33,1.16.83,2.16.51,1-.32,1.28-.96,1.08-1.56-.2-.61-.79-.95-1.79-.63Z"/><path class="cls-22" d="m157.84,93.87c-.6.64.06,2.23,1.47,3.56,1.41,1.33,3.04,1.88,3.64,1.25.6-.64-.06-2.23-1.47-3.56-1.41-1.33-3.05-1.88-3.64-1.25Z"/><path class="cls-22" d="m161.69,83.78c-1.44,1.3-2.2,2.8-1.7,3.35.5.55,2.07-.06,3.5-1.36,1.44-1.3,1.76-2.35,1.26-2.9-.5-.55-1.62-.39-3.06.91Z"/><path class="cls-18" d="m157.7,91.71c-2.13-1.51-5.01-1.8-7.81-1.8-3.19,0-6.42.49-8.76,2.29-4.48,3.46-7.94,8.35-8.95,13.67-1.46,7.71-.83,12.36,17.79,12.36s19.33-4.7,17.62-12.36c-1.19-5.32-4.78-10.53-9.89-14.16Z"/><path class="cls-18" d="m133.43,81.5c0,4.74,7.21,9.49,16.1,9.49s16.1-4.76,16.1-9.49h-32.2Z"/><path class="cls-21" d="m155.06,101.59c-1.41-.87-3.23-1.45-5.08-1.45-2.1,0-4.31.7-5.85,1.74-2.96,2-5.24,4.82-5.9,7.89-.96,4.45-.21,6.54,12.07,6.54s12.41-2.11,11.28-6.54c-.79-3.07-3.16-6.08-6.53-8.18Z"/><path class="cls-18" d="m156.52,89.36h-13.99c-.65,0-1.18.53-1.18,1.18s.53,1.18,1.18,1.18h13.99c.65,0,1.18-.53,1.18-1.18s-.53-1.18-1.18-1.18Z"/><path class="cls-28" d="m141.98,114.87c0,.31,3.46.57,7.74.57s7.74-.25,7.74-.57v-4.55h-15.47v4.55Z"/><path class="cls-15" d="m144.13,101.87c-2.96,2-5.24,4.82-5.9,7.89-.66,3.05-.51,4.98,3.57,5.9-1.54-1.08-1.48-2.7-1.01-4.89.67-3.07,2.94-5.9,5.9-7.89,1.54-1.04,3.75-1.74,5.85-1.74.75,0,1.5.1,2.21.27-1.36-.77-3.06-1.28-4.78-1.28-2.1,0-4.31.7-5.85,1.74Z"/><path class="cls-16" d="m149.71,109.75c-4.27,0-7.74.25-7.74.57s3.46.57,7.74.57,7.74-.25,7.74-.57-3.46-.57-7.74-.57Z"/><path class="cls-30" d="m149.5,100.64c-.59,0-1.89,5.2-1.63,7.04.26,1.84,1.42,1.63,1.42,1.63,1.52-.1,1.89-.75,1.89-1.99,0-2-.84-6.67-1.68-6.67Z"/><path class="cls-10" d="m149.5,107.31c-.12,0-.21.09-.21.21v2.59c0,.12.09.21.21.21s.21-.09.21-.21v-2.59c0-.12-.09-.21-.21-.21Z"/><path class="cls-1" d="m153.7,111.04h-2.26c-.42,0-.77.94-.77,2.1s.34,2.1.77,2.1h2.26c.43,0,.77-.94.77-2.1s-.34-2.1-.77-2.1Z"/><path class="cls-22" d="m156.39,89.66h-5.97c-.49,0-.89.4-.89.89s.4.88.89.88h5.97c.49,0,.89-.4.89-.88s-.4-.89-.89-.89Z"/><g class="cls-39"><rect class="cls-6" x="130.25" y="80.55" width="19.28" height="38.52"/></g><path class="cls-19" d="m167.12,117.78c0,.33,3.69.6,8.24.6s8.25-.27,8.25-.6v-4.85h-16.49v4.85Z"/><path class="cls-16" d="m175.37,112.33c-4.55,0-8.24.27-8.24.6s3.69.6,8.24.6,8.25-.27,8.25-.6-3.69-.6-8.25-.6Z"/><path class="cls-30" d="m175.15,102.62c-.63,0-2.02,5.54-1.74,7.5.28,1.96,1.51,1.74,1.51,1.74,1.62-.11,2.01-.8,2.01-2.13,0-2.13-.9-7.11-1.79-7.11Z"/><path class="cls-10" d="m175.14,109.72c-.12,0-.22.1-.22.22v2.76c0,.12.1.23.22.23s.22-.1.22-.23v-2.76c0-.12-.1-.22-.22-.22Z"/><path class="cls-1" d="m179.62,113.71h-2.41c-.45,0-.82,1-.82,2.24s.37,2.24.82,2.24h2.41c.45,0,.82-1,.82-2.24s-.37-2.24-.82-2.24Z"/><path class="cls-19" d="m228.59,117.98c0,.33,3.69.6,8.24.6s8.25-.27,8.25-.6v-4.85h-16.49v4.85Z"/><path class="cls-16" d="m236.84,112.53c-4.55,0-8.24.27-8.24.6s3.69.6,8.24.6,8.25-.27,8.25-.6-3.69-.6-8.25-.6Z"/><path class="cls-30" d="m236.62,102.82c-.63,0-2.02,5.54-1.74,7.5.28,1.96,1.51,1.74,1.51,1.74,1.62-.11,2.01-.8,2.01-2.13,0-2.13-.9-7.11-1.79-7.11Z"/><path class="cls-10" d="m236.61,109.93c-.12,0-.22.1-.22.22v2.76c0,.12.1.23.22.23s.22-.1.22-.23v-2.76c0-.12-.1-.22-.22-.22Z"/><path class="cls-1" d="m241.09,113.91h-2.41c-.45,0-.82,1-.82,2.24s.37,2.24.82,2.24h2.41c.45,0,.82-1,.82-2.24s-.37-2.24-.82-2.24Z"/></svg>