<?xml version="1.0" encoding="UTF-8"?><svg id="Capa_2" xmlns="http://www.w3.org/2000/svg" viewBox="0 0 50.93 73.53"><defs><style>.cls-1{fill:#57846c;stroke-width:0px;}</style></defs><g id="Capa_1-2"><path class="cls-1" d="m39.53,31.78c3.15-.08,5.69.93,7.81,2.9,2.21,2.05,3.53,4.57,3.55,7.63.04,5.27.04,10.54,0,15.8-.04,5.57-4.96,10.46-10.54,10.53-2.07.02-4.15,0-6.22.01-1.94.01-2.78.87-2.81,2.81,0,.2,0,.41,0,.61-.05.97-.52,1.49-1.33,1.45-.88-.05-1.21-.59-1.26-1.42-.15-2.27.23-4.28,2.44-5.5.74-.41,1.52-.53,2.35-.55,2.31-.04,4.62.09,6.93-.1,3.96-.32,7.77-3.31,7.85-8.85.06-4.59.06-9.18,0-13.76-.07-5.35-3.73-8.92-9.06-8.95-1.89-.01-3.77-.02-5.65.47-3.55.92-7,.27-10.38-.98-1.23-.45-2.58-1.22-3.82-.48-2.22,1.33-4.58.95-6.92.97-5.62.05-9.27,3.66-9.28,9.27,0,4.69,0,9.38,0,14.07,0,.82-.07,1.61-.31,2.41-.48,1.58.26,2.87,1.81,3.33,1.31.39,2.64-.45,3.1-1.93.15-.47.15-.94.15-1.41,0-5.27,0-10.54,0-15.8,0-3.14,2.02-5.17,5.15-5.17,8.46,0,16.93,0,25.39,0,3.06,0,5.09,2.05,5.09,5.12,0,3.98,0,7.95,0,11.93,0,3.07-2.04,5.1-5.1,5.12-2.04,0-4.08-.03-6.12.01-1.59.04-3.1-.14-4.56-.83-2.35-1.11-4.62.62-4.93,2.69-.19,1.24.3,2.24,1.14,3.13,1.42,1.51,2.32,3.26,2.43,5.36.06,1.19-.3,1.75-1.12,1.86-.84.1-1.34-.34-1.51-1.51-.23-1.65-1.14-2.89-2.05-4.23-.93-1.35-1.96-1.72-3.46-1.59-1.28.11-2.58-.02-3.87.03-1.64.06-3.1-.38-4.32-1.47-.46-.41-.75-.35-1.2.04-2.04,1.77-4.58,1.94-6.66.52-2.01-1.38-2.76-3.88-1.86-6.34.18-.5.22-.99.22-1.5,0-4.72.13-9.45-.04-14.17-.18-5.13,3.3-9.74,7.96-11.07.75-.21,1.16-.6,1.52-1.31,1.59-3.14,4.14-4.97,7.71-5.22.82-.06,1.52-.34,2.19-.74,4.12-2.45,5.76-6.94,4.39-11.84-.59-2.09-1.53-4.07-1.78-6.26-.23-1.94-.02-3.87.13-5.8.05-.7.57-1.07,1.28-1.05.71.01,1.16.4,1.24,1.1.06.54.07,1.09.02,1.63-.28,2.94.35,5.71,1.35,8.47,1.06,2.91,1.51,5.93.47,8.99-1.21,3.57-3.58,6.11-6.93,7.76-.88.43-1.87.32-2.8.5-1.69.32-3.03,1.15-4.09,2.47-.16.2-.43.41-.28.71.13.26.42.16.65.16,1.48,0,2.89,0,4.33-.75,1.68-.88,3.57-.63,5.36-.01,2.25.77,4.51,1.43,6.94,1.49,4.37.11,7.45-1.95,9.74-5.44,2.18-3.33,2.97-7.11,3.31-11.01.13-1.46.2-2.89-.19-4.34-1.15-4.27-6.6-7.23-11.01-4.11-.98.7-1.98,1.07-3.12.44-1.09-.6-1.39-1.59-1.38-2.75,0-1.26-.01-2.51-.03-3.77,0-.86.3-1.48,1.25-1.53.95-.04,1.32.52,1.35,1.41.04,1.02.15,2.03.14,3.05,0,.78.16.97.88.52,1.48-.91,3.09-1.34,4.84-1.34,5.47,0,10,4.49,10.03,9.97.03,5.66-1.09,11-4.37,15.74-.29.42-.63.8-.96,1.19-.31.36-.65.69-1.16,1.24Zm-13.74,9.95c-4.11,0-8.22-.01-12.34,0-1.91,0-2.91,1-2.92,2.9-.02,5-.02,9.99,0,14.99.01,2.43,1.53,3.94,3.96,3.98,1.36.02,2.72-.06,4.08.03,1.08.07,1.66-.12,1.77-1.39.08-.87-.14-.97-.86-.94-1.02.04-2.04,0-3.06,0-.66,0-1.28-.16-1.84-.51-1.46-.89-2.1-2.62-1.62-4.36.43-1.56,1.79-2.61,3.48-2.62,5.81-.02,11.62,0,17.43,0,1.43,0,2.16-.41,2.14-1.18-.02-.74-.73-1.12-2.09-1.12-4.96,0-9.92,0-14.89,0-2.28,0-3.77-1.54-3.76-3.78.01-2.18,1.52-3.68,3.75-3.69,2.85-.02,5.71,0,8.56,0,1.22,0,2.45-.02,3.67.02.8.02,1.27.47,1.27,1.29,0,.82-.49,1.23-1.29,1.28-.3.02-.61.01-.92.01-3.47,0-6.93,0-10.4,0-1.27,0-1.97.4-1.99,1.12-.03.76.69,1.18,2.03,1.18,5,0,9.99-.01,14.99,0,2.21,0,3.71,1.54,3.71,3.72,0,2.23-1.51,3.75-3.8,3.75-5.88.01-11.76,0-17.64,0-1.08,0-1.75.47-1.74,1.16.01.69.68,1.13,1.77,1.13,1.36,0,2.72-.02,4.08.01.73.02,1.38-.13,2.03-.49,1.81-1.01,3.7-1.01,5.59-.21.6.26,1.2.48,1.85.56,2.34.28,4.68.09,7.02.12,2.21.03,3.14-.95,3.14-3.18,0-3.53,0-7.07,0-10.6,0-2.23-.94-3.18-3.15-3.18-4.01,0-8.02,0-12.03,0Z"/><path class="cls-1" d="m34.32,20.93c-.65,0-1.33.07-1.71-.62-.33-.6-.26-1.19.25-1.67.5-.46,2.41-.46,2.91,0,.52.47.59,1.06.26,1.66-.38.69-1.06.63-1.71.62Z"/><path class="cls-1" d="m29.38,25.86c-.35-.05-.74-.03-1.08-.16-.67-.26-.9-.83-.73-1.49.29-1.12,1.23-.96,2.08-.98.77-.02,1.46.14,1.64,1.02.14.67-.1,1.23-.78,1.47-.34.12-.73.1-1.13.15Z"/><path class="cls-1" d="m36.78,23.22c.3.02.62,0,.91.07.75.19,1.07.73.94,1.46-.2,1.15-1.12,1.07-1.99,1.08-.84,0-1.61-.1-1.75-1.12-.1-.74.23-1.26.98-1.43.29-.07.61-.04.91-.06Z"/><path class="cls-1" d="m31.88,30.72c-.61,0-1.26.08-1.66-.52-.41-.61-.36-1.24.18-1.75.49-.46,2.41-.47,2.91-.01.56.5.61,1.12.22,1.75-.39.61-1.04.55-1.65.54Z"/><path class="cls-1" d="m36.79,46.6c-.27,0-.55.04-.81,0-.75-.12-1.12-.59-1.1-1.34.02-.82.56-1.2,1.66-1.22,1.48-.03,2.05.28,2.11,1.17.05.75-.3,1.24-1.05,1.39-.26.05-.54.03-.81.04,0-.01,0-.02,0-.03Z"/></g></svg>