<?xml version="1.0" encoding="UTF-8"?><svg id="Capa_2" xmlns="http://www.w3.org/2000/svg" viewBox="0 0 66.79 76.71"><defs><style>.cls-1{fill:#57846c;stroke-width:0px;}</style></defs><g id="Capa_1-2"><path class="cls-1" d="m51.86,64.56c-.4-5.62.58-12.36.99-19.12.15-2.56.33-5.13.25-7.7-.02-.55,0-1.1,0-1.65,0-.84.36-1.41,1.26-1.44.88-.03,1.28.49,1.36,1.34.15,1.5.14,3,.05,4.51-.11,1.85-.09,3.7-.18,5.55-.03.61.23.61.67.52,2.36-.48,4.66-1.14,6.86-2.12.49-.22.77-.5.54-1.12-1.79-4.82-3.53-9.65-6.07-14.15-.67-1.19-1.56-2.15-2.73-2.87-5.28-3.24-10.84-5.76-17.1-6.27-2.25-.18-4.52.16-6.74.57-4.77.88-9.37,2.34-13.65,4.68-1.7.93-3.17,2.12-4.41,3.64-2.93,3.59-5.59,7.37-8.22,11.17-.35.5-.31.81.1,1.23,2.1,2.18,4.33,4.2,6.78,5.97.54.39.93.43,1.44-.01.86-.74,1.74-1.45,2.65-2.12.5-.37.6-.74.39-1.32-.66-1.84-1.27-3.69-2.1-5.47-.13-.28-.26-.57-.32-.86-.12-.67.03-1.26.71-1.54.68-.28,1.31-.13,1.69.53.33.56.61,1.15.85,1.75,1.81,4.49,3.32,9.07,4.1,13.86.12.74.13,1.5.13,2.25,0,.8-.42,1.31-1.25,1.33-.82.03-1.26-.43-1.35-1.24-.23-2.08-.61-4.13-1.14-6.16-.17-.67-.37-.82-.93-.35-.86.73-1.75,1.44-2.62,2.15-.37.3-.75.61-1.25.67-.27.03-.6.01-.64.38-.04.34.28.43.51.57,4.1,2.56,7.74,5.66,11.06,9.15,1.25,1.31,2.44,2.69,3.33,4.29,1.85,3.34-.71,7.83-4.5,7.81-.94,0-1.34.25-1.21,1.21.04.3.01.62,0,.92-.03,1.06-.49,1.61-1.33,1.57-.96-.05-1.28-.66-1.28-1.53,0-.89-.03-1.78,0-2.67.02-.62-.21-1.07-.58-1.57-2.41-3.29-5.69-5.62-8.88-8.05-2.05-1.56-4.01-3.2-5.91-4.94-3.02-2.76-3.73-6.08-2.82-9.91.39-1.64.81-3.27,1.64-4.74.31-.54.12-.87-.23-1.26-.62-.7-.67-1.45-.12-2.25,2.78-4.08,5.65-8.09,8.67-11.99,2.77-3.58,6.54-5.54,10.6-7.14,2.02-.79,2.03-.76,1.51-2.77-.15-.6-.37-1.22-.32-1.81.12-1.35-.53-2.29-1.3-3.3-1.26-1.65-2.13-3.51-2.34-5.63-.15-1.49.4-2.15,1.87-2.08.87.04,1.51-.33,2.13-.86,1.06-.91,2.04-1.93,3.24-2.68,2.71-1.69,5.63-1.79,8.63-1.14,1.4.3,2.81.69,4.13,1.22,2.65,1.07,3.42,3.39,3.62,5.97.21,2.65-.33,5.26-.69,7.87-.3,2.19-.31,2.17,1.85,2.76,4.39,1.21,8.49,3.07,12.41,5.38,2.05,1.21,3.56,2.85,4.67,4.92,2.61,4.88,4.54,10.05,6.32,15.27.31.91.04,1.59-.69,2.17-.95.76-2.06,1.22-3.18,1.64-2.12.8-4.31,1.35-6.53,1.8-.68.14-.97.41-1.02,1.14-.26,3.55-.74,7.08-.76,10.65,0,.26-.13.63.12.77.34.2.53-.19.76-.37.85-.69,1.66-1.44,2.53-2.1,2.78-2.14,3.92-5.01,3.85-8.44-.01-.58-.02-1.17.04-1.75.07-.68.51-1.02,1.18-1.06.65-.03,1.28.19,1.32.87.21,3.59.3,7.16-2.33,10.11-1.37,1.54-2.79,3.09-4.53,4.16-2.46,1.52-3.31,3.5-2.97,6.31.22,1.79.05,3.63.04,5.44,0,1.07-.46,1.6-1.31,1.6-.85,0-1.29-.53-1.3-1.61-.01-3.12,0-6.24,0-10.54Zm-27.18,2.7c.03-.78-.46-1.38-.94-1.94-3.97-4.63-8.32-8.82-13.71-11.79-1.51-.83-1.7-1.4-.93-2.97.09-.18.18-.37.29-.55.27-.45.23-.79-.23-1.13-1.43-1.06-2.8-2.21-4.06-3.46-.62-.62-.94-.44-1.21.31-.55,1.56-.84,3.16-1.1,4.79-.28,1.72.28,3.07,1.34,4.34,2.16,2.57,4.82,4.56,7.5,6.53,2.92,2.16,5.93,4.2,8.01,7.29.26.39.63.73,1.02,1.01.84.62,1.76.96,2.77.41,1.12-.6,1.02-1.77,1.26-2.84Zm7.82-53.4c1.73.05,3.42-.13,5.06-.7.68-.23,1.4-.44,1.58-1.3.41-1.97.52-3.94-.09-5.89-.24-.77-.66-1.47-1.46-1.76-1.9-.7-3.82-1.35-5.85-1.52-2.45-.21-4.48.74-6.22,2.41-1.06,1.02-2.06,2.11-3.54,2.57-.53.17-.5.61-.3,1.01.37.77.77,1.53,1.17,2.28.37.69.81.94,1.65.54,1.65-.79,3.4-.35,4.36,1.15.59.92,1.32,1.2,2.3,1.2.45,0,.89,0,1.34,0Zm-6.23,4.99c.1-.02.2-.03.3-.05,3.63-.92,7.29-1.6,11.07-1.45.74.03.86-.52.82-1.04-.05-.77-.61-.33-.93-.26-2.7.62-5.41.75-8.16.43-1.2-.14-2.09-.54-2.48-1.77-.14-.44-.36-.97-1.01-.77-.62.19-1.09.49-1.08,1.28.01,1.09.3,2.1.71,3.08.13.32.31.63.76.55Z"/><path class="cls-1" d="m38.42,59.43c-.02.53-.26.92-.72,1.16-1.58.81-3.15,1.64-4.76,2.4-.85.4-1.65.12-1.92-.58-.32-.85,0-1.46.78-1.86,1.49-.76,2.97-1.55,4.49-2.25,1.15-.54,2.17.05,2.13,1.14Z"/><path class="cls-1" d="m7.58,22.39c-.03,1.06-1.21,1.71-2.08,1.02-1.46-1.17-2.77-2.53-3.97-3.96-.43-.51-.38-1.18.11-1.69.49-.51,1.16-.59,1.68-.17,1.48,1.21,2.8,2.59,4.05,4.03.18.21.22.49.21.77Z"/><path class="cls-1" d="m27.4,56.97c-1.23-.02-1.89-1.19-1.19-2.06,1.16-1.47,2.53-2.77,3.96-3.98.51-.43,1.18-.38,1.69.1.51.48.6,1.15.18,1.68-1.2,1.48-2.58,2.8-4.03,4.05-.19.16-.5.18-.61.22Z"/><path class="cls-1" d="m60.63,22.42c-.52,0-.94-.19-1.18-.66-.28-.53-.28-1.1.13-1.53,1.17-1.24,2.37-2.46,3.6-3.63.59-.56,1.35-.76,2.02-.11.67.66.48,1.42-.08,2.01-1.17,1.23-2.41,2.41-3.63,3.6-.22.22-.52.32-.85.31Z"/><path class="cls-1" d="m36.91,71.87c-1.74-.46-3.5-.89-5.23-1.41-.67-.2-.89-.83-.75-1.5.15-.71.66-1.08,1.35-.98,1.86.27,3.68.72,5.44,1.36.67.24.82.89.64,1.55-.2.7-.75.92-1.45.98Z"/><path class="cls-1" d="m13.75,17.28c0,.63-.2,1.08-.73,1.32-.51.22-1.08.22-1.43-.2-1.1-1.31-2.08-2.72-2.83-4.26-.27-.54-.06-1.17.53-1.51.56-.33,1.19-.33,1.61.16,1.07,1.25,1.92,2.66,2.76,4.07.08.14.08.33.1.43Z"/><path class="cls-1" d="m58.18,13.5c-.03.64-.18,1.03-.41,1.37-.74,1.11-1.48,2.21-2.25,3.29-.47.67-1.14.74-1.81.35-.67-.39-.83-1.07-.46-1.68.8-1.34,1.69-2.64,2.59-3.92.36-.51.94-.67,1.56-.4.52.23.8.62.77.99Z"/></g></svg>