<?xml version="1.0" encoding="UTF-8"?><svg id="Capa_2" xmlns="http://www.w3.org/2000/svg" viewBox="0 0 63.47 51.82"><defs><style>.cls-1{fill:#57846c;stroke-width:0px;}</style></defs><g id="Capa_1-2"><path class="cls-1" d="m26.85,13.38c.66-.66.75-1.35.75-2.08,0-2.72,0-5.44,0-8.16,0-.41.02-.83.09-1.23.17-1.01.76-1.62,1.78-1.78,1.36-.21,2.74-.15,4.11-.05,1.52.1,2.25.98,2.26,2.59.02,2.88,0,5.77,0,8.65,0,.59,0,1.19.55,1.76.1-.66-.1-1.18-.17-1.7-.36-2.66.79-5.21,3-6.47,2.46-1.4,4.94-1.36,7.18.38,3.11,2.42,6.33,4.76,8.66,8.04,1.39,1.96,2.43,4.11,3.48,6.26,1.34,2.76,2.95,5.4,3.95,8.33.58,1.7.92,3.44.92,5.25,0,4.42-.1,8.85.04,13.26.09,2.65-1.7,5.34-5.09,5.34-3.84,0-7.69.17-11.53-.12-5.6-.41-10.93-5.32-11.67-11-.67-5.17-.52-10.35.74-15.46.22-.91.43-1.82.66-2.72.13-.49.02-.83-.44-1.1-1.11-.65-2.21-1.34-3.3-2.02-.73-.45-1.44-.47-2.17-.01-1.09.68-2.19,1.37-3.3,2.03-.49.29-.62.63-.46,1.16,1.47,4.92,1.82,9.96,1.69,15.07-.14,5.66-2.46,9.99-7.54,12.68-1.74.92-3.63,1.4-5.62,1.4-3.52-.01-7.03,0-10.55,0-2.87,0-4.86-2.01-4.87-4.88,0-4.17.06-8.35-.02-12.52-.06-3.32.69-6.42,2.18-9.36,1.38-2.72,2.74-5.44,4.11-8.17,1.67-3.35,4.01-6.15,6.94-8.46,1.08-.85,2.14-1.72,3.2-2.59,2.39-1.95,5.14-2.29,7.58-.93,2.44,1.36,3.58,3.89,3.14,6.95-.07.51-.18,1.02-.3,1.68Zm21.52,7.91c-.64-.58-1.17-1.05-1.67-1.54-.62-.62-.68-1.2-.2-1.64.59-.53,1.11-.27,1.59.2.76.75,1.55,1.49,2.27,2.28.47.52.99.7,1.67.68,1.07-.04,2.14-.03,3.21,0,.61.02,1.1.28,1.1.97,0,.71-.47,1-1.12,1.05-.25.02-.5.03-.74,0-.58-.04-.86.17-.85.8.02,1.68.01,3.35.01,5.03,0,.67.26,1.22.73,1.69.41.41.83.81,1.18,1.26.32.4.23.83-.11,1.19-.32.34-.75.47-1.12.19-1.26-.95-2.41-2.01-2.69-3.69-.09-.51.2-1.13-.19-1.5-.39-.37-1-.09-1.51-.16-.62-.08-1.07-.38-1.06-1.03,0-.61.44-.93,1.02-.98.38-.04.77-.03,1.15-.03.57,0,.64-.41.55-.79-.16-.65.53-1.63-.48-1.9-.76-.2-1.64-.08-2.45.02-.84.11-1.43.72-1.89,1.37-.33.47.13.94.27,1.38,1.21,3.66,2.93,7.2,2.51,11.23-.06.56.39.56.8.56.43,0,.77-.06.76-.61,0-.69-.02-1.37.03-2.06.03-.54.38-.85.91-.89.55-.04.87.27.99.79.15.62.11,1.26.09,1.89-.01.55.13.88.75.92,2.67.2,4.12,2.22,5.76,3.93.34.35.3.82-.07,1.19-.34.35-.76.46-1.2.19-.23-.14-.44-.32-.64-.51-2.96-2.95-2.43-2.82-6.91-2.8-.05,0-.11,0-.16,0-1.13,0-1.45.48-.96,1.53.29.62.67,1.2,1.01,1.79.68,1.17,1.69,1.75,3.06,1.74.77,0,1.54,0,2.3.07.56.05.92.39.9.98-.02.62-.41.94-1.02.96-.6.02-1.21,0-1.81.02-2.26.09-4-.79-5.16-2.75-.36-.62-.6-.48-.88.04-.39.72-.79,1.45-1.22,2.15-.31.5-.79.7-1.35.41-.57-.3-.6-.81-.39-1.35.08-.2.2-.39.31-.58.6-1.05,1.19-2.1,1.8-3.14.22-.38.33-.77.2-1.18-.43-1.3-.86-2.61-1.34-3.89-.29-.76-.99-.39-1.52-.41-.54-.02-.44.46-.44.8-.01.82,0,1.65,0,2.47,0,.64-.27,1.1-.95,1.11-.67,0-.97-.43-.98-1.08,0-.85-.03-1.7,0-2.55.02-.54-.19-.78-.72-.89-1.52-.31-2.51-1.4-3.47-2.51-.35-.4-.33-.87.06-1.27.41-.41.88-.44,1.33-.08.36.29.69.63,1.01.97.64.68,1.39,1.05,2.34.98.46-.03.93,0,1.4,0,1.05,0,1.12-.1.72-1.07-1.02-2.49-2.31-4.86-3.55-7.25-.53-1.03-1.27-1.92-2.19-2.65-.36-.28-.6-.37-.73.19-.46,1.95-1,3.88-1.23,5.88-.35,3.09-.19,6.2-.16,9.3.06,5.9,5.11,10.88,11.01,10.92,3.46.03,6.92.01,10.38,0,1.89,0,2.96-1.07,2.96-2.96.01-4.39,0-8.79,0-13.18,0-2.17-.45-4.25-1.32-6.24-1.06-2.42-2.33-4.73-3.51-7.08-1.04-2.06-2.01-4.15-3.4-6.01-2.25-3.02-5.3-5.17-8.23-7.42-1.46-1.12-3.23-1.03-4.79.04-1.46,1-2.09,2.46-1.86,4.21.17,1.33.52,2.64.68,3.97.1.79.63,1.18,1.12,1.64.22.21.43.17.65-.02,1.18-1.06,2.12-2.23,2.01-3.95-.04-.66-.03-1.32.02-1.98.04-.56.39-.91.97-.93.55-.02.87.32.97.83.07.35.07.71.07,1.06.01,1.37,0,1.37,1.4,1.37.05,0,.11,0,.16,0,2.53-.39,4.21.99,5.71,2.76.37.44.43.89.02,1.33-.43.46-.92.47-1.39.06-.51-.46-.99-.95-1.48-1.43-.43-.41-.93-.68-1.54-.68-.88,0-1.76,0-2.64,0-.39,0-.7.11-.86.49-.38.88-1.03,1.56-1.72,2.18-.47.43-.44.71.03,1.11,1.19,1.02,2.32,2.1,3.07,3.51.17.32.37.38.65.14.58-.51,1.26-.85,2.21-1.17Zm-26.82-3c.83-.75,1.47-1.35,2.13-1.92.46-.39.74-.83.82-1.45.16-1.2.38-2.39.61-3.57.37-1.86-.37-3.71-1.89-4.65-1.63-1.02-3.53-.94-5.08.26-1.17.91-2.29,1.89-3.46,2.79-2.62,2.03-4.78,4.44-6.28,7.42-1.58,3.11-3.17,6.21-4.71,9.34-.98,1.99-1.59,4.11-1.61,6.34-.05,4.7-.04,9.39-.02,14.09,0,1.54,1.11,2.68,2.64,2.69,3.76.03,7.53.09,11.29-.04,4.92-.16,9.54-4.42,10.27-9.29.34-2.29.08-4.61.17-6.91.13-3.28-.52-6.44-1.35-9.59-.23-.89-.25-.88-.95-.29-1.83,1.51-2.61,3.7-3.66,5.7-.09.18-.12.39.02.54.7.77,1.37,1.6,2.58,1.55.52-.02,1.05-.02,1.56.05.53.07.83.45.82.98,0,.49-.3.82-.79.93-.21.05-.44.08-.65.06-.74-.08-1.06.19-1,.97.06.71.03,1.43,0,2.14-.03.64-.28,1.17-1,1.17-.72,0-.99-.51-1.02-1.16-.03-.77-.12-1.56.01-2.3.23-1.26-.7-1.73-1.39-2.39-.19-.18-.35-.1-.45.12-.11.22-.22.44-.32.67-1.07,2.65-1.88,5.39-2.84,8.08-.17.47-.09.9.17,1.33.66,1.11,1.3,2.23,1.93,3.36.39.7.31,1.29-.24,1.57-.69.36-1.15,0-1.49-.58-.42-.71-.84-1.42-1.23-2.14-.26-.49-.44-.47-.69,0-.41.76-.94,1.4-1.65,1.92-1.76,1.29-3.76,1-5.72.9-.48-.02-.74-.48-.72-.97.02-.49.31-.8.8-.91.63-.13,1.26-.07,1.89-.08,2.75-.01,5.06-2.5,4.85-5.26-.01-.16.04-.36-.13-.44-.23-.11-.34.12-.46.25-.94.92-1.86,1.86-2.82,2.77-.65.62-1.23.67-1.64.16-.5-.61-.19-1.11.27-1.58.54-.56,1.17-1.04,1.63-1.73-2.53-.39-3.34.02-4.39,2.21-.09.2-.19.4-.31.58-.33.46-.77.65-1.29.36-.49-.27-.69-.71-.45-1.26.2-.45.39-.91.62-1.35.89-1.75,2.32-2.66,4.29-2.68,1.02-.01,2.03,0,3.05,0,1.04,0,1.6-.58,1.64-1.62.02-.6.03-1.21.13-1.8.1-.61-.06-.84-.71-.82-1.07.03-2.22.26-3.18-.22-1.34-.67-2.22-.35-3.06.75-.4.52-1,.63-1.51.12-.51-.51-.32-1.06.12-1.53.34-.36.87-.66.98-1.08.16-.58-.63-.7-.92-1.1-.34-.47-.38-.92,0-1.35.35-.41.81-.47,1.25-.15.47.34.93.68,1.35,1.08,1.15,1.07,2.47,1.59,4.05,1.47.55-.04,1.1-.03,1.65,0,.52.03.79-.16.96-.67.65-1.95,1.32-3.9,2.02-5.84.16-.44.21-.78-.21-1.08-.52-.37-.67.18-.91.4-.78.73-1.52,1.51-2.29,2.25-.45.43-.98.55-1.45.04-.45-.49-.35-1.01.09-1.47.36-.38.75-.73,1.1-1.12.27-.3.68-.52.83-1.05-.88,0-1.67,0-2.47,0-.38,0-.77.02-1.15-.03-.6-.08-1.07-.39-1.04-1.06.03-.67.49-.93,1.12-.94.25,0,.5-.03.74,0,.67.08.89-.24.83-.87-.22-2.27,1.08-3.76,2.65-5.1.41-.35.87-.34,1.28,0,.45.38.46.88.13,1.33-.25.35-.56.69-.9.96-.96.77-1.2,1.77-1.13,2.94.03.51.18.75.72.75.79,0,1.51.24,2.18.66,1.25.79,1.27.78,2.12-.46.18-.27.23-.55.23-.86,0-.85-.02-1.7,0-2.55.03-1.17-.39-2.15-1.18-2.98-.38-.4-.77-.78-1.15-1.18-.17-.18-.36-.34-.52-.53-.41-.48-.5-1.01-.04-1.48.48-.48,1.04-.37,1.45.11.49.59.85.5,1.3-.03.46-.54,1-1.02,1.51-1.52.47-.46,1.03-.62,1.53-.13.52.5.32,1.06-.11,1.53-.37.4-.77.78-1.16,1.17-.94.94-.96.95-.34,2.08.69,1.24.8,2.6.74,4.21Zm-5.37,15.39c1.13-2.97,2.7-5.74,4.14-8.57.83-1.63,2.04-2.93,3.57-3.92,1.89-1.22,3.81-2.39,5.73-3.57,1.45-.89,2.9-.86,4.34.06,1.76,1.12,3.54,2.21,5.31,3.31,1.58.97,2.83,2.26,3.73,3.87,1.12,2.02,2.17,4.07,3.11,6.17.46,1.02.86,2.06,1.28,3.09-.56-2.88-1.76-5.54-2.6-8.32-.69-2.27-1.98-4.06-3.74-5.59-1.8-1.57-3.53-3.22-5.3-4.82-.83-.75-1.53-1.58-1.79-2.7-.11-.47-.4-.59-.84-.58-.93.02-1.87.03-2.8,0-.46-.01-.71.16-.82.6-.28,1.07-.94,1.9-1.75,2.63-1.89,1.71-3.74,3.47-5.66,5.16-1.45,1.28-2.58,2.75-3.19,4.61-.67,2.03-1.4,4.05-2.1,6.07-.28.8-.61,1.58-.61,2.48Zm15.62-25c-.49,0-.98.02-1.47,0-.54-.02-.71.24-.71.75,0,.48.11.79.68.78.95-.02,1.91-.02,2.86,0,.58,0,.65-.34.66-.8.02-.52-.17-.76-.71-.73-.43.03-.87,0-1.31,0Zm-.01-1.94c.41,0,.82-.01,1.23,0,.46.01.8-.05.8-.65,0-.56-.19-.81-.76-.79-.88.02-1.75.02-2.63,0-.53-.01-.82.14-.81.74,0,.63.36.71.85.7.44-.01.88,0,1.32,0Zm0-3.46c.46,0,.93,0,1.39,0,.39,0,.62-.12.62-.56,0-.45-.2-.65-.64-.65-.98,0-1.97,0-2.95,0-.41,0-.59.2-.59.61,0,.42.21.59.61.59.52,0,1.04,0,1.56,0Z"/></g></svg>