<?xml version="1.0" encoding="UTF-8"?><svg id="Capa_2" xmlns="http://www.w3.org/2000/svg" viewBox="0 0 46.6 56.31"><defs><style>.cls-1{fill:#57846c;stroke-width:0px;}</style></defs><g id="Capa_1-2"><path class="cls-1" d="m46.6,6.33c0,1,0,2,0,3-.01,1.44-.79,2.58-2.12,3.11-1.28.51-2.68.24-3.61-.8-.42-.46-.67-.49-1.07-.02-.49.57-1.27,1.01-1.51,1.65-.23.65.51,1.29.79,1.95,3.56,8.49-.97,17.85-9.89,20.16-1.42.37-2.38.95-3.28,2.07-1.86,2.32-4.32,3.84-7.2,4.61-.86.23-.57.83-.6,1.33-.03.65.49.48.84.48,2.2.03,3.52.98,3.84,2.8.35,1.97-1.19,3.84-3.18,3.88-1.51.03-1.56.04-1.5,1.58.05,1.47-.21,2.77-1.55,3.62-2.13,1.36-4.9,0-5.14-2.5-.06-.63-.09-1.26-.08-1.89.01-.58-.16-.87-.79-.81-.41.03-.83.03-1.24-.04-1.57-.27-2.78-1.91-2.65-3.54.13-1.67,1.53-3.03,3.15-3.09.17,0,.34.02.51,0,.39-.05.95.22,1-.5.04-.62.08-1.18-.77-1.39-1.3-.32-2.51-.91-3.65-1.64-.58-.37-.75-.88-.47-1.35.27-.46.81-.58,1.41-.22,1.39.83,2.86,1.46,4.46,1.76.58.11.89.5.9,1.08.02,1,.02,2,0,2.99-.02.67-.4,1.03-1.07,1.05-.68.02-1.36,0-2.05.03-.93.04-1.64.73-1.62,1.55.02.81.69,1.46,1.59,1.5.66.03,1.32,0,1.97.02.82.04,1.15.35,1.17,1.18.03.95,0,1.9.02,2.85.02,1,.59,1.62,1.48,1.65.93.02,1.55-.59,1.58-1.62.02-.95,0-1.9.02-2.85.02-.86.35-1.18,1.21-1.21.66-.02,1.32.01,1.97-.02.91-.04,1.5-.68,1.49-1.56-.02-.84-.6-1.44-1.48-1.49-.68-.03-1.36,0-2.05-.02-.78-.03-1.11-.35-1.14-1.13-.03-.9-.02-1.8,0-2.7.01-.91.21-1.15,1.1-1.34,2.7-.58,4.99-1.89,6.87-3.92.15-.17.46-.31.33-.59-.09-.21-.38-.17-.59-.2-.77-.13-1.54-.25-2.3-.42-.33-.07-.58-.05-.87.17-5.4,4.09-12.69,2.1-15.27-4.16-1.43-3.48-.51-7.76,2.28-10.52,2.78-2.76,7.06-3.62,10.55-2.14,4.04,1.72,6.31,5.28,6.18,9.76-.01.38.11.54.46.58.74.1,1.46-.03,2.18-.14.49-.07.46-.49.46-.86-.04-4.99-2.15-8.86-6.44-11.38-7.62-4.48-17.34-.11-19.12,8.54-.81,3.96.1,7.53,2.57,10.72.09.12.18.23.27.34.35.45.4.91-.04,1.3-.47.42-.95.3-1.35-.15-.87-.97-1.58-2.05-2.12-3.23C-2.73,25.16,2.56,15.03,12.37,13.29c.5-.09.81-.3,1.11-.7,3.23-4.36,7.57-6.44,12.99-6.22,2.22.09,4.31.76,6.25,1.85.44.25.73.25,1.07-.14.42-.47.87-.92,1.34-1.34.36-.33.33-.53-.03-.86-1.77-1.66-1.48-4.23.6-5.44,1.11-.64,2.32-.41,3.5-.32.41.03.64.46.58.89-.06.46-.37.75-.83.8-.48.05-.97.02-1.46.04-.99.03-1.64.6-1.69,1.46-.05.77.5,1.42,1.4,1.6.43.09.79.24.95.69.16.47-.1.79-.4,1.09-1.14,1.13-2.27,2.28-3.41,3.41-.67.66-.92.68-1.72.19-3.87-2.4-7.93-2.76-12.16-1.07-1.79.72-3.3,1.86-4.6,3.29-.37.41-.31.63.24.66.85.06,1.69.18,2.51.44.41.13.69-.12.98-.34,2.44-1.79,5.14-2.36,8.09-1.75,6.98,1.45,10.04,10.13,5.53,15.71-4.59,5.68-13.43,4.67-16.59-1.91-.73-1.52-1.04-3.14-.92-4.82.04-.5-.09-.63-.57-.65-2.41-.09-2.61.1-2.47,2.51.29,4.95,4.24,9.78,9.11,11.13,6.76,1.88,13.35-1.34,15.84-7.88,1.52-3.97,1.02-7.85-1.2-11.48-.59-.96-.57-1.13.24-1.94,1.08-1.09,2.17-2.17,3.26-3.25.3-.3.6-.59,1.08-.46.49.14.65.52.74.98.17.88.84,1.44,1.61,1.38.84-.07,1.42-.7,1.43-1.64.02-1.9.02-3.8,0-5.7-.01-1.05-.56-1.57-1.64-1.65-.24-.02-.49-.02-.72-.1-.41-.14-.62-.46-.58-.9.04-.44.29-.7.73-.79,2.1-.39,3.99,1.14,4.01,3.28.01,1,0,2,0,3Zm-25.5,8.16c.23.13.37.21.52.29,3.46,1.86,5.83,4.64,7.12,8.34.48,1.36.78,2.77.75,4.22-.01.59.19.64.62.31.15-.12.32-.22.47-.35,2.77-2.21,3.72-6.17,2.25-9.45-1.46-3.27-4.97-5.2-8.46-4.65-1.16.18-2.25.54-3.28,1.28Zm-6.23,21.36c1.27-.05,2.61-.35,3.85-1.04.42-.23.42-.37,0-.61-4.91-2.71-7.51-6.89-7.97-12.45-.02-.21.09-.49-.16-.59-.23-.09-.39.14-.56.27-2.74,2-3.91,5.66-2.86,8.92,1.04,3.23,4.16,5.5,7.71,5.51Zm7.86-8.55c-.25-2.91-1.71-5.15-4.39-6.58-.7-.38-.86-.27-.81.53.16,2.99,1.47,5.3,4.08,6.82.3.17.64.54.98.33.29-.18.09-.64.14-1.09Z"/></g></svg>