<?xml version="1.0" encoding="UTF-8"?><svg id="Capa_2" xmlns="http://www.w3.org/2000/svg" viewBox="0 0 51.35 57.08"><defs><style>.cls-1{fill:#57846c;stroke-width:0px;}</style></defs><g id="Capa_1-2"><path class="cls-1" d="m24.46,44.48c0-1.68-.01-3.36,0-5.04,0-.53-.11-.79-.73-.82-1.57-.09-2.55-1.19-2.56-2.78,0-.67-.03-1.33,0-2,.04-.6-.15-.86-.79-.82-.71.05-1.43.02-2.15,0-1.5-.02-2.63-1.11-2.67-2.6-.03-1.26-.03-2.52,0-3.78.04-1.5,1.17-2.59,2.66-2.61.79-.01,1.58-.01,2.37,0,.41,0,.58-.16.57-.57-.01-.77,0-1.53,0-2.3.02-1.53,1.01-2.63,2.54-2.73.52-.03.75-.17.74-.73-.02-3.88.01-7.75-.02-11.63-.02-2.01-1.49-3.47-3.55-3.69-1.6-.17-3.33,1.09-3.8,2.73-.14.5-.08.82.37,1.13.74.5,1.34,1.17,1.78,1.96.39.69.27,1.32-.29,1.7-.61.41-1.22.28-1.71-.42-.8-1.14-1.83-1.9-3.23-2.17-.87-.17-1.27-.67-1.21-1.33.06-.64.47-1,1.36-1.05.44-.02.52-.29.62-.6.58-1.76,1.7-3.05,3.39-3.81,2.34-1.06,5.17-.53,6.96,1.35.42.44.6.49,1.06.02,3.1-3.24,8.52-2.21,10.14,1.95.34.86.69,1.1,1.63,1.04,3.17-.19,6.19,2.29,6.83,5.44.15.73.25,1.47.12,2.2-.08.42.09.63.39.86,3.9,3.04,4.77,7.64,2.2,11.84-.27.45-.18.65.18.96,5.3,4.58,4.76,12.23-1.13,16.07-.4.26-.55.56-.55,1.03-.06,3.83-2.31,6.95-5.92,8.2-.4.14-.6.35-.75.72-2.2,5.47-9.42,6.55-13.16,1.96-.4-.49-.6-.53-1.02-.01-3.78,4.63-10.91,3.54-13.18-2.01-.14-.35-.35-.53-.71-.66-3.62-1.26-5.88-4.38-5.93-8.18,0-.51-.18-.8-.6-1.07-5.84-3.76-6.37-11.48-1.1-16.03.4-.35.45-.56.16-1.02-2.54-4.1-1.64-8.8,2.22-11.78.29-.22.46-.43.43-.85-.05-.69.4-1.18,1-1.25.66-.08,1.22.28,1.35.98.27,1.5,1.01,2.64,2.29,3.47.6.39.71,1.07.37,1.63-.32.52-1.02.7-1.64.38-.85-.44-1.54-1.08-2.08-1.86-.28-.4-.47-.44-.86-.11-2.33,1.99-2.77,5.83-.94,8.27.3.4.62.49,1.09.34.87-.28,1.53.01,1.75.71.22.71-.15,1.28-1.04,1.58-3.25,1.12-5.24,3.77-5.28,7.02-.04,3.23,1.88,6.02,4.92,7.13,1.38.5,2.8.52,4.23.24.91-.18,1.5.13,1.66.81.17.71-.18,1.27-.96,1.51-1.25.38-2.54.37-3.82.2-.69-.09-.76.17-.67.73.48,3.17,3.63,5.55,6.81,5.14.37-.05.73-.13,1.1-.17.65-.07,1.2.3,1.35.9.14.59-.19,1.18-.81,1.4-.3.11-.62.17-.93.23-.77.15-.79.22-.29.86,2.41,3.05,7.41,2.4,8.95-1.17.31-.71.47-1.45.46-2.23,0-1.6,0-3.21,0-4.81Zm2.44,0c0,1.6,0,3.21,0,4.81,0,.78.15,1.52.46,2.23,1.61,3.59,6.42,4.28,8.99,1.12.34-.42.46-.72-.26-.8-.32-.03-.63-.11-.94-.21-.67-.21-1.03-.81-.89-1.42.15-.62.71-.98,1.42-.89.34.05.68.11,1.02.15,3.19.42,6.33-1.96,6.82-5.13.08-.55.03-.83-.66-.73-1.1.16-2.22.15-3.32-.07-1.16-.23-1.61-.72-1.48-1.56.13-.8.76-1.06,1.96-.84,1.36.25,2.71.18,4.01-.31,3.01-1.13,4.9-3.9,4.86-7.1-.04-3.25-2.03-5.91-5.27-7.03-.89-.31-1.26-.86-1.05-1.58.21-.7.88-1,1.74-.72.47.15.79.07,1.09-.33,1.85-2.45,1.38-6.39-.99-8.32-.33-.27-.51-.27-.76.08-.54.78-1.22,1.42-2.05,1.89-.65.36-1.37.21-1.71-.33-.36-.57-.21-1.23.42-1.67.43-.3.83-.62,1.17-1.02,1.25-1.43,1.41-3.61.4-5.25-1.04-1.69-2.97-2.49-4.83-2.07-1.26.29-2.16,1.01-2.89,2.04-.54.75-1.14.9-1.76.48-.6-.4-.69-1.06-.22-1.83.44-.73,1-1.36,1.7-1.83.45-.3.52-.63.37-1.13-.47-1.64-2.19-2.9-3.8-2.73-2.05.21-3.53,1.69-3.55,3.69-.04,3.88,0,7.75-.02,11.63,0,.56.22.7.74.73,1.53.1,2.53,1.2,2.55,2.72,0,.74.02,1.48,0,2.22-.02.48.16.67.64.65.76-.02,1.53-.01,2.3,0,1.46.02,2.61,1.09,2.66,2.54.04,1.31.05,2.62,0,3.92-.05,1.45-1.21,2.51-2.67,2.53-.74.01-1.48.03-2.22,0-.56-.03-.74.2-.71.74.03.71.01,1.43,0,2.15-.02,1.53-1.02,2.63-2.55,2.71-.62.03-.74.28-.73.82.02,1.68,0,3.36,0,5.04Zm-3.39-10.78h0c0,.59.01,1.18,0,1.78-.02.54.23.75.76.74.91-.02,1.83-.03,2.74,0,.66.03.87-.26.85-.89-.03-1.06-.01-2.12,0-3.18,0-1.07.36-1.43,1.41-1.44,1.11,0,2.22-.01,3.33,0,.53,0,.77-.2.76-.74-.02-.94-.02-1.88,0-2.81.01-.57-.22-.8-.79-.79-1.13.02-2.27.02-3.4,0-.92-.01-1.3-.39-1.31-1.32-.01-1.11-.03-2.22,0-3.33.02-.65-.25-.88-.88-.86-.86.03-1.73.03-2.59,0-.62-.02-.91.19-.89.85.03,1.06.01,2.12,0,3.18,0,1.12-.35,1.47-1.45,1.48-1.09,0-2.17.02-3.26,0-.56-.01-.81.2-.8.78.02.91.03,1.83,0,2.74-.02.61.22.84.83.83,1.13-.03,2.27-.02,3.4,0,.87.01,1.25.4,1.27,1.28.01.57,0,1.13,0,1.7Z"/><path class="cls-1" d="m14.87,25.08c0,2.49-1.67,4.79-3.9,5.54-.91.3-1.58.05-1.83-.68-.23-.67.1-1.23.94-1.58,2.14-.89,2.83-2.56,1.95-4.73-.33-.83-.16-1.46.49-1.78.65-.32,1.26-.06,1.68.73.44.82.6,1.71.67,2.51Z"/><path class="cls-1" d="m19.94,41.9c-.06.41-.09.83-.19,1.24-.19.77-.79,1.19-1.44,1.05-.69-.15-1.08-.71-.93-1.52.16-.89.09-1.71-.37-2.5-.64-1.1-1.66-1.56-2.88-1.67-.64-.06-1.07-.42-1.17-1.04-.09-.54.2-.95.67-1.21.33-.19.71-.17,1.08-.13,2.92.29,5.2,2.83,5.23,5.78Z"/><path class="cls-1" d="m18.51,16.57c-1.5,0-2.79-.53-3.89-1.53-.6-.54-.68-1.24-.23-1.77.43-.51,1.09-.55,1.73-.11,1.95,1.35,2.83,1.35,4.8,0,.65-.45,1.27-.4,1.72.12.43.49.37,1.19-.18,1.71-1.1,1.05-2.42,1.58-3.94,1.59Z"/><path class="cls-1" d="m9.28,6.57c.64,0,1.18.54,1.17,1.18,0,.66-.51,1.18-1.16,1.19-.64.02-1.25-.59-1.24-1.22.01-.61.6-1.16,1.23-1.15Z"/><path class="cls-1" d="m38.27,21.71c.91-.02,1.46.84,1.11,1.74-.24.6-.48,1.2-.44,1.85.08,1.35.73,2.32,1.96,2.9.16.07.32.12.48.19.76.33,1.06.93.82,1.58-.25.66-.85.93-1.64.69-1.32-.41-2.39-1.2-3.12-2.36-1.16-1.88-1.28-3.84-.24-5.83.24-.46.61-.69,1.07-.76Z"/><path class="cls-1" d="m31.45,41.84c.02-2.91,2.28-5.41,5.17-5.72.17-.02.35-.03.52-.01.72.05,1.26.56,1.28,1.19.01.59-.48,1.11-1.18,1.2-.52.07-1.03.14-1.5.37-1.31.63-2.04,2.04-1.81,3.49.02.15.06.29.07.44.06.75-.33,1.29-1.01,1.4-.61.1-1.16-.28-1.37-.97-.13-.45-.19-.92-.18-1.39Z"/><path class="cls-1" d="m32.39,16.56c-1.12-.03-2.39-.55-3.46-1.55-.56-.53-.64-1.21-.24-1.71.45-.56,1.11-.61,1.78-.13,1.87,1.32,2.9,1.33,4.74.01.66-.47,1.35-.43,1.78.11.41.52.34,1.19-.22,1.72-1.13,1.06-2.48,1.57-4.38,1.55Z"/></g></svg>