<?xml version="1.0" encoding="UTF-8"?><svg id="Capa_2" xmlns="http://www.w3.org/2000/svg" viewBox="0 0 66.7 66.6"><defs><style>.cls-1{fill:#57846c;stroke-width:0px;}</style></defs><g id="Capa_1-2"><path class="cls-1" d="m51.22,33.61c0,.32.02.64,0,.95-.05.49.15.77.58,1.03,2.33,1.41,3.51,3.51,3.29,6.21-.23,2.82-1.81,4.74-4.47,5.71-1.37.5-2.79.54-4.15-.02-.7-.29-1.15-.16-1.7.29-4.28,3.57-9.22,4.87-14.69,4.04-1.36-.21-2.29-.17-3.4.88-2.05,1.95-5.32,1.8-7.46,0-2.24-1.87-2.87-4.88-1.49-7.41.35-.65.31-1.08-.08-1.7-2.41-3.86-3.39-8.04-2.59-12.56.13-.73-.05-1.14-.67-1.56-2.41-1.64-3.41-4.61-2.55-7.31.9-2.82,3.47-4.71,6.38-4.66,1.29.03,2.51.37,3.57,1.14.44.32.79.32,1.24.02,3.96-2.58,8.28-3.53,12.95-2.77.59.1.88-.16,1.22-.57,2.66-3.23,6.93-3.74,10.16-1.22,2.81,2.19,3.57,6.31,1.66,9.33-.38.6-.39,1.05-.06,1.65,1.47,2.64,2.22,5.49,2.25,8.51Zm-2.82.32c.04-2.44-.54-4.73-1.59-6.92-.31-.64-.56-.88-1.35-.57-2.47.99-4.83.61-6.93-.99-1.91-1.45-2.85-3.43-2.82-5.84,0-.48.02-.89-.65-.98-1.91-.26-3.81-.18-5.66.32-6.72,1.81-10.98,6.8-11.69,13.72-.34,3.35.52,6.46,2.23,9.34.23.38.46.66,1.04.48,4.17-1.24,7.69,1.19,8.03,5.55.05.64.33.85.88.93,1.45.2,2.89.4,4.38.26,8.06-.71,14.13-7.25,14.14-15.29Zm-5.49-9.83c2.42-.01,4.42-2.04,4.38-4.42-.04-2.36-2.07-4.34-4.43-4.31-2.47.03-4.36,1.96-4.33,4.44.03,2.42,1.95,4.3,4.38,4.29Zm-16.82,24.01c0-1.8-1.3-3.15-3.06-3.16-1.77,0-3.15,1.34-3.17,3.08-.02,1.8,1.36,3.22,3.13,3.21,1.76,0,3.09-1.35,3.09-3.13Zm-8.08-27.76c-1.5.05-2.65.83-3.29,2.26-.64,1.44-.39,2.81.64,4.02.42.49.71.68,1.05-.13.7-1.68,1.7-3.19,2.89-4.57.26-.3.87-.54.64-1-.22-.42-.82-.47-1.31-.54-.17-.02-.34-.02-.62-.03Zm30.59,24.68c1.55-.05,2.7-.78,3.34-2.18.63-1.39.46-2.75-.51-3.96-.15-.19-.3-.48-.61-.4-.26.06-.26.35-.32.56-.52,1.81-1.32,3.48-2.38,5.04-.15.22-.48.44-.32.74.15.29.52.16.8.2Z"/><path class="cls-1" d="m18.37,59.84c1.39.85,2.7,1.42,4.03,1.95,3.5,1.38,7.17,2.15,10.9,2.03,12.15-.38,21.28-5.86,27.14-16.59,2.34-4.29,3.4-8.96,3.41-13.8.01-6.2-1.7-11.95-5.18-17.12-.16-.24-.33-.47-.48-.72-.47-.77-.36-1.52.29-1.99.63-.46,1.46-.35,1.98.37.64.88,1.25,1.8,1.79,2.75,7.14,12.67,5.61,27.88-4.04,38.71-6.49,7.28-14.7,11-24.5,11.16-5.88.1-11.35-1.35-16.58-4.13-.1.49.11.88.15,1.29.11.96-.25,1.58-1,1.75-.82.18-1.46-.22-1.71-1.17-.41-1.53-.79-3.07-1.14-4.62-.22-.98.18-1.62,1.17-1.88,1.53-.4,3.07-.77,4.62-1.12.92-.21,1.61.21,1.81,1.02.18.73-.26,1.42-1.12,1.69-.45.14-.92.25-1.55.41Z"/><path class="cls-1" d="m48.33,6.78c-1.39-.89-2.74-1.44-4.09-1.98-3.5-1.38-7.17-2.06-10.9-2.02-7.21.07-13.71,2.32-19.31,6.93-5.72,4.7-9.34,10.73-10.67,18-1.5,8.19.14,15.81,4.75,22.76.14.22.31.42.44.64.41.71.26,1.46-.37,1.91-.58.41-1.39.35-1.86-.27-.64-.85-1.23-1.74-1.77-2.66C.69,43.43-.7,36.26.32,28.68c1.03-7.6,4.37-14.13,9.93-19.41C17.71,2.2,26.65-.78,36.87.17c4.21.39,8.18,1.65,11.93,3.59.21.11.43.41.68.19.18-.16,0-.44-.03-.66-.03-.2-.07-.4-.08-.6-.05-.78.21-1.37,1.03-1.57.73-.18,1.41.21,1.65,1.03.35,1.19.6,2.4.92,3.6.58,2.14.58,2.82-2.01,3.34-1.19.24-2.35.58-3.53.84-.93.2-1.61-.21-1.81-1.03-.18-.72.26-1.38,1.14-1.67.46-.15.92-.26,1.56-.44Z"/></g></svg>