<?xml version="1.0" encoding="UTF-8"?><svg id="Capa_2" xmlns="http://www.w3.org/2000/svg" viewBox="0 0 66.57 66.56"><defs><style>.cls-1{fill:#57846c;stroke-width:0px;}</style></defs><g id="Capa_1-2"><path class="cls-1" d="m34.37,54.57c-.31,2.06.45,3.78,1.65,5.39,1.09,1.47,2.06,3,2.22,4.9.02.26.06.52.01.77-.11.57-.45.93-1.07.94-.61,0-1.06-.35-1.07-.92-.02-2.13-1.38-3.61-2.4-5.27-.28-.46-.51-.58-.84-.04-1.01,1.66-2.39,3.13-2.42,5.26,0,.65-.52,1.04-1.21.95-.74-.1-1.02-.64-.96-1.31.1-1.31.45-2.55,1.18-3.67.35-.53.65-1.1,1.06-1.58,2.03-2.38,1.96-5.17,1.48-7.96-.5-2.87-2.33-4.74-5.11-5.52-2.6-.73-4.97-.15-6.98,1.69-.64.58-1.22,1.23-1.84,1.83-1.4,1.35-1.52,3.19-1.86,4.93-.29,1.47-.71,2.85-1.66,4.03-.22.27-.45.53-.73.73-.46.32-.94.27-1.33-.13-.39-.4-.5-.93-.1-1.33,1.57-1.58,1.61-3.7,2.08-5.67.09-.37,0-.57-.42-.48-1.21.27-2.42.51-3.63.81-.75.18-1.32.68-1.9,1.16-.52.43-1.06.5-1.54-.02-.49-.55-.37-1.12.13-1.61,1.02-.99,2.25-1.6,3.63-1.9.76-.17,1.52-.33,2.29-.47,3.64-.69,5.82-3.12,7-6.37,1.58-4.34-1.93-9.17-6.55-9.32-1.01-.03-2.02-.02-3.03,0-.91.02-1.76.31-2.52.8-.95.6-1.88,1.23-2.82,1.86-1.11.75-2.34,1.1-3.65,1.24-.83.09-1.39-.33-1.44-1.01-.05-.67.37-1.18,1.18-1.2,2.14-.05,3.56-1.51,5.22-2.51.34-.2.24-.41-.04-.58-1.66-1-3.09-2.45-5.23-2.49-.79-.01-1.2-.58-1.12-1.24.08-.64.63-1.04,1.41-.96,1.37.14,2.63.55,3.8,1.31,1.28.82,2.4,2.01,3.92,2.31,2.81.56,5.64.71,8.15-1.08,3.61-2.57,4.11-7.58,1.13-10.87-.62-.68-1.3-1.31-1.95-1.96-1.36-1.38-3.21-1.46-4.95-1.81-1.44-.29-2.79-.72-3.94-1.65-.24-.2-.49-.41-.68-.66-.36-.48-.34-.98.09-1.41.4-.39.93-.49,1.33-.1,1.56,1.54,3.64,1.61,5.59,2.06.46.11.67.05.54-.49-.47-1.94-.5-4.03-2.05-5.59-.42-.43-.33-.98.11-1.39.52-.48,1.07-.38,1.54.08,1.04,1.02,1.66,2.27,1.97,3.69.17.76.33,1.52.47,2.29.66,3.61,3.09,5.78,6.28,6.98,4.4,1.65,9.29-1.89,9.42-6.6.02-.89,0-1.79,0-2.68,0-1.04-.3-1.99-.85-2.86-.59-.92-1.2-1.83-1.81-2.74-.75-1.1-1.1-2.34-1.24-3.65-.09-.83.33-1.4,1-1.45.67-.05,1.19.36,1.21,1.17.04,2.14,1.51,3.56,2.51,5.22.2.33.41.26.58-.03,1-1.66,2.45-3.09,2.49-5.23.01-.79.57-1.21,1.24-1.13.64.08,1.04.63.96,1.4-.13,1.27-.46,2.49-1.17,3.58-.35.53-.65,1.1-1.06,1.58-2.03,2.37-2.02,5.18-1.48,7.96,1.1,5.61,7.79,7.73,12.03,3.89.68-.62,1.31-1.3,1.96-1.95,1.36-1.34,1.47-3.15,1.8-4.86.29-1.47.71-2.85,1.66-4.03.2-.24.41-.49.66-.68.48-.36.98-.35,1.41.08.39.4.5.93.11,1.33-1.54,1.56-1.61,3.64-2.06,5.59-.11.46-.06.68.49.55,1.94-.47,4.03-.5,5.59-2.05.43-.42.98-.33,1.39.11.48.52.39,1.07-.07,1.54-1.02,1.04-2.27,1.66-3.68,1.97-.76.17-1.52.33-2.29.47-3.61.66-5.78,3.08-6.98,6.28-1.65,4.4,1.88,9.28,6.59,9.42.89.03,1.79,0,2.68,0,1.04,0,1.99-.3,2.86-.85.92-.59,1.83-1.2,2.74-1.81,1.1-.75,2.34-1.1,3.65-1.24.83-.09,1.4.32,1.46,1,.06.67-.36,1.19-1.17,1.21-2.14.04-3.56,1.51-5.22,2.51-.33.2-.26.4.03.58,1.66,1,3.09,2.45,5.23,2.49.79.01,1.21.57,1.13,1.24-.07.64-.62,1.04-1.4.97-1.27-.13-2.49-.46-3.58-1.17-.53-.35-1.1-.65-1.58-1.06-2.37-2.03-5.19-2.02-7.96-1.48-5.57,1.09-7.72,7.71-3.95,11.96.65.73,1.38,1.4,2.07,2.09,1.33,1.32,3.11,1.41,4.79,1.75,1.47.29,2.85.71,4.03,1.66.27.22.53.45.73.73.32.46.28.94-.13,1.33-.4.39-.93.5-1.33.11-1.56-1.54-3.64-1.61-5.59-2.06-.45-.1-.68-.07-.55.48.2.87.36,1.75.53,2.63.2,1.04.65,1.96,1.37,2.75.46.51.59,1.07.05,1.61-.47.47-1.11.4-1.67-.19-.96-1.01-1.55-2.21-1.84-3.57-.17-.76-.33-1.52-.47-2.29-.68-3.64-3.12-5.82-6.37-7-4.37-1.59-9.23,1.98-9.33,6.63-.01.46,0,.92,0,1.38Zm-11.6-32.24c-.6-.08-.48.31-.42.66.23,1.26.27,2.52,0,3.78-.54,2.58-1.88,4.63-4.11,6.06-.63.41-.59.6.02.96.72.42,1.35.98,1.9,1.62,2.02,2.36,2.73,5.09,2.18,8.14-.12.66.03.81.69.7.87-.14,1.75-.25,2.66-.15,3.11.32,5.5,1.77,7.19,4.37.29.44.45.52.76.02.44-.74.98-1.42,1.64-1.99,2.32-2.01,5-2.77,8.03-2.29.97.15.96.14.84-.88-.07-.63-.19-1.27-.15-1.89.2-3.29,1.59-5.92,4.4-7.72.53-.34.46-.49-.01-.81-3.45-2.34-4.83-5.6-4.21-9.7.11-.76.02-.95-.8-.82-4.07.66-7.3-.74-9.65-4.12-.35-.51-.51-.64-.91-.03-1.65,2.51-3.97,3.92-6.97,4.27-1.06.13-2.06-.07-3.1-.16Z"/><path class="cls-1" d="m33.01,23.42c5.52,0,9.88,4.2,10.13,9.45.24,5.27-3.8,9.78-9.2,10.25-5.05.44-9.77-3.46-10.43-8.59-.26-2.01.1-3.9.99-5.7.09-.18.19-.36.29-.53.37-.61.85-1,1.57-.6.7.39.67,1.01.33,1.64-.4.74-.73,1.5-.91,2.33-1,4.69,2.61,9.34,7.4,9.29,4.09-.04,7.56-2.85,7.75-7.49.17-3.95-2.65-7.1-6.41-7.76-1.62-.29-3.15,0-4.62.69-.18.09-.36.18-.54.28-.63.34-1.22.39-1.66-.29-.37-.57-.15-1.16.64-1.62,1.52-.91,3.18-1.32,4.66-1.35Z"/><path class="cls-1" d="m39.22,33.27c0,3.29-2.64,5.95-5.93,5.95-3.29,0-5.95-2.65-5.95-5.93,0-3.29,2.65-5.95,5.93-5.95,3.29,0,5.95,2.64,5.95,5.93Zm-5.92,3.78c2.07,0,3.73-1.67,3.74-3.74.01-2.1-1.68-3.79-3.78-3.78-2.07.01-3.73,1.67-3.74,3.74-.01,2.1,1.68,3.8,3.78,3.79Z"/></g></svg>