<?xml version="1.0" encoding="UTF-8"?><svg id="Capa_2" xmlns="http://www.w3.org/2000/svg" viewBox="0 0 63.54 70.18"><defs><style>.cls-1{fill:#57846c;stroke-width:0px;}</style></defs><g id="Capa_1-2"><path class="cls-1" d="m8.55,26.6c0-.57,0-.89,0-1.21,0-4.89-.01-9.79,0-14.68.01-2.71,1.56-4.54,4.06-4.91.72-.11,1.39.07,2.05.32.44.17.62.09.6-.4-.02-.52-.02-1.03,0-1.55C15.4,1.92,17.2.09,19.37,0c2.54-.1,4.48,1.41,4.75,3.8.08.73.32.75.92.57,2.86-.89,5.62,1.01,5.84,4,0,.09,0,.18,0,.27.03.57-.16,1.31.13,1.68.35.44.97-.17,1.49-.23,2.58-.33,4.96,1.67,5.06,4.45.09,2.55.03,5.11.02,7.66,0,.75-.32,1.32-1.14,1.4-.69.07-1.21-.49-1.22-1.41-.04-2.55,0-5.11-.04-7.66-.03-1.64-1.66-2.61-3.11-1.89-.93.46-1.19,1.31-1.19,2.29,0,5.32,0,10.64,0,15.96,0,.3,0,.61,0,.91-.02.98-.46,1.54-1.19,1.51-.7-.02-1.1-.54-1.1-1.5,0-4.44,0-8.88,0-13.31,0-3.22.01-6.44,0-9.67,0-1.53-.96-2.43-2.39-2.36-.93.05-1.51.56-1.84,1.4-.2.52-.21,1.07-.21,1.62,0,7.3,0,14.59,0,21.89,0,.33.01.67-.03,1-.07.55-.4.88-.96.92-.55.04-.94-.21-1.14-.72-.17-.43-.12-.9-.12-1.35,0-8.63,0-17.27,0-25.9,0-.39.01-.79-.04-1.18-.14-1.14-1.05-1.9-2.2-1.88-1.11.03-2.01.89-2.09,2.01-.03.36-.02.73-.02,1.09,0,8.66,0,17.33,0,25.99,0,1.36-.33,1.92-1.13,1.94-.82.02-1.15-.52-1.15-1.89,0-6.93,0-13.86,0-20.79,0-1.49-.82-2.46-2.08-2.5-1.33-.04-2.21.75-2.24,2.08-.03,1.31-.01,2.61-.01,3.92,0,5.44,0,10.88,0,16.32,0,.84.16,1.85-.92,2.14-1.13.3-1.38-.76-1.77-1.47-.66-1.2-1.24-2.44-1.91-3.63-.48-.84-1.42-1.24-2.24-1.06-.95.22-1.55.81-1.78,1.76-.17.71.15,1.31.46,1.91,1.91,3.67,3.82,7.33,5.73,10.99.7,1.35,1.38,2.71,2.09,4.05.2.39.34.78.34,1.22,0,1.37.03,2.74,0,4.1-.03,1.02-.46,1.54-1.18,1.55-.71.02-1.13-.54-1.17-1.55-.01-.27-.04-.55,0-.82.32-2.43-.47-4.54-1.64-6.65-2.21-3.99-4.24-8.07-6.31-12.13-1.2-2.36-.56-4.83,1.5-6.07,2.16-1.3,4.54-.74,6.15,1.44.04.05.08.09.3.36Z"/><path class="cls-1" d="m37.59,32.88c.46-.11.61-.36.8-.54,7.8-7.74,20.62-4.86,24.33,5.46,3.03,8.43-2.62,17.89-11.49,19.24-4.78.73-8.95-.57-12.5-3.86-.25-.23-.47-.66-.9-.44-.36.19-.22.6-.23.92-.02.88,0,1.76,0,2.64,0,1.26-.42,1.93-1.17,1.95-.77.02-1.21-.67-1.22-1.91,0-.97-.02-1.95,0-2.92.01-.51-.18-.69-.71-.66-.77.05-1.65.25-2.12-.64-.44-.84.16-1.53.63-2.04,1.85-1.96,1.78-4.2,1.22-6.58-.14-.61-.36-.58-.79-.32-1.26.76-2.14,1.87-2.82,3.15-.47.89-1,1.73-1.58,2.55-1.84,2.59-4.3,3.94-7.51,3.91-1.29-.01-2.56.17-3.63.99-2.24,1.72-2.21,5.37.07,7.14,1.26.98,2.76,1.37,4.3,1.65,1.4.25,2.82.43,4.14,1.03,2.11.96,3.12,2.8,2.62,4.84-.09.39-.25.75-.48,1.08-.42.6-.98.86-1.65.48-.65-.37-.64-.95-.36-1.58.57-1.3.19-2.16-1.17-2.76-1.38-.61-2.9-.64-4.34-.99-1.77-.42-3.43-1.03-4.84-2.23-1.98-1.69-2.47-3.91-2.12-6.35.35-2.47,1.79-4.13,4.09-5.05,1.24-.49,2.55-.63,3.85-.61,2.15.03,3.7-.98,4.95-2.6.73-.94,1.31-1.97,1.88-3.01,1.06-1.97,2.64-3.4,4.71-4.24.57-.23.79-.59,1-1.15.86-2.33.62-4.73.64-7.12.01-1.49,0-2.98,0-4.47.01-1.05.45-1.66,1.16-1.68.74-.02,1.21.62,1.22,1.71.01,1.64,0,3.27,0,4.99Zm9.91,22.06c9.06,0,14.92-6.99,13.53-14.46-1.27-6.8-7.65-11.28-14.28-10.07-7.3,1.33-11.71,8.41-9.79,15.43.32,1.18.27,2.1-.48,3.05-.31.39-.86.9-.64,1.31.23.44.95.19,1.44.15,1.23-.12,2.15.25,3.06,1.17,2.34,2.34,5.26,3.42,7.17,3.43Z"/><path class="cls-1" d="m8.55,62.36c0-1.94,0-3.89,0-5.83,0-.4,0-.79.17-1.16.22-.47.59-.68,1.1-.65.48.03.83.26.95.71.11.37.15.78.15,1.17.01,3.89,0,7.78,0,11.67,0,.3-.02.61-.07.91-.1.62-.46.99-1.11.99-.65,0-1.01-.37-1.13-.97-.06-.29-.06-.6-.06-.91,0-1.97,0-3.95,0-5.92Z"/><path class="cls-1" d="m37.59,65.48c0,1.06.02,2.13,0,3.19-.02.99-.47,1.51-1.22,1.49-.71-.02-1.14-.52-1.15-1.47-.02-2.13-.02-4.25,0-6.38.01-.98.5-1.54,1.22-1.51.71.03,1.14.59,1.15,1.58.02,1.03,0,2.07,0,3.1Z"/><path class="cls-1" d="m20.68,54.92c.67,0,1.21.54,1.2,1.21,0,.63-.62,1.24-1.23,1.19-.7-.06-1.09-.49-1.15-1.17-.05-.64.54-1.22,1.18-1.22Z"/><path class="cls-1" d="m27.04,56.82c-.65,0-1.21-.57-1.17-1.24.04-.71.48-1.09,1.16-1.16.61-.06,1.24.58,1.25,1.19,0,.6-.62,1.21-1.24,1.21Z"/><path class="cls-1" d="m32.85,66.5c-.03.64-.65,1.24-1.28,1.16-.7-.1-1.12-.56-1.09-1.24.03-.68.45-1.13,1.17-1.16.65-.03,1.22.59,1.19,1.24Z"/><path class="cls-1" d="m31.02,52.55c-.1.61-.48,1.03-1.19,1.07-.65.04-1.25-.56-1.21-1.21.05-.71.47-1.1,1.18-1.14.65-.04,1.23.55,1.22,1.28Z"/><path class="cls-1" d="m31.49,59.09c.84-.03,1.39.47,1.36,1.15-.03.7-.43,1.11-1.14,1.16-.67.05-1.28-.51-1.24-1.16.05-.68.43-1.1,1.02-1.15Z"/><path class="cls-1" d="m25.81,60.6c-.08.68-.45,1.1-1.16,1.14-.66.03-1.19-.55-1.17-1.23.02-.66.61-1.24,1.25-1.16.7.09,1.05.53,1.08,1.25Z"/><path class="cls-1" d="m59.9,42.6c0,6.13-4.97,11.1-11.07,11.09-6.08,0-11.11-5.03-11.08-11.11.03-6.04,4.78-11.05,11.1-11.1,6.15-.05,11.05,4.99,11.05,11.11Zm-2.29,0c0-4.87-3.86-8.75-8.73-8.75-4.91,0-8.94,3.92-8.85,8.76.1,4.92,3.77,8.83,8.86,8.79,5.56-.04,8.81-4.58,8.72-8.79Z"/><path class="cls-1" d="m41.56,44.24c0-1.75,1.42-3.17,3.19-3.18,1.73,0,3.23,1.44,3.25,3.15.02,1.72-1.56,3.29-3.26,3.27-1.73-.03-3.17-1.49-3.17-3.23Z"/><path class="cls-1" d="m49.23,35.03c1.74.03,3.18,1.5,3.15,3.22-.03,1.71-1.53,3.18-3.24,3.16-1.72-.02-3.18-1.49-3.18-3.22,0-1.81,1.43-3.19,3.28-3.16Z"/><path class="cls-1" d="m55.34,45.15c0,1.83-1.31,3.22-3.1,3.27-1.73.05-3.21-1.4-3.23-3.16-.02-1.81,1.42-3.27,3.22-3.27,1.71,0,3.1,1.42,3.11,3.16Z"/></g></svg>